<svg width="48" height="48" viewBox="0 0 48 48" fill="none" xmlns="http://www.w3.org/2000/svg">
<g id="Google Inbox">
<g id="Google Inbox_2">
<rect id="Rectangle" width="48" height="48" rx="24" fill="#4285F4"/>
<g id="Group">
<path id="Vector" d="M20.7976 15.7688C20.6803 15.6514 20.4901 15.6514 20.3727 15.7688L18.5501 17.5911C18.4937 17.6475 18.4621 17.7237 18.4621 17.8036C18.4621 17.8834 18.4937 17.9597 18.5501 18.016L23.8899 23.3556C23.9487 23.4143 24.0255 23.4436 24.1024 23.4436C24.1793 23.4436 24.2562 23.4143 24.3149 23.3556L34.9869 12.6835C35.1043 12.5662 35.1043 12.376 34.9869 12.2586L33.1646 10.436C33.1083 10.3796 33.032 10.3479 32.9522 10.3479C32.8723 10.3479 32.7959 10.3797 32.7396 10.436L24.1024 19.0735L20.7976 15.7688Z" fill="white"/>
<path id="Vector_2" d="M38.8752 19.3174C38.8752 19.3172 38.8749 19.317 38.8748 19.3168C38.7216 18.8562 38.4417 18.4688 38.0646 18.1966L33.5682 14.9522L32.7072 15.8133L37.3063 19.1318L37.3611 19.1712C37.4098 19.2065 37.4468 19.2561 37.4884 19.3004C37.4984 19.3109 37.5095 19.3202 37.519 19.3313C37.5615 19.4611 37.5169 19.6065 37.3954 19.6805L10.361 36.1408C10.6352 36.2597 10.9366 36.3271 11.254 36.3271H36.7457C37.9886 36.3271 39 35.3161 39 34.0731V20.0245C38.9999 19.8017 38.9591 19.5704 38.8752 19.3174Z" fill="white"/>
<path id="Vector_3" d="M10.5113 19.3002C10.5528 19.2562 10.5897 19.2066 10.6382 19.1715L23.384 9.97462C23.7527 9.70871 24.2469 9.70871 24.6155 9.97462L29.1088 13.2168L29.9699 12.3557L25.3188 8.99962C24.5298 8.43022 23.4697 8.43022 22.6808 8.99962L9.93473 18.1968C9.55864 18.4685 9.27854 18.8554 9.12496 19.3162C9.12484 19.3165 9.12454 19.3168 9.12442 19.3171C9.04075 19.5695 9 19.8008 9 20.0244V34.0731C9 34.7584 9.31394 35.3658 9.79811 35.7795L23.6874 27.3227L10.5113 19.3002Z" fill="white"/>
</g>
</g>
</g>
</svg>
