<svg width="48" height="48" viewBox="0 0 48 48" fill="none" xmlns="http://www.w3.org/2000/svg">
<g id="Viber">
<g id="Viber_2">
<rect id="Rectangle" width="48" height="48" rx="24" fill="#675DA9"/>
<g id="Group">
<path id="Vector" d="M35.7536 12.1845C34.9597 11.4547 31.7457 9.11782 24.5815 9.08581C24.5815 9.08581 16.1368 8.57362 12.0201 12.351C9.72804 14.643 8.92135 17.9915 8.83812 22.153C8.75489 26.3081 8.64605 34.0998 16.156 36.2125H16.1624L16.156 39.4329C16.156 39.4329 16.1112 40.739 16.9691 41.0015C18.0063 41.3216 18.6209 40.3292 19.6133 39.26C20.1575 38.671 20.9065 37.8131 21.4763 37.1537C26.611 37.5826 30.5613 36.5967 31.0094 36.4494C32.0466 36.1101 37.9176 35.361 38.8715 27.5694C39.8575 19.5536 38.3913 14.4766 35.7536 12.1845ZM36.6243 27.006C35.8176 33.5107 31.0606 33.9205 30.1835 34.2022C29.8122 34.3238 26.3421 35.1882 21.9757 34.9C21.9757 34.9 18.7233 38.8247 17.7118 39.8427C17.5517 40.0027 17.366 40.0667 17.2444 40.0347C17.0715 39.9899 17.0203 39.785 17.0267 39.4841C17.0267 39.0488 17.0523 34.1254 17.0523 34.1254C17.0459 34.1254 17.0459 34.1254 17.0523 34.1254C10.6948 32.3647 11.0661 25.7319 11.1366 22.2618C11.207 18.7918 11.86 15.9427 13.7999 14.0284C17.2764 10.8785 24.4534 11.3458 24.4534 11.3458C30.51 11.3714 33.4103 13.1961 34.0826 13.8043C36.317 15.725 37.4566 20.3027 36.6243 27.006Z" fill="white"/>
<path id="Vector_2" d="M27.533 22.3835C27.3217 22.3835 27.1424 22.217 27.1296 21.9993C27.0592 20.6228 26.4126 19.9506 25.0937 19.8802C24.8696 19.8674 24.6967 19.6753 24.7095 19.4512C24.7224 19.2271 24.9144 19.0543 25.1385 19.0671C26.8799 19.1631 27.8531 20.1619 27.9427 21.9545C27.9555 22.1786 27.7827 22.3707 27.5586 22.3771C27.5458 22.3835 27.5394 22.3835 27.533 22.3835Z" fill="white"/>
<path id="Vector_3" d="M29.6073 23.075H29.6009C29.3768 23.0686 29.1976 22.883 29.204 22.6589C29.236 21.276 28.839 20.1556 27.9939 19.2336C27.1552 18.3117 25.9964 17.8123 24.4662 17.7035C24.2421 17.6843 24.0757 17.4922 24.0949 17.2681C24.1141 17.044 24.3062 16.8776 24.5303 16.8968C26.2589 17.0248 27.6226 17.6266 28.5957 18.6894C29.5753 19.7586 30.0491 21.0967 30.0171 22.6781C30.0107 22.9022 29.825 23.075 29.6073 23.075Z" fill="white"/>
<path id="Vector_4" d="M31.7329 23.9072C31.5088 23.9072 31.3295 23.7279 31.3295 23.5038C31.3103 21.0261 30.5997 19.1374 29.1527 17.7225C27.725 16.3268 25.9132 15.6161 23.7812 15.5969C23.5571 15.5969 23.3778 15.4112 23.3778 15.1872C23.3778 14.9631 23.5635 14.7838 23.7812 14.7838C26.1308 14.803 28.1284 15.5905 29.7097 17.1399C31.2975 18.6892 32.1106 20.8276 32.1362 23.491C32.1426 23.7215 31.9634 23.9072 31.7329 23.9072C31.7393 23.9072 31.7393 23.9072 31.7329 23.9072Z" fill="white"/>
<path id="Vector_5" d="M25.1897 27.3964C25.1897 27.3964 25.7595 27.4477 26.0668 27.0699L26.6622 26.3209C26.9503 25.9495 27.6482 25.7126 28.3269 26.0904C28.7046 26.3016 29.3896 26.7242 29.8122 27.0379C30.2668 27.3708 31.1887 28.1391 31.1951 28.1455C31.6369 28.5169 31.7393 29.0611 31.4384 29.6437C31.4384 29.6437 31.4384 29.6501 31.4384 29.6565C31.1311 30.2007 30.7149 30.7129 30.1963 31.1866C30.1899 31.1866 30.1899 31.193 30.1835 31.193C29.7546 31.5516 29.332 31.7564 28.9223 31.8013C28.871 31.8141 28.8134 31.8141 28.7366 31.8141C28.5573 31.8141 28.3781 31.7885 28.1988 31.7308L28.186 31.7116C27.5458 31.5324 26.483 31.0842 24.7159 30.1046C23.5635 29.4708 22.6096 28.8242 21.7965 28.1775C21.3675 27.8382 20.9321 27.4605 20.484 27.0123C20.4712 26.9995 20.452 26.9803 20.4392 26.9675C20.4264 26.9547 20.4072 26.9355 20.3944 26.9227C20.3815 26.9099 20.3623 26.8907 20.3495 26.8779C20.3367 26.8651 20.3175 26.8458 20.3047 26.833C19.863 26.3849 19.4788 25.9495 19.1395 25.5206C18.4929 24.7139 17.8462 23.7535 17.2124 22.6011C16.2328 20.8276 15.7847 19.7649 15.6054 19.131L15.5862 19.1182C15.5286 18.939 15.503 18.7597 15.503 18.5804C15.503 18.5036 15.503 18.446 15.5158 18.3948C15.567 17.9786 15.7719 17.5624 16.124 17.1335C16.124 17.1271 16.1304 17.1271 16.1304 17.1207C16.6042 16.5957 17.1164 16.1859 17.6605 15.8786C17.6605 15.8786 17.667 15.8786 17.6734 15.8786C18.2496 15.5777 18.7938 15.6802 19.1715 16.1219C19.1715 16.1219 19.9462 17.0503 20.2791 17.5048C20.5928 17.9338 21.0154 18.6124 21.2267 18.9902C21.6044 19.6688 21.3675 20.3667 20.9962 20.6548L20.2471 21.2502C19.8694 21.5575 19.9206 22.1273 19.9206 22.1273C19.9206 22.1273 21.0282 26.3401 25.1897 27.3964Z" fill="white"/>
</g>
</g>
</g>
</svg>
