<svg xmlns="http://www.w3.org/2000/svg" fill="none" viewBox="0 0 64 89"><defs/><path fill="url(#paint0_linear)" fill-rule="evenodd" d="M58.27 48.807h.717a5.01 5.01 0 013.542 1.473 5.036 5.036 0 011.469 3.551v30.145a5.036 5.036 0 01-1.47 3.551 5.01 5.01 0 01-3.541 1.474H6.009a5.01 5.01 0 01-3.542-1.474 5.036 5.036 0 01-1.469-3.55V53.83a5.036 5.036 0 011.47-3.55 5.01 5.01 0 013.541-1.474h.716V25.839C6.725 11.592 18.287 0 32.498 0c14.21 0 25.773 11.592 25.773 25.84v22.967zM16.3 9.599a22.998 22.998 0 00-6.71 16.24v22.968h5.727V25.839c0-4.568 1.81-8.95 5.033-12.18a17.16 17.16 0 0112.149-5.046 17.16 17.16 0 0112.15 5.046 17.248 17.248 0 015.032 12.18v22.968h5.727V25.839a22.998 22.998 0 00-6.71-16.24A22.88 22.88 0 0032.498 2.87a22.88 22.88 0 00-16.2 6.728zm30.517 39.208V25.839c0-3.807-1.508-7.458-4.194-10.15a14.3 14.3 0 00-10.124-4.205 14.3 14.3 0 00-10.124 4.205 14.373 14.373 0 00-4.194 10.15v22.968h28.636zm13.689 36.691c.402-.403.629-.95.63-1.522V53.831c-.001-.57-.227-1.118-.63-1.522a2.147 2.147 0 00-1.518-.631H6.009c-.57 0-1.115.227-1.518.631-.402.404-.629.951-.63 1.522v30.145c.001.571.228 1.119.63 1.522.403.404.949.631 1.518.631h52.978c.57 0 1.115-.227 1.518-.63zM8.157 54.548c0 .794-.64 1.436-1.432 1.436-.79 0-1.431-.642-1.431-1.435s.64-1.436 1.431-1.436 1.432.643 1.432 1.436zM6.725 84.695c.791 0 1.432-.643 1.432-1.436 0-.792-.64-1.435-1.432-1.435-.79 0-1.431.643-1.431 1.436 0 .792.64 1.435 1.431 1.435zm52.978-30.145c0 .793-.642 1.435-1.432 1.435-.791 0-1.432-.642-1.432-1.435s.641-1.436 1.432-1.436c.79 0 1.432.643 1.432 1.436zM58.27 84.694c.79 0 1.432-.643 1.432-1.436 0-.792-.642-1.435-1.432-1.435-.791 0-1.432.643-1.432 1.436 0 .792.641 1.435 1.432 1.435zM28.312 60.21a7.147 7.147 0 018.372 0 7.175 7.175 0 012.606 3.553 7.194 7.194 0 01-2.496 8.012v5.742a4.312 4.312 0 01-1.259 3.045 4.29 4.29 0 01-6.074 0 4.312 4.312 0 01-1.258-3.045v-5.742a7.177 7.177 0 01-2.538-3.602 7.195 7.195 0 01.041-4.41 7.176 7.176 0 012.606-3.553zm5.81 10.08c.125-.218.305-.399.523-.525a4.303 4.303 0 001.821-2.082 4.317 4.317 0 00-1.353-5.065 4.289 4.289 0 00-6.764 2.302 4.317 4.317 0 00.18 2.763 4.303 4.303 0 001.822 2.081 1.433 1.433 0 01.715 1.243v6.51a1.438 1.438 0 001.432 1.435 1.43 1.43 0 001.432-1.435v-6.51c0-.252.066-.5.192-.717z" clip-rule="evenodd"/><defs><linearGradient id="paint0_linear" x1=".998" x2="63.998" y1="44.501" y2="44.501" gradientUnits="userSpaceOnUse"><stop stop-color="#00C6FB"/><stop offset="1" stop-color="#005BEA"/></linearGradient></defs></svg>