<svg xmlns="http://www.w3.org/2000/svg" fill="none" viewBox="0 0 563 411"><defs/><rect width="451" height="228" x="111.5" y="65.5" stroke="url(#paint0_linear)" stroke-dasharray="10 10" rx="5.5"/><ellipse fill="#D1E2EA" rx="144.5" ry="11.5" transform="matrix(-1 0 0 1 186.502 349.721)"/><path fill="#F7FBFF" d="M457.576 133.269c-16.998-14.315-45.696-16.846-53.308-42.992-4.943-16.995.239-28.288-15.824-39.669-38.82-27.535-85.412-19.7-120.363 5.263-34.95 24.962-58.212 62.689-101.858 72.287-23.767 5.207-48.602-.387-72.448 3.612-7.34 1.233-13.891 3.563-19.738 6.833-21.881 12.3-36.547 40.759-37.653 68.349-.868 22.376 12.587 40.679 7.984 63.587-4.862 24.378-.721-18.222.588 8.117 1.574 31.606 32.533 51.311 58.631 45.32 16.622-3.821 25.419 48.576 36.695 34.554 13.729-17.09 30.267-22.319 50.278-27.077 38.063-9.028 43.47-2.458 82.431-6.109 33.389-3.128 52.86 28.116 119.377 5.733 66.518-22.383-21.363-49.316 65.233-64.996 86.595-15.68 35.622-102.764-.025-132.812z"/><path fill="#B7CEFF" d="M83.718 138.034c16.158-13.609 43.44-16.014 50.676-40.87 4.699-16.156-.227-26.891 15.043-37.71 36.904-26.176 81.195-18.728 114.421 5.002 33.225 23.73 55.338 59.595 96.829 68.719 22.594 4.95 46.204-.368 68.872 3.434 6.978 1.172 13.205 3.387 18.763 6.495 20.802 11.693 34.743 38.747 35.795 64.975.825 21.271-11.966 38.671-7.59 60.448 4.622 23.175.685-17.322-.559 7.716-1.497 30.046-30.927 48.778-55.737 43.083-15.801-3.633-35.512 13.33-46.231 0-13.051-16.246-17.425 11.631-36.448 7.108-36.184-8.582-41.324-2.337-78.361-5.807-31.741-2.974-50.251 26.728-113.485 5.45-63.234-21.279 20.309-46.882-62.011-61.788-82.321-14.906-33.864-97.691.023-126.255z"/><path fill="#407BFF" d="M420.655 123.132L272.474 271.279l-7.285 7.283-15.57 15.566-36.091 36.098-111.469-111.444 27.11-27.103 33.198 33.19 31.881 31.889 19.28 19.26 19.265-19.26 117.406-117.394 43.346-43.336 27.11 27.104z"/><path fill="#407BFF" d="M272.473 245.129v26.15l-7.284 7.283-15.57 15.566v-48.999h22.854z"/><path fill="#243762" d="M359.74 149.388v34.644l-94.552 94.53h-92.795c-5.543 0-10.041-4.497-10.041-10.039V149.388c0-5.542 4.498-10.039 10.041-10.039h177.306c.167 0 .333 0 .485.015 5.331.257 9.556 4.649 9.556 10.024z"/><path fill="#F9FBFE" d="M352.017 124.54v67.229l-65.003 64.989H170.092V124.54h181.925z"/><path fill="#5D96FF" d="M170.086 140.503h181.926v-15.975H170.086v15.975z"/><path fill="#F5F7FF" d="M201.456 135.533h-21.597a2.165 2.165 0 01-2.166-2.165v-1.696c0-1.196.97-2.165 2.166-2.165h21.612c1.197 0 2.166.969 2.166 2.165v1.696a2.168 2.168 0 01-2.181 2.165z"/><path fill="#323657" d="M359.893 266.04c-.031.016-.047.016 0 0z"/><path fill="#FBC1C9" d="M389 252.789l18.159-10.16-6.24-.409L389 252.789z"/><path fill="#E1A7AF" d="M389 252.789l5.589-8.979 4.68-.136L389 252.789z"/><path fill="#CF979F" d="M402.979 244.976l.364 2.286L389 252.789l13.979-7.813z"/><path fill="#fff" d="M126.65 244.22a206.814 206.814 0 01-.184-3.119l.55-.044c.05 1.04.116 2.079.183 3.119l-.549.044zm282.757-3.296l-.316-.597c.016 0 .966-.885 2.248-2.478l.366.531c-1.299 1.637-2.265 2.5-2.298 2.544zm-283.124-3.739l-.15-3.916.55-.022c.033 1.283.083 2.611.133 3.916l-.533.022zm287.504-1.637l-.416-.487a37.52 37.52 0 001.799-3.053l.449.421a38.95 38.95 0 01-1.832 3.119zm-287.737-6.217l-.05-3.915h.55c0 1.283.016 2.61.05 3.915h-.55zM417.151 229l-.483-.332c.45-1.173.816-2.39 1.1-3.584l.516.221a33.251 33.251 0 01-1.133 3.695zm-290.601-7.522H126l.05-3.916.55.022c-.017 1.283-.05 2.588-.05 3.894zm292.35-.067l-.55-.088a25.614 25.614 0 00.05-3.85l.55-.066a27.845 27.845 0 01-.05 4.004zm-1.016-7.699a26.726 26.726 0 00-1.032-3.606l.499-.309c.433 1.238.8 2.477 1.066 3.716l-.533.199zm-291.168-.044l-.549-.044c.05-1.305.099-2.633.166-3.916l.55.044a146.71 146.71 0 00-.167 3.916zm288.703-6.925a33.439 33.439 0 00-1.748-3.097l.416-.464a30.967 30.967 0 011.782 3.163l-.45.398zm-288.32-.884l-.549-.067c.083-1.305.183-2.61.283-3.916l.549.067c-.116 1.305-.2 2.61-.283 3.916zm284.573-5.067l-.233-.309a23.765 23.765 0 00-1.949-2.235l.333-.575c.7.708 1.366 1.482 1.999 2.279l.233.309-.383.531zm-283.973-2.721l-.55-.088c.117-1.306.25-2.611.4-3.894l.533.111c-.117 1.283-.25 2.588-.383 3.871zm279.376-1.969a25.391 25.391 0 00-2.598-1.748l.217-.663c.933.553 1.815 1.15 2.648 1.792l-.267.619zm-5.312-3.141a33.588 33.588 0 00-2.815-1.129l.133-.708c1.016.354 1.949.73 2.848 1.129l-.166.708zm-5.663-2.058a96.564 96.564 0 00-2.881-.774l.1-.708a52.25 52.25 0 012.898.796l-.117.686zm-267.535-.575l-.533-.111c.166-1.283.333-2.588.516-3.871l.533.133c-.183 1.283-.366 2.566-.516 3.849zm261.74-.907l-.883-.199c-.666-.155-1.349-.31-2.032-.487l.1-.708c.683.155 1.349.332 2.032.487l.883.199-.1.708zm-5.813-1.416c-1.049-.265-1.998-.553-2.898-.819l.117-.707c.899.265 1.849.53 2.881.818l-.1.708zm-5.762-1.77a47.701 47.701 0 01-2.848-1.128l.166-.686c.9.376 1.849.752 2.815 1.106l-.133.708zm-5.629-2.456a35.833 35.833 0 01-2.715-1.57l.233-.664a38.911 38.911 0 002.681 1.549l-.199.685zm-243.437-1.128l-.533-.155c.2-1.283.433-2.566.65-3.827l.532.177c-.216 1.261-.433 2.522-.649 3.805zm238.074-2.256a35.638 35.638 0 01-2.515-2.08l.3-.597c.799.73 1.632 1.416 2.481 2.057l-.266.62zm-4.896-4.425a40.53 40.53 0 01-2.232-2.588l.383-.531a46.043 46.043 0 002.198 2.544l-.349.575zm-231.796-.929l-.533-.177c.25-1.261.517-2.544.8-3.783l.533.199c-.283 1.239-.55 2.522-.8 3.761zm227.499-4.469a56.085 56.085 0 01-1.916-3.009l.433-.442a85.533 85.533 0 001.882 2.964l-.399.487zm-225.85-3.031l-.516-.221c.3-1.239.616-2.5.932-3.717l.517.243a221.376 221.376 0 00-.933 3.695zm222.186-3.142a74.769 74.769 0 01-1.599-3.296l.466-.376a102.203 102.203 0 001.582 3.274l-.449.398zm-220.254-4.225l-.516-.266a216.96 216.96 0 011.082-3.65l.5.266c-.35 1.194-.716 2.433-1.066 3.65zm217.189-2.5a101.47 101.47 0 01-1.332-3.518l.5-.309a74.114 74.114 0 001.315 3.473l-.483.354zm-214.957-4.734l-.5-.288c.4-1.195.816-2.389 1.232-3.562l.5.31a151.82 151.82 0 00-1.232 3.54zm212.409-2.368a95.125 95.125 0 01-1.099-3.65l.516-.265c.35 1.238.716 2.455 1.083 3.628l-.5.287zM139.39 145.86l-.483-.332c.45-1.172.916-2.323 1.382-3.473l.483.354a99.249 99.249 0 00-1.382 3.451zm207.78-2.633a115.627 115.627 0 01-.9-3.738l.517-.222c.283 1.261.599 2.5.899 3.717l-.516.243zm-204.965-4.225l-.467-.376c.5-1.129 1.016-2.257 1.533-3.363l.466.376c-.533 1.128-1.033 2.257-1.532 3.363zm203.249-3.274a650.654 650.654 0 01-.749-3.806l.533-.177c.233 1.284.483 2.545.749 3.783l-.533.2zm-200.135-3.363l-.45-.398c.55-1.084 1.1-2.168 1.666-3.23l.449.42a148.673 148.673 0 00-1.665 3.208zm198.67-4.226a68.322 68.322 0 00-.9-3.694l.517-.244c.333 1.239.649 2.5.916 3.739l-.533.199zm-195.272-2.146l-.433-.442c.582-1.04 1.199-2.08 1.815-3.097l.433.464a64.128 64.128 0 00-1.815 3.075zm193.273-5.154a57.725 57.725 0 00-1.299-3.474l.483-.354a60.865 60.865 0 011.316 3.54l-.5.288zm-189.61-.952l-.416-.464c.633-.996 1.283-1.991 1.949-2.965l.399.487c-.649.973-1.299 1.947-1.932 2.942zm3.948-5.796l-.4-.509c.683-.951 1.382-1.88 2.082-2.81l.383.509c-.7.929-1.399 1.859-2.065 2.81zm182.864-.089a63.729 63.729 0 00-1.648-3.23l.449-.42a64.725 64.725 0 011.666 3.252l-.467.398zm-178.684-5.42l-.367-.531a97.859 97.859 0 012.199-2.632l.366.553a71.579 71.579 0 00-2.198 2.61zm175.254-.885a77.871 77.871 0 00-1.932-2.942l.399-.487a76.728 76.728 0 011.949 2.965l-.416.464zm-170.841-4.27l-.35-.553c.75-.84 1.533-1.659 2.299-2.477l.333.575c-.75.796-1.532 1.615-2.282 2.455zm166.877-1.482c-.683-.907-1.416-1.792-2.149-2.677l.367-.53a76.76 76.76 0 012.165 2.698l-.383.509zm-162.247-3.34l-.333-.576a94.726 94.726 0 012.398-2.3l.317.597c-.8.73-1.599 1.504-2.382 2.279zm157.867-1.859a95.242 95.242 0 00-2.315-2.411l.333-.575a73.657 73.657 0 012.331 2.433l-.349.553zm-153.054-2.61l-.3-.598c.817-.708 1.649-1.438 2.482-2.123l.283.619a48.635 48.635 0 00-2.465 2.102zm148.341-2.08a92.64 92.64 0 00-2.449-2.168l.3-.62a92.178 92.178 0 012.465 2.169l-.316.62zM179.344 90l-.283-.62c.849-.663 1.699-1.305 2.565-1.947l.266.642a75.552 75.552 0 00-2.548 1.925zm138.398-2.146a62.155 62.155 0 00-2.565-1.925l.266-.642c.866.642 1.732 1.284 2.582 1.947l-.283.62zm-133.252-1.66l-.25-.641c.866-.598 1.749-1.195 2.632-1.77l.233.642c-.866.597-1.749 1.172-2.615 1.77zm128.089-2.101c-.866-.576-1.749-1.15-2.648-1.726l.233-.664c.899.553 1.798 1.15 2.665 1.726l-.25.664zM189.77 82.764l-.234-.663a70.71 70.71 0 012.698-1.593l.217.663a83.996 83.996 0 00-2.681 1.593zm117.496-2.013c-.883-.509-1.799-1.04-2.715-1.526l.2-.664c.916.487 1.832 1.017 2.731 1.526l-.216.664zm-112.084-1.106l-.2-.664c.9-.486 1.832-.973 2.748-1.438l.2.686c-.932.442-1.848.93-2.748 1.416zm106.621-1.836c-.916-.465-1.848-.907-2.764-1.35l.183-.686c.933.443 1.865.885 2.781 1.35l-.2.686zm-101.108-.93l-.183-.685a66.412 66.412 0 012.798-1.261l.166.685c-.933.399-1.865.819-2.781 1.261zm95.546-1.659c-.933-.398-1.866-.796-2.815-1.172l.15-.686c.949.376 1.899.774 2.831 1.172l-.166.686zm-89.95-.796l-.167-.686a152.29 152.29 0 012.831-1.106l.15.708c-.932.332-1.882.708-2.814 1.084zm84.304-1.46a64.557 64.557 0 00-2.848-.996l.133-.708c.95.31 1.916.664 2.865.996l-.15.708zm-78.642-.664l-.133-.708c.949-.332 1.915-.642 2.864-.951l.134.708c-.95.31-1.916.62-2.865.95zm72.93-1.239c-.95-.288-1.916-.575-2.882-.84l.117-.709c.966.266 1.932.553 2.881.841l-.116.708zm-67.184-.575l-.117-.708 2.898-.797.1.708c-.966.266-1.932.531-2.881.797zm61.421-1.018c-.966-.243-1.932-.464-2.898-.686l.084-.708c.965.222 1.948.443 2.914.686l-.1.708zm-55.642-.464l-.1-.708c.966-.222 1.949-.443 2.915-.642l.083.708c-.966.2-1.949.42-2.898.642zm49.83-.841c-.966-.2-1.949-.376-2.915-.531l.067-.73c.982.155 1.965.354 2.931.53l-.083.73zm-44.018-.354l-.066-.73c.966-.177 1.965-.332 2.931-.487l.066.73c-.982.155-1.965.31-2.931.487zm38.172-.642c-.966-.132-1.965-.265-2.931-.376l.05-.73c.982.11 1.965.243 2.948.398l-.067.708zm-32.326-.265l-.05-.73a66.648 66.648 0 012.948-.332l.05.73-2.948.332zm26.447-.42c-.966-.089-1.965-.177-2.948-.244l.034-.73c.982.066 1.981.155 2.947.243l-.033.73zm-20.585-.177l-.033-.73 2.948-.2.016.73c-.965.067-1.948.133-2.931.2zm14.706-.244c-.983-.044-1.965-.066-2.948-.088v-.73c.983.022 1.965.044 2.948.088v.73zm-8.827-.066l-.016-.73a131.04 131.04 0 012.947-.044v.73c-.966 0-1.965.022-2.931.044zM461.27 144.708c-6.225-2.937-13.404-1.377-17.887 3.377a15.191 15.191 0 00-2.726 3.997c-2.166 4.558-1.893 9.646.288 13.795a15.363 15.363 0 008.042 7.207c1.454.575 2.938.909 4.422 1.03 6.225.499 12.404-2.832 15.237-8.813 3.65-7.722.348-16.943-7.376-20.593zm3.862 18.943c-2.121 4.482-6.755 6.98-11.42 6.602a11.866 11.866 0 01-3.317-.773 9.663 9.663 0 01-.711-.302 11.514 11.514 0 01-5.316-5.103 11.541 11.541 0 01-.212-10.342 11.274 11.274 0 012.044-2.998c3.347-3.558 8.739-4.739 13.404-2.529 5.8 2.741 8.269 9.661 5.528 15.445z"/><path fill="#2273B5" d="M444.368 164.074l-3.423 1.802c-2.166-4.149-2.438-9.236-.288-13.794a15.403 15.403 0 012.727-3.997l2.817 2.65a11.64 11.64 0 00-2.045 2.998 11.638 11.638 0 00.212 10.341z"/><path fill="#4DAFFF" d="M450.397 169.48l-1.423 3.604a15.365 15.365 0 01-8.042-7.208l3.422-1.802a11.585 11.585 0 005.317 5.103c.257.106.499.212.726.303zM453.411 174.113a15.384 15.384 0 01-4.423-1.029l1.424-3.604c1.09.424 2.196.681 3.317.772l-.318 3.861z"/><path fill="#F7A9B4" d="M449.897 174.9H421v-.576h28.322V162.09h.575v12.81z"/><path fill="#F7A9B4" d="M436.206 168.359H421v3.452h15.206v-3.452z"/><path fill="#E8EFFB" d="M45.014 142.431H42v20.018h3.014v-20.018zM52.512 146.504h-3.014v15.945h3.014v-15.945zM60.008 143.507h-3.014v18.942h3.014v-18.942zM67.504 149.427H64.49v13.037h3.014v-13.037zM75.002 144.127h-3.014v18.322h3.014v-18.322zM82.483 141.372h-3.014v21.092h3.014v-21.092zM89.983 140.22h-3.014v22.244h3.014V140.22z"/><path fill="#5D96FF" d="M45.014 149.896H42v12.553h3.014v-12.553zM52.512 152.44h-3.014v10.008h3.014V152.44zM60.008 150.563h-3.014v11.886h3.014v-11.886zM67.504 154.272H64.49v8.177h3.014v-8.177zM75.002 150.956h-3.014v11.493h3.014v-11.493zM82.483 149.215h-3.014v13.234h3.014v-13.234zM89.983 148.503h-3.014v13.946h3.014v-13.946z"/><path fill="#E8EFFB" d="M163.973 89.866h-17.448v2.513h17.448v-2.513zM171.273 94.53h-24.748v2.513h24.748v-2.514z"/><path fill="#fff" d="M453.772 107.994c-1.757-4.906-6.452-7.92-11.389-7.768-1.196.03-2.408.257-3.605.681-3.604 1.287-6.179 4.164-7.239 7.541a11.646 11.646 0 00.151 7.45c.091.242.182.499.288.726a12.022 12.022 0 001.818 2.923c3.074 3.604 8.163 5.133 12.888 3.437 6.104-2.18 9.269-8.888 7.088-14.99zm-8.072 12.219c-3.544 1.272-7.361.121-9.663-2.574a8.764 8.764 0 01-1.575-2.741 8.838 8.838 0 01-.121-5.587c.803-2.544 2.726-4.694 5.437-5.663a8.928 8.928 0 012.696-.515c3.711-.106 7.224 2.15 8.542 5.83 1.636 4.588-.742 9.615-5.316 11.25z"/><path fill="#1A598C" d="M434.341 109.326l-2.802-.878a11.71 11.71 0 017.24-7.541 11.653 11.653 0 013.604-.681l.091 2.937a8.959 8.959 0 00-2.696.515 8.698 8.698 0 00-5.437 5.648z"/><path fill="#2273B5" d="M434.674 115.443l-2.696 1.166c-.106-.242-.197-.484-.288-.726a11.645 11.645 0 01-.151-7.45l2.802.878a8.737 8.737 0 00.121 5.587c.061.182.136.364.212.545z"/><path fill="#4DAFFF" d="M433.796 119.532a11.705 11.705 0 01-1.817-2.922l2.695-1.166a8.805 8.805 0 001.363 2.195l-2.241 1.893z"/><path fill="#407BFF" d="M295.567 162.077h-91.69v3.195h91.69v-3.195zM295.567 172.479h-91.69v3.195h91.69v-3.195zM295.567 182.518h-91.69v3.195h91.69v-3.195zM295.567 192.921h-91.69v3.195h91.69v-3.195zM295.567 204.61h-91.69v3.195h91.69v-3.195zM295.567 215.012h-91.69v3.195h91.69v-3.195zM295.567 225.051h-91.69v3.195h91.69v-3.195z"/><path fill="#E8E8E8" d="M295.567 235.454h-91.69v3.195h91.69v-3.195z"/><path fill="#4CA1F4" d="M185.432 172.343h7.845a2.589 2.589 0 002.59-2.59v-7.843a2.588 2.588 0 00-2.59-2.589h-7.845a2.588 2.588 0 00-2.59 2.589v7.843a2.598 2.598 0 002.59 2.59zM185.43 213.119h7.845a2.588 2.588 0 002.59-2.589v-7.844a2.588 2.588 0 00-2.59-2.589h-7.845a2.588 2.588 0 00-2.59 2.589v7.844a2.598 2.598 0 002.59 2.589z"/><path fill="#fff" d="M188.911 209.758l-3.604-3.134a.702.702 0 01-.076-1 .702.702 0 01.999-.075l2.56 2.21 3.635-4.058a.714.714 0 01.999-.06.714.714 0 01.061.999l-4.574 5.118z"/><path fill="#4CA1F4" d="M185.43 192.663h7.845a2.589 2.589 0 002.59-2.59v-7.843a2.588 2.588 0 00-2.59-2.589h-7.845a2.588 2.588 0 00-2.59 2.589v7.843c.015 1.424 1.166 2.59 2.59 2.59z"/><path fill="#fff" d="M188.915 189.301l-3.605-3.134a.703.703 0 01-.075-1 .702.702 0 01.999-.076l2.56 2.211 3.635-4.058a.713.713 0 01.999-.06.714.714 0 01.061.999l-4.574 5.118z"/><path fill="#4CA1F4" d="M185.43 233.591h7.845a2.588 2.588 0 002.59-2.589v-7.844a2.588 2.588 0 00-2.59-2.589h-7.845a2.588 2.588 0 00-2.59 2.589v7.844a2.598 2.598 0 002.59 2.589z"/><path fill="#fff" d="M188.915 230.229l-3.605-3.134a.703.703 0 01-.075-1 .702.702 0 01.999-.076l2.56 2.211 3.635-4.058a.713.713 0 01.999-.06.714.714 0 01.061.999l-4.574 5.118zM187.841 166.83c0-.166.015-.333.031-.484.015-.152.06-.303.121-.439.06-.137.151-.273.272-.409.122-.121.273-.242.47-.348.091-.046.227-.122.378-.197.152-.091.319-.182.47-.288.151-.106.288-.242.394-.378a.784.784 0 00.166-.485.682.682 0 00-.257-.56.966.966 0 00-.606-.197c-.151 0-.273.03-.394.076-.121.06-.212.121-.303.196-.09.076-.166.167-.242.258-.061.091-.121.182-.182.257l-1.136-.787c.197-.454.5-.803.909-1.045a2.724 2.724 0 011.409-.378c.272 0 .56.045.833.121.272.075.53.212.742.378.227.182.394.409.545.682.136.272.212.62.212 1.014 0 .424-.091.772-.257 1.045-.167.288-.424.53-.773.742a2.86 2.86 0 01-.469.272 4.228 4.228 0 00-.44.258 1.03 1.03 0 00-.318.303.679.679 0 00-.121.393h-1.454zm.031 2.696v-1.651h1.438v1.651h-1.438z"/><path fill="#252840" d="M224.642 156.716s-1.196 1.06-2.272 2.665c-1.075 1.62-3.938 1.696-4.059 3.907-.121 2.211 3.893 2.271 5.998 1.559 2.105-.711 2.423-2.876 3.695-3.406 1.272-.546 1.939-.97 1.833-2.029-.091-1.06-.803-2.756-.803-2.756s-.787.257-1.257.303c-.469.06-2.045.075-3.135-.243z"/><path fill="#F1F1FF" d="M239.092 96.907s-.802 4.8-1.454 7.98c-.257 1.287-.499 2.301-.651 2.619-.182.409-1.696 2.029-3.559 3.937-3.256 3.347-7.557 7.571-7.557 7.571l-1.682-3.195s3.817-4.482 6.407-7.465c1.196-1.378 2.135-2.453 2.302-2.604.545-.485 1.166-5.254 2.06-9.191.878-3.937 2.65-6.102 2.65-6.102l1.484 6.45z"/><path fill="#EEA886" d="M233.411 111.458c-3.257 3.346-7.558 7.571-7.558 7.571l-1.681-3.195s3.816-4.482 6.406-7.465c.803.394 2.257 1.317 2.833 3.089z"/><path fill="#252840" d="M254.299 155.414s1.106 1.227 1.757 1.969c.651.742 3.165 2.059 3.165 4.27.016 2.392-1.847 2.18-3.498 2.089-1.651-.091-2.999-1.226-3.696-2.589-.696-1.348-2.559-1.711-2.68-2.801-.137-1.09.863-3.059.863-3.059l4.089.121z"/><path fill="#5F8CC9" d="M250.419 153.264l-.212 2.029s3.453 1.514 4.104.106l-.151-1.802-3.741-.333zM224.826 155.248l-.181 1.468s2.09.742 4.392-.06l.045-1.302-4.256-.106z"/><path fill="#F1F1FF" d="M254.496 118.378c.121.424-22.142 0-22.142 0s6.164-4.482 6.557-5.678c.394-1.197-1.575-8.374-1.817-10.721-.212-1.862-.727-10.236.515-11.507 1.287-1.333 5.922-2.741 5.922-2.741l6.77.257s1.12.228 1.908.606c.803.363 5.361 1.999 6.104 4.27.742 2.286-4.559 9.615-4.559 9.615s-.015.333-.03.863c-.016.727-.046 1.817-.076 2.998-.03 1.529-.061 3.225-.061 4.467 0 2.907.788 7.147.909 7.571z"/><path fill="#323657" d="M254.494 118.378s3.029 4.452 3.075 7.48c.045 3.028-1.121 11.447-1.212 13.113-.091 1.665-1.651 15.565-1.651 15.565s-1.212 1.121-4.846-.287c0 0-.803-13.174-.894-14.582-.091-1.408-.091-7.904-.894-8.843-.817-.938-5.725-3.891-6.376-4.451-.636-.561-11.813 2.104-12.979 2.407-3.029.788-1.651 6.057-.985 8.419 1.121 3.952 2.105 18.246 2.105 18.246s-2.165.923-5.77.136c0 0-7.103-25.786-7.33-28.36-.227-2.559-.333-6.799 17.159-10.009l20.598 1.166z"/><path fill="#EEA886" d="M245.391 73.043s-5.876-1.317-4.528 6.072c1.348 7.39 2.756 7.965 6.3 6.436 3.544-1.53 3.226-6.27 3.408-8.586.167-2.317-3.317-3.846-5.18-3.922z"/><path fill="#EEA886" d="M243.834 89.639s2.605 2.755 6.709.257c0 0-.924-5.98-.439-8.888.485-2.907-5.361 4.512-5.361 4.512.075.046.121.318.136.712.015.333-.015.757-.061 1.18-.106.955-.408 1.984-.984 2.227z"/><path fill="#EEA886" d="M248.543 78.131c.075-.651 1.363-.893 1.469.091.106.984-.591 2.695-1.076 2.529-.499-.182-.499-1.727-.393-2.62z"/><path fill="#3A3F47" d="M250.268 80.75s-.151-2.331-.999-2.407c-.849-.076-.985.863-.985.863l-.863.166s.272-2.044-.576-2.392c-.848-.363-5.497 1.12-6.179.53-.682-.606-.363-4.74.878-5.3 1.227-.56 4.635-1.832 7.134-.151 0 0 1.939-.227 2.226 1.348.288 1.56-.106 6.178-.636 7.343z"/><path fill="#A77860" d="M244.83 87.413c4.241-1.302 4.559-3.861 4.559-3.907-1.394 2.392-4.498 2.71-4.498 2.71 0 .349-.015.758-.061 1.197z"/><path fill="#EEA886" d="M252.284 88.624s-3.104 6.178-8.117 5.784c-5.014-.393-.849-6.617-.621-6.662.242-.076 5.134-1.287 8.738.878z"/><path fill="#F1F1FF" d="M229.807 118.059s15.372 1.893 24.686.318l-17.795-2.225s-.106.454-6.891 1.907z"/><path fill="#EEA886" d="M241.305 115.455l-1.151.575s.258 1.817.894 2.363l1.287-.334c0 .016-.257-1.983-1.03-2.604z"/><path fill="#F1F1FF" d="M259.099 111.73c-.227.273-3.256 1.484-6.664 2.801-4.665 1.802-9.92 3.498-9.92 3.498l-1.197-2.559s5.513-2.998 9.239-5.087c1.757-.985 3.12-1.787 3.317-1.969.606-.575.757-1.484.318-3.074-.439-1.589-1.454-8.918-1.575-9.781-.121-.848.288-3.135 2.423-3.256 2.136-.12 3.226.485 3.226.485s.53.227.939 5.406c.409 5.178.424 12.915-.106 13.536z"/><path fill="#B08439" d="M253.737 103.342c-.015.727-.045 1.817-.075 2.998-2.09-5.118-.879-9.191-.864-9.267-.227 1.393.924 6.208.939 6.269zM237.623 104.886c-.257 1.287-.5 2.302-.651 2.62-.712-3.453-.076-7.859-.076-7.859.106 2.12.727 5.239.727 5.239z"/><path fill="#EEA886" d="M252.435 114.531c-4.665 1.802-10.087 3.544-10.087 3.544l-1.03-2.62s5.513-2.998 9.239-5.088c-.015 0 1.333.652 1.878 4.164z"/><path fill="#243762" d="M240.97 118.226l-21.839-.318 11.026 5.602 10.813-5.284z"/><path fill="#E8EFFB" d="M230.157 123.511l10.813-4.195v-1.09l-11.661 4.209.848 1.076z"/><path fill="#EEA886" d="M240.409 116.076s-1.363-.212-2.302-.439c-.727-.167-2.544.06-3.014.53-.469.469-1.938 3.725-2.211 3.937-.272.197.136.666.636.424 0 0 .455 1.423 1.56.893 1.106-.53 1.863-1.696 2.439-1.908.575-.212 3.953-1.241 3.953-1.241s-.197-2.544-1.061-2.196z"/><path fill="#EEA886" d="M235.427 115.955s-.879.424-1.106.605c-.227.182-1.151.878-1.378 1.045-.227.167.333.621 1.999-.091 1.651-.696.485-1.559.485-1.559z"/><path fill="#243762" d="M230.156 123.511l-6.497-17.747-20.946.349 6.194 16.338 21.249 1.06z"/><path fill="#fff" d="M216.965 113.623c.636 1.272.44 2.665-.424 3.104-.878.439-2.105-.242-2.741-1.514-.636-1.272-.439-2.665.424-3.104.863-.454 2.09.227 2.741 1.514z"/><path fill="#E0E0E0" d="M310.534 193.269h-8.511a.511.511 0 01-.515-.515v-1.832a.51.51 0 01.515-.515h8.511a.51.51 0 01.515.515v1.832a.52.52 0 01-.515.515z"/><path fill="#407BFF" d="M310.534 200.158h-8.511a.51.51 0 01-.515-.515v-1.847a.51.51 0 01.515-.515h8.511a.51.51 0 01.515.515v1.832c0 .303-.227.53-.515.53zM310.534 207.048h-8.511a.511.511 0 01-.515-.515v-1.832a.51.51 0 01.515-.515h8.511a.51.51 0 01.515.515v1.832a.511.511 0 01-.515.515zM310.534 213.952h-8.511a.51.51 0 01-.515-.515v-1.832a.51.51 0 01.515-.515h8.511a.51.51 0 01.515.515v1.832a.52.52 0 01-.515.515zM310.534 220.841h-8.511a.51.51 0 01-.515-.515v-1.832c0-.287.227-.515.515-.515h8.511c.288 0 .515.228.515.515v1.832a.51.51 0 01-.515.515z"/><path fill="#E0E0E0" d="M310.534 227.746h-8.511a.51.51 0 01-.515-.515v-1.832a.51.51 0 01.515-.515h8.511a.51.51 0 01.515.515v1.832a.52.52 0 01-.515.515zM317.178 193.268h-1.681a.511.511 0 01-.515-.515v-1.832c0-.287.228-.515.515-.515h1.681c.288 0 .515.228.515.515v1.832c.016.273-.227.515-.515.515z"/><path fill="#407BFF" d="M317.182 200.158h-1.681a.511.511 0 01-.515-.515v-1.847c0-.288.228-.515.515-.515h1.681a.51.51 0 01.515.515v1.832a.505.505 0 01-.515.53z"/><path fill="#E0E0E0" d="M317.182 207.047h-1.681a.511.511 0 01-.515-.515V204.7c0-.288.228-.515.515-.515h1.681a.51.51 0 01.515.515v1.832c.015.288-.227.515-.515.515zM317.182 213.952h-1.681a.511.511 0 01-.515-.515v-1.832c0-.288.228-.515.515-.515h1.681a.51.51 0 01.515.515v1.832c.015.272-.227.515-.515.515z"/><path fill="#407BFF" d="M317.182 220.841h-1.681a.511.511 0 01-.515-.515v-1.832c0-.287.228-.515.515-.515h1.681c.288 0 .515.228.515.515v1.832c.015.288-.227.515-.515.515z"/><path fill="#E0E0E0" d="M317.182 227.746h-1.681a.511.511 0 01-.515-.515v-1.832c0-.288.228-.515.515-.515h1.681a.51.51 0 01.515.515v1.832c.015.273-.227.515-.515.515z"/><path fill="#292C47" d="M150.459 259.786l11.132 6.117 11.177-17.579-13.525-4.694-8.784 16.156z"/><path fill="#E2D2CA" d="M151.172 259.256l10.405 5.724 10.45-16.444-12.646-4.391-8.209 15.111z"/><path fill="#EEA886" d="M147.355 256.182s1.939-.924 2.787-1.408c.848-.485 3.029-1.151 3.211-1.302.182-.152 6.482-.545 6.861-.878.378-.334.757.772-.879 1.135-1.635.364-3.907 1.227-4.028 1.878-.121.636 1.681.787 1.863 1.317.181.53-.046.409-.303.515-.258.106-2.151-.939-2.969-.636-.833.303-2.09-.121-2.726.106-.636.227-3.726 1.257-3.726 1.257l-.091-1.984zM162.139 263.693s1.621-1.469 2.408-2.074c.788-.606 2.272-2.408 2.484-2.514.212-.106 3.044-5.89 3.499-6.132.454-.228-.439-1.015-1.409.393-.969 1.393-2.681 3.195-3.332 3.074-.651-.136-.091-1.893-.515-2.271-.424-.379-.409-.106-.606.091-.212.197.046 2.377-.56 3.043-.606.666-.712 2.014-1.166 2.529-.454.515-2.635 3.028-2.635 3.028l1.832.833z"/><path fill="#424773" d="M127.106 341.93s-.349 2.438-.394 2.816c-.046.364-3.908-.212-3.908-.212l-.318-2.907c-.015 0 4.135-.03 4.62.303z"/><path fill="#292C47" d="M126.743 344.428s1.227 1.469 2.408 2.12c1.181.636 3.044.893 3.756 1.56.5.484 1.848 2.544-3.089 2.498-4.923-.045-7.301.288-7.831-.5-.53-.787.758-5.844.758-5.844s1.181.424 3.998.166z"/><path fill="#424773" d="M154.838 341.93s-.348 2.438-.394 2.816c-.045.364-3.907-.212-3.907-.212l-.318-2.907c-.015 0 4.134-.03 4.619.303z"/><path fill="#292C47" d="M154.472 344.428s1.226 1.469 2.408 2.12c1.181.636 5.558 1.166 6.255 1.832.499.485 1.348 2.408-5.589 2.226-4.922-.121-7.3.288-7.83-.5-.53-.787.757-5.844.757-5.844s1.121.454 3.999.166zM130.301 279.183s-3.635 5.784-3.362 10.993c.273 5.224-1.318 10.917-1.863 16.383-.606 6.087-3.105 20.472-3.196 23.727-.09 3.256.394 13.643.394 13.643l4.983.121s4.195-25.165 5.271-27.739c1.09-2.574 6.467-20.881 6.648-22.925.182-2.059-8.875-14.203-8.875-14.203z"/><path fill="#292C47" d="M149.445 279.97s2.742 14.309 3.105 17.504c.364 3.195.606 15.46.788 17.458.182 1.999 1.211 26.135 2.166 29.103h-6.377s-4.892-17.55-4.892-25.862c0-8.313-3.786-18.049-6.224-23.531-2.439-5.481-8.027-5.602-9.527-15.777-.015.03 18.932-2.12 20.961 1.105z"/><path fill="#EEA886" d="M136.375 230.623s4.877-1.817 7.134 1.892c2.256 3.71 2.029 11.16-.425 12.068-2.453.909-6.164.439-7.421-1.892-1.257-2.332-2.393-5.679-2.347-7.935.06-2.241 1.772-3.497 3.059-4.133z"/><path fill="#EEA886" d="M142.555 244.751s-.197 1.317.136 1.968c.334.651-6.33.666-6.33.666s-.546-3.528-1.56-6.511c-1.03-2.998 7.754 3.877 7.754 3.877z"/><path fill="#3A3F47" d="M134.784 240.859s.455.757 2.333.469c1.878-.288 4.165-2.786 4.952-3.058.788-.273.788-.727.788-.727l.484.711.833.046s-.757-2.226.379-3.15c1.151-.908-1.181-7.222-7.209-5.118 0 0-4.619 1.272-4.453 3.907.197 2.619.863 5.618 1.893 6.92z"/><path fill="#E2D2CA" d="M143.068 246.643s-.015-1.242-.591-1.363c-.56-.121-6.21-.666-6.891-.394v1.439c.015 0 1.333.818 7.482.318z"/><path fill="#EEA886" d="M142.736 236.574c-.106-.439-1.227-1.696-1.651-.349-.424 1.348.651 3.165 1.257 3.014.59-.167.666-1.545.394-2.665z"/><path fill="#323657" d="M165.485 261.285c-.016 0-.016 0 0 0 .015.015.031.015 0 0zM126.196 292.946s2.999.878 8.103 1.439c5.104.56 17.856-.197 17.947-.803.076-.606-2.741-22.455-2.589-23.576.166-1.12.242-5.133.242-5.133.06 1.106 1.181 5.588 2.529 8.025.485.879 2.12 3.65 2.923 3.029 3.817-3.044 9.739-14.551 10.117-14.642-.318-.137-2.802-1.287-3.15-1.393-.303-.106-3.059 2.816-4.74 4.618-.743.802-1.273 1.393-1.273 1.393-.484-1.09-2.241-7.919-2.786-10.281-1.227-5.33-1.045-5.557-1.045-5.557-3.741-1.136-9.406-3.422-9.406-3.422l-7.481-.303s-6.861 1.514-9.572 2.725c-.258.121-.258 6.118-.954 7.692l2.241 4.725s1.287 9.372 1.56 13.536c.136 1.908-2.666 17.928-2.666 17.928z"/><path fill="#323657" d="M124.757 264.556c.197.636 1.075 1.166 1.651 1.393.363.151.787.197 1.196.121l.288-.06 5.119-.954s1.121-12.916-6.997-16.005c-.197.075-3.059 9.721-1.257 15.505z"/><path fill="#252840" d="M126.408 265.949c.364.151.788.197 1.197.121l.287-.061-.499-6.601-.985 6.541zM156.307 265.903l.621 2.65s.681-2.665.651-4.043c-.742.817-1.272 1.393-1.272 1.393z"/><path fill="#3A3F47" d="M134.982 231.062s-6.392-.742-.106 9.948l.106-9.948z"/><path fill="#292C47" d="M167.619 247.385l.651-1.121-5.119-1.771-.651 1.12 5.119 1.772z"/><path fill="#EEA987" d="M232.461 257.499s1.015-.938.818-1.65c-.167-.606.091-1.272.151-1.545.091-.363.121-1.559.394-1.499.47.106.364 2.029.409 2.423.061.409 1.287-.954 1.711-1.03.424-.075 2.56 2.105 1.606 2.938-.954.833-2.272 1.181-2.408 1.363-.137.181-.788.681-.788.681l-1.893-1.681z"/><path fill="#EEA987" d="M235.688 254.35s3.089-2.362 3.422-2.362c.334 0 .455.197.182.424-.273.227-2.923 2.377-2.923 2.377s4.135-2.196 4.407-2.241c.167-.03.288.288.152.424-.137.136-3.983 2.559-3.983 2.559s3.862-2.044 4.104-2.014c.212.03.363.379.091.545-.273.167-3.756 2.271-3.756 2.271s2.908-1.302 3.089-1.165c.122.09.288.287-.469.605-.757.318-2.408 1.318-2.408 1.318l-1.908-2.741z"/><path fill="#E8734D" d="M210.984 228.912s7.391-.621 7.194 7.162c-.197 7.783-1.439 8.949 0 14.445 1.439 5.497-7.209-3.119-7.209-3.119l.015-18.488z"/><path fill="#363A5E" d="M188.447 345.337s-2.741 3.861-2.362 4.467c.378.605 3.271.696 5.028 0 1.757-.697 1.802-5.224 2.59-7.162.333-.818-.379-3.211-1.378-3.392-1-.182-2.09.333-2.09.333s1.029 2.741-1.788 5.754z"/><path fill="#EEA886" d="M190.203 339.568s-.575 1.635-.787 3.21c-.182 1.302-1.954 4.058-1.878 4.406.09.348 2.347.666 3.271-.242.924-.893 1.514-3.513 1.711-5.088.182-1.453.424-2.18.424-2.18s-1.862-1.075-2.741-.106z"/><path fill="#363A5E" d="M212.362 345.397s-2.651 3.801-2.272 4.406c.378.606 3.271.697 5.028 0 1.757-.696 1.802-5.223 2.59-7.162.333-.817-.379-3.21-1.378-3.391-1-.182-2.181.378-2.181.378s1.03 2.771-1.787 5.769z"/><path fill="#EEA886" d="M214.15 339.629s-.212 1.786-.545 3.058c-.334 1.272-2.136 4.149-2.045 4.497.091.349 2.347.667 3.271-.242.924-.893 1.636-3.513 1.712-5.087.091-1.575-.212-2.605-.212-2.605s-1.303-.575-2.181.379z"/><path fill="#313657" d="M200.911 276.835s-2.363 11.432-2.893 14.324c-.545 2.877-2.059 16.823-2.226 19.2-.167 2.377-2.454 11.311-2.348 12.159.107.848-3.725 17.64-3.725 17.64s2.726.288 3.801-.166c.742-.303 6.694-15.46 6.694-19.685 0-5.86 3.272-13.491 3.741-14.823 4.665-13.113 5.528-16.232 6.164-17.02 0 0 .091 1.075.319 2.847.257 2.044 1.363 16.641 1.862 18.564.485 1.923.106 8.418.379 11.689.273 3.271.772 18.216.772 18.216s2.439.106 3.514-.53c.364-.212 1.606-16.051 1.666-19.957.061-3.892.106-9.267.212-10.948 1-16.141 3.468-18.457-.409-29.874-7.254-21.426-17.523-1.636-17.523-1.636z"/><path fill="#363A5E" d="M193.779 342.309v4.028h-.5v-3.119l.5-.909zM217.781 342.309v4.028h-.5v-3.119l.5-.909z"/><path fill="#EEA886" d="M207.908 249.611s.651-1.529 1.136-3.24c.03-.076.046-.167.061-.243.06-.227.106-.454.151-.666.03-.121.046-.257.076-.379.166-.938.227-1.847 0-2.498-.712-2.12 4.498-.651 4.498-.651s-1.015 5.602 0 7.495c1.015 1.878-5.922.182-5.922.182z"/><path fill="#EDDAD3" d="M216.754 249.52c.576-.727-3.498-.984-3.498-.984l-4.771-.409s-3.271.545-5.816 1.423c-2.544.879-5.876 5.694-5.876 5.694s4.589 10.78 5.467 13.885c.879 3.088-.999 10.962-.999 10.962 5.513 2.998 16.387.318 16.387.318s-4.332-26.589-.894-30.889z"/><path fill="#CFBEB8" d="M218.691 262.512s-.212.454-.802 2.225c-.606-4.996-.288-7.601-.288-7.601.061 2.68 1.09 5.376 1.09 5.376z"/><path fill="#EEA886" d="M213.512 248.369l-5.604 4.573.576-4.815s3.271-.697 5.028.242z"/><path fill="#F7A9B4" d="M217.208 267.63c-.772 3.195 3.136 13.204 3.136 13.204l-6.589 2.225a1.406 1.406 0 01-1.832-1.09c-.742-4.164-2.666-15.323-2.878-20.275-.272-6.147 4.211-13.4 4.211-13.4 7.951 1.363 5.77 13.4 5.77 13.4s-.288.757-.682 1.939c-.091.302-.197.62-.303.969-.272.908-.56 1.938-.833 3.028zM207.923 248.4l.091-.257s-4.074.62-6.149 1.65c-2.075 1.03-6.043 6.375-6.043 6.375l5.18 6.844c0 5.254-1.833 17.594-1.833 17.594l3.605 1.469a.857.857 0 001.181-.787c.061-3.755.227-14.884.318-19.23.106-5.254 3.862-13.764 3.862-13.764a.914.914 0 01-.212.106z"/><path fill="#EEA886" d="M200.533 273.05s3.908.152 4.513 0c.606-.151 4.665-1.907 4.908-3.649.242-1.741-9.421 1.56-9.421 1.56v2.089z"/><path fill="#243762" d="M212.665 267.63l-15.872-1.863 7.164 5.83 8.708-3.967z"/><path fill="#4CA1F4" d="M203.958 271.597l8.708-2.953v-1.014l-8.996 2.877.288 1.09z"/><path fill="#FAE6DE" d="M208.771 247.249l-3.014 4.77-1.454.923 3.392-4.754 1.076-.939z"/><path fill="#D6C5BE" d="M205.758 252.019l2.15.923.576-4.815.288-.878-3.014 4.77z"/><path fill="#F7A9B4" d="M201.001 270.825s-.167 2.014 0 2.438c0 0-9.784-.985-10.693-2.347-.908-1.363-.878-3.029-.878-3.029l11.571 2.938z"/><path fill="#4CA1F4" d="M203.956 271.597l-4.619-17.201-17.599-1.848 4.832 15.823 17.386 3.226z"/><path fill="#F7A9B4" d="M226.763 261.77c.878-.727 1.408-1 2.468-1.908 1.651-1.423 3.771-3.225 3.771-3.225l2.015 2.952s-4.862 4.27-7.452 6.814c0 0-3.271 3.513-3.998 3.195-.727-.318-3.332-4.088-5.422-7.722-2.075-3.634-3.014-5.951-3.12-7.541-.106-1.574 5.134-2.347 5.134-2.347l4.105 8.964s.727 1.287 1.105 1.666c-.015 0 .909-.53 1.394-.848z"/><path fill="#EEA886" d="M211.711 229.699c-1.832-.303-6.027.167-7.224 4.967 0 0 0 1.332.197 2.407s-1.075 4.013-.848 4.194c.227.182 1.196.485 1.196.485s.697 3.452 1.863 3.558c1.166.106 5.71-.303 8.27-4.209 2.574-3.907 3.953-10.191-3.454-11.402z"/><path fill="#E8734D" d="M204.486 234.681s2.757 2.377 5.68 3.134c2.923.757 4.468 4.028 4.468 4.028s5.164-5.163 2.044-10.16c-3.104-5.012-12.177-2.771-12.192 2.998z"/><path fill="#E8734D" d="M210.711 237.982s3.059 8.025 2.696 9.963c0 0 1.514-.257 4.331.606 0-.015-1.363-14.354-7.027-10.569z"/><path fill="#D6C5BE" d="M209.529 252.17l-1.621.772 5.498-5.451-3.877 4.679z"/><path fill="#FAE6DE" d="M213.408 247.491l-3.877 4.679 2.121 1.893 2.302-5.603-.546-.969z"/><path fill="#A77860" d="M212.347 243.842c-.031.045-.864 1.347-3.242 2.271.061-.227.106-.454.152-.666.03-.121.045-.258.076-.379 0 0 1.969-.484 3.014-1.226z"/><path fill="#F7A9B4" d="M213.953 248.46s5.119-.696 6.619 4.664c0 0-6.528-.697-6.619-4.664z"/><g filter="url(#filter0_d)"><path fill="#fff" d="M403.575 230.258H334.74a5.746 5.746 0 01-5.74-5.739v-81.78a5.746 5.746 0 015.74-5.739h68.835a5.746 5.746 0 015.741 5.739v81.78a5.736 5.736 0 01-5.741 5.739z"/></g><path fill="#4AAFFF" d="M377.753 175.687c-3.074-8.586-11.283-13.87-19.946-13.613a20.61 20.61 0 00-6.3 1.197 20.462 20.462 0 00-12.677 13.203 20.323 20.323 0 00.273 13.022c.151.439.318.863.499 1.272a19.96 19.96 0 003.181 5.103c5.376 6.314 14.282 8.979 22.551 6.026 10.678-3.8 16.236-15.535 12.419-26.21zm-14.145 21.395c-6.195 2.211-12.874.212-16.903-4.512a14.95 14.95 0 01-2.377-3.831 23.625 23.625 0 01-.379-.954 15.32 15.32 0 01-.197-9.766 15.38 15.38 0 019.511-9.903c1.56-.56 3.151-.848 4.726-.893 6.482-.197 12.646 3.755 14.948 10.205 2.847 7.995-1.333 16.792-9.329 19.654z"/><path fill="#1A598C" d="M343.733 178.019l-4.907-1.53c1.863-5.935 6.376-10.947 12.677-13.203a20.495 20.495 0 016.3-1.196l.152 5.133a15.247 15.247 0 00-4.726.893c-4.71 1.681-8.102 5.451-9.496 9.903z"/><path fill="#2273B5" d="M344.311 188.739l-4.71 2.044a21.586 21.586 0 01-.5-1.272 20.428 20.428 0 01-.273-13.021l4.908 1.529c-.97 3.074-.97 6.496.196 9.766.122.318.243.636.379.954z"/><path fill="#3788CC" d="M342.782 195.901a19.968 19.968 0 01-3.18-5.102l4.71-2.045a15.617 15.617 0 002.378 3.831l-3.908 3.316z"/><path fill="#4AAFFF" d="M395.549 188.224c-3.408-1.62-7.361-.757-9.814 1.848a8.672 8.672 0 00-1.5 2.195 8.469 8.469 0 004.044 11.296c.167.076.348.151.515.227.788.318 1.605.5 2.423.56a8.493 8.493 0 008.36-4.83c2.015-4.239.212-9.297-4.028-11.296zm2.12 10.388a6.354 6.354 0 01-6.27 3.619 6.002 6.002 0 01-1.817-.424c-.137-.046-.258-.106-.394-.167a6.397 6.397 0 01-2.923-2.801 6.385 6.385 0 01-.121-5.678 5.914 5.914 0 011.12-1.636c1.848-1.953 4.801-2.604 7.361-1.393a6.366 6.366 0 013.044 8.48z"/><path fill="#1A598C" d="M386.278 198.854l-1.878.984a8.472 8.472 0 01-.151-7.571 8.298 8.298 0 011.499-2.195l1.545 1.453a6.374 6.374 0 00-1.015 7.329z"/><path fill="#2273B5" d="M389.58 201.821l-.772 1.984c-.182-.076-.349-.152-.515-.227a8.45 8.45 0 01-3.893-3.725l1.878-.984a6.402 6.402 0 002.923 2.801c.122.045.258.091.379.151z"/><path fill="#E2F3FE" d="M389.308 209.953h-15.857v-.318h15.539v-5.981h.318v6.299z"/><path fill="#4AAFFF" d="M353.017 206.364h-14.191v1.892h14.191v-1.892zM381.796 206.364h-8.345v1.892h8.345v-1.892zM342.402 145.01h-6.785v1.453h6.785v-1.453zM374.465 150.476h-10.541v1.454h10.541v-1.454zM356.743 150.476h-6.436v1.454h6.436v-1.454zM348.354 150.476h-12.737v1.454h12.737v-1.454zM354.533 145.01h-10.056v1.453h10.056v-1.453zM361.501 150.476h-2.757v1.454h2.757v-1.454zM374.45 145.085h-7.512v1.454h7.512v-1.454zM383.553 150.476h-6.407v1.454h6.407v-1.454zM364.986 145.085h-7.966v1.454h7.966v-1.454z"/><path fill="#F7A9B4" d="M411.052 105.628l-17.144-17.155-8.133 8.146-.455-.454 8.588-8.586 17.599 17.595-.455.454z"/><path fill="#6F5BE0" d="M357.683 237.388s-4.074-9.237.651-8.48c0 0 1.606 1.333 3.272 4.043 1.257 2.06 3.862 7.495 3.756 9.328-.091 1.832-1.409 3.21-2.817 6.162 0 0-2.939 5.482-3.06 6.148l-3.105-1.605s2.636-5.239 4.483-9.842l-3.18-5.754z"/><path fill="#5D96FF" d="M371.814 260.645l-54.357-9.312 1.409-8.313 54.356 9.312-1.408 8.313z"/><path fill="#2D3038" d="M318.701 244.024l-2.613-.444-1.075 6.314 2.613.444 1.075-6.314z"/><path fill="#EEA886" d="M334.07 315.655h-.773s.258-2.907-.454-2.938c-.712-.03-2.484 2.362-3.529 2.741-1.06.363-6.467.681-6.497-.318-.031-.999 2.075-1.393 2.741-1.681.651-.287 3.847-3.391 4.422-3.755.576-.363 1.545-2.953 1.545-2.953l3.029-.136s.167 2.408.349 3.68c.075.469.121.893.121 1.196.015 1.09-.954 4.164-.954 4.164zM353.533 315.08h-.636v-2.711c-.53.046-2.333 1.742-2.893 2.241-.56.485-1.318.47-3.665.621-2.348.151-2.56-1.257-2.196-1.726.363-.47 1.56-.682 2.196-.984.621-.303 3.074-3.074 3.741-3.725.651-.651 1.06-2.529 1.06-2.529l2.741.242s-.015 1.711.288 3.165v.015l.091.364c.409 1.468-.727 5.027-.727 5.027z"/><path fill="#292C47" d="M343.43 253.771s-1.03 2.438-1.121 3.059c-.091.62-2.514 6.465-3.211 10.402-.424 2.362-1.575 9.751-1.666 10.69-.167 1.605-.924 5.163-1.03 6.799-.06.923-4.589 15.005-5.679 22.364 0 0 2.605.379 4.558-.136 0 0 3.968-7.601 6.18-18.397 1.332-6.496 2.499-9.964 3.529-12.644 1.029-2.68 6.86-10.251 7.466-11.099.606-.848 4.423-5.557.818-10.659-3.65-5.058-9.844-.379-9.844-.379z"/><path fill="#292C47" d="M356.454 275.424c-.333 2.195.015 5.072.712 13.097.696 8.025-1.212 17.731-1.212 17.731-2.378.818-5.119 0-5.119 0 .061-.56 0-19.563 0-21.244 0-1.68-.485-3.619-.606-5.557-.091-1.317-.696-3.77-1.393-6.253-.212-.742-.424-1.499-.636-2.226-.121-.409-.227-.803-.349-1.196-.969-3.392-2.287-16.459-2.287-16.459s7.27-5.86 10.814-.349c3.544 5.512 1.727 9.525 1.606 10.221-.137.697-1.212 10.039-1.53 12.235z"/><path fill="#191B2B" d="M353.427 263.628c-.06.121-3.68 8.176-4.619 9.569-.212-.741-.424-1.499-.636-2.225 0 0 5.134-7.162 5.255-7.344z"/><path fill="#F7A9B4" d="M353.533 315.08h-.636v-2.711c-.53.046-2.333 1.742-2.893 2.241-.56.485-1.318.47-3.665.621-2.348.152-2.56-1.257-2.196-1.726.363-.469 1.56-.681 2.196-.984 2.499.136 5.558-3.392 7.027-3.377.773 0 .773.439.803.515v.015l.091.363c.409 1.484-.727 5.043-.727 5.043zM334.07 315.655h-.773s.258-2.907-.454-2.937c-.712-.031-2.484 2.362-3.529 2.74-1.06.364-6.467.682-6.497-.318-.031-.999 2.075-1.393 2.741-1.68 2.226 0 5.861-2.468 6.997-2.968 1.121-.5 2.348-.197 2.348-.197.075.469.121.893.121 1.196.015 1.09-.954 4.164-.954 4.164z"/><path fill="#EEA886" d="M349.852 223.094s1.166 3.073.257 5.451c0 0 4.256-.273 4.422-.773.167-.499-.166-5.102.409-6.45.576-1.378-5.088 1.772-5.088 1.772z"/><path fill="#6F5BE0" d="M349.441 227.5s-2.514.893-3.65 1.135c-1.136.243-3.513 1.378-3.317 5.618.197 4.24.909 7.919 1.167 9.736.257 1.817.09 6.466-.318 8.706 0 0 6.027 1.53 13.131 0 0 0-1.258-3.845-1.227-4.83.03-.999 4.195-9.176 4.392-10.463.197-1.287 1.03-6.995-.863-8.252-1.909-1.257-3.454-1.09-4.256-1.65-.848-.576-3.893-.409-5.059 0z"/><path fill="#6F5BE0" d="M359.135 259.358c-10.299 2.726-18.508.015-18.508.015a25.428 25.428 0 001.696-4.557c.288-1.045.485-2.075.636-3.059.833-5.617-.257-9.903-.257-9.903 1.196-9.781 15.993-12.703 17.19-9.599 1.181 3.104-2.302 16.428-2.469 17.579-.182 1.136 1.712 9.524 1.712 9.524z"/><path fill="#EEA886" d="M353.564 210.769c-1.711-.591-6.33-1.212-7.527 5.89-1.181 7.101 1.393 7.222 4.044 7.025 2.65-.196 6.8-4.996 7.118-6.45.318-1.469 1.242-4.8-3.635-6.465z"/><path fill="#0F324F" d="M346.988 213.494s1.409 3.028 3.272 4.073c0 0 1.166 3.21 3.68 4.512 0 0 6.679-4.421 2.802-9.676-3.877-5.254-9.315-1.06-9.754 1.091z"/><path fill="#EEA886" d="M350.093 216.522c.151-.363 1.151-.969 1.605.045.454 1.015-1.166 2.802-1.605 2.696-.455-.091-.576-1.348 0-2.741z"/><path fill="#0F324F" d="M356.499 213.221c.152-.227 4.559-2.271 5.483 1.999.924 4.27-3.559 9.236-4.347 11.371-.787 2.135.349 7.147.349 7.147s-2.696-2.543-3.514-5.208c-.879-2.923-1.181-10.312 2.029-15.309z"/><path fill="#E54242" d="M356.727 213.07s-1.348 1.075-1.53 2.756c0 0-.257-1.318.288-2.12.545-.803 1.242-.636 1.242-.636z"/><path fill="#1D3B54" d="M342.338 254.816c.288-1.045.651-3.347.787-4.331 0 0 .621-.469.743-.863.227-.696 1.938-9.176 1.938-9.176s1.818 7.98-3.468 14.37z"/><path fill="#EEA886" d="M334.917 252.756s-1.848.848-2.272.985c-.424.136-1.257-.606-4.301-.818-.273-.015-.742.227-.621.575.106.349 1.439 1.318 2.014 1.469.576.151 3.256 1.211 4.559.697 1.302-.53 2.196-2.181 2.196-2.181l-1.575-.727z"/><path fill="#6F5BE0" d="M345.065 228.863s-3.529 1.393-3.741 6.299c-.212 4.906-.394 7.465-.59 8.222-.197.757-.561 3.8-1.439 5.632-.864 1.772-6.543 4.588-6.543 4.588l1.727 2.196s8.905-4.724 9.39-6.163c.484-1.438 2.453-11.507 2.605-13.203.136-1.378 1.938-7.465-1.409-7.571z"/><path fill="#243762" d="M311.777 241.536c0 .136-.016.257-.031.394h5.044c.015-.137.015-.258.015-.394h-5.028zm-56.326-1.393v.454c.015.636.03 1.272.091 1.908.136 1.787.424 3.543.863 5.239a30.396 30.396 0 008.527 14.551 32.697 32.697 0 001.878 1.666 30.54 30.54 0 0019.356 6.874h.363a30.353 30.353 0 0015.252-4.27 31.395 31.395 0 005.603-4.254 30.539 30.539 0 007.861-12.371c.242-.727.454-1.454.651-2.196a29.89 29.89 0 00.742-4.058l.091-.893c.03-.288.045-.576.061-.863.015-.137.015-.258.015-.394.015-.288.015-.575.03-.863v-.53c0-15.369-11.283-28.088-26.035-30.329-.287-.045-.575-.091-.863-.121-.318-.03-.636-.076-.954-.106-.288-.03-.576-.045-.863-.061a29.678 29.678 0 00-2-.06c-.56 0-1.12.015-1.681.045a29.68 29.68 0 00-2.832.288c-8.86 1.287-16.523 6.42-21.218 13.643a29.907 29.907 0 00-2.439 4.557c-.045.106-.091.197-.121.303-.045.091-.076.197-.121.288-.243.56-.455 1.135-.636 1.726a29.514 29.514 0 00-1.166 4.664 34.93 34.93 0 00-.197 1.272c0 .075-.016.151-.016.227v.015c0 .03-.015.076-.015.106-.015.045-.015.076-.015.121v.03c0 .015-.015.046-.015.061 0 .03-.015.06-.015.091-.015.075-.015.151-.015.227-.046.469-.076.939-.106 1.423 0 .061-.015.136-.015.197 0 .106-.016.212-.016.318-.015.363-.03.712-.03 1.075zm6.891 9.539l-.121-.303a11.874 11.874 0 01-.242-.666l-.182-.545-.136-.409c0-.015 0-.015-.015-.03-.016-.03-.016-.045-.016-.076a11.615 11.615 0 01-.196-.681l-.076-.273c-.061-.242-.121-.499-.182-.742 0-.03-.015-.045-.015-.075-.045-.227-.106-.455-.152-.697-.015-.091-.045-.197-.06-.287-.061-.288-.106-.591-.152-.879a49.122 49.122 0 01-.196-1.559l-.046-.545c0-.061 0-.106-.015-.167-.015-.242-.03-.485-.03-.727v-.075-.167c0-.212-.015-.424-.015-.636 0-.197 0-.394.015-.591.015-.802.06-1.574.166-2.346 0-.076.015-.167.031-.243v-.03-.061-.015a25.561 25.561 0 013.801-10.493 25.687 25.687 0 019.314-8.706 27.788 27.788 0 014.15-1.833 25.507 25.507 0 016.119-1.241 23.002 23.002 0 012.06-.091c.212 0 .409 0 .621.015.242 0 .469.015.711.015.167.015.349.015.515.03.046 0 .091 0 .137.016.287.015.575.045.863.075.076.015.151.015.212.031.106.015.227.03.348.045.137.015.258.03.394.061l.863.136c.031 0 .061.015.076.015.227.045.439.091.667.136.015 0 .03 0 .045.015.091.016.182.046.273.061.212.045.409.091.621.151.09.016.181.046.272.061.243.061.47.121.712.197.227.06.454.136.666.212.106.03.212.06.303.106.44.151.879.318 1.318.484.121.046.242.091.348.152.182.075.364.151.546.242.151.061.287.121.424.197.212.091.424.197.636.303.242.121.469.242.696.363.258.136.515.288.773.439.53.303 1.03.636 1.529.984.213.152.425.288.637.455.257.181.515.378.772.575.227.182.439.363.666.545l.667.576c5.149 4.693 8.39 11.462 8.39 18.972v.53c0 .288-.015.575-.03.863 0 .136-.015.258-.03.394-.015.288-.046.575-.076.863-.076.818-.197 1.62-.364 2.408a23.743 23.743 0 01-.651 2.543 21.442 21.442 0 01-.696 1.954 25.63 25.63 0 01-8.194 10.796 24.697 24.697 0 01-2.696 1.817 25.421 25.421 0 01-12.555 3.482h-.364c-4.71 0-9.132-1.272-12.934-3.497a25.683 25.683 0 01-9.738-10.13c-.106-.212-.228-.439-.334-.651l-.196-.424-.228-.5-.075-.167c-.061-.151-.122-.287-.182-.439l-.167-.318z"/><path fill="#B8B8B8" d="M304.232 258.219c9.983-9.981 9.983-26.165 0-36.146-9.984-9.981-26.171-9.981-36.155 0-9.984 9.981-9.984 26.165 0 36.146 9.984 9.981 26.171 9.981 36.155 0z" opacity=".1"/><path fill="#869AC2" d="M303.417 221.171s-33.289-4.119-39.938 31.01a25.592 25.592 0 01-2.999-12.038c0-14.172 11.481-25.65 25.657-25.65a25.544 25.544 0 0117.28 6.678z" opacity=".3"/><defs><linearGradient id="paint0_linear" x1="111" x2="563" y1="179.5" y2="179.5" gradientUnits="userSpaceOnUse"><stop stop-color="#00C6FB"/><stop offset="1" stop-color="#005BEA"/></linearGradient><filter id="filter0_d" width="126.316" height="139.258" x="306" y="114" color-interpolation-filters="sRGB" filterUnits="userSpaceOnUse"><feFlood flood-opacity="0" result="BackgroundImageFix"/><feColorMatrix in="SourceAlpha" result="hardAlpha" values="0 0 0 0 0 0 0 0 0 0 0 0 0 0 0 0 0 0 127 0"/><feMorphology in="SourceAlpha" radius="3" result="effect1_dropShadow"/><feOffset/><feGaussianBlur stdDeviation="13"/><feColorMatrix values="0 0 0 0 0 0 0 0 0 0 0 0 0 0 0 0 0 0 0.1 0"/><feBlend in2="BackgroundImageFix" result="effect1_dropShadow"/><feBlend in="SourceGraphic" in2="effect1_dropShadow" result="shape"/></filter></defs></svg>