<svg xmlns="http://www.w3.org/2000/svg" fill="none" viewBox="0 0 90 89"><defs/><path fill="url(#paint0_linear)" fill-rule="evenodd" d="M1.612 49.684a1.27 1.27 0 002.121-1.063 42.11 42.11 0 015.293-24.814A41.993 41.993 0 0127.604 6.564 41.888 41.888 0 0152.7 3.172a41.926 41.926 0 0120.127 9.514h-6.916a1.27 1.27 0 00-1.271 1.274 1.275 1.275 0 001.271 1.274h10.06a1.268 1.268 0 001.026-.395l.015-.015c.215-.234.335-.54.337-.858V3.774A1.275 1.275 0 0076.078 2.5a1.27 1.27 0 00-1.271 1.274v7.258A44.468 44.468 0 0053.137.662 44.426 44.426 0 0026.52 4.26 44.537 44.537 0 006.817 22.547a44.663 44.663 0 00-5.614 26.316c.03.315.176.608.41.82zm72.413 28.72a1.27 1.27 0 01-1.192-.827 1.276 1.276 0 01.356-1.408 39.552 39.552 0 001.984-1.852 42.213 42.213 0 0010.845-18.85 42.273 42.273 0 00.028-21.76 1.278 1.278 0 01.434-1.376 1.268 1.268 0 011.812.257c.1.138.172.296.21.462a44.825 44.825 0 01-.029 23.077 44.761 44.761 0 01-11.502 19.992 41.744 41.744 0 01-2.11 1.97 1.27 1.27 0 01-.836.314zm-23.102 10.42a1.27 1.27 0 01-1.262-1.202 1.275 1.275 0 011.12-1.337c1.204-.14 2.4-.341 3.584-.604a1.27 1.27 0 011.515.972 1.276 1.276 0 01-.97 1.518c-1.27.28-2.552.496-3.843.646h-.007l-.027.003-.029.002h-.016l-.02.002h-.045zm-9.54.166h.118V89a1.271 1.271 0 001.329-1.218 1.277 1.277 0 00-1.215-1.33 41.934 41.934 0 01-23.445-9.964h6.932a1.27 1.27 0 001.271-1.274 1.276 1.276 0 00-1.271-1.274H14.936a1.27 1.27 0 00-1.272 1.274v10.192a1.275 1.275 0 001.272 1.274 1.27 1.27 0 001.271-1.274v-7.25A44.472 44.472 0 0041.383 88.99zm21.724-3.553a1.27 1.27 0 01-1.248-1.009 1.276 1.276 0 01.73-1.43 35.362 35.362 0 003.279-1.648 1.273 1.273 0 011.645 1.882 1.274 1.274 0 01-.374.327c-1.139.65-2.311 1.24-3.512 1.767a1.26 1.26 0 01-.52.111zm-14.37-13.2h-6.465a2.071 2.071 0 01-2.061-1.844l-.318-2.833a24.248 24.248 0 01-7.328-3.037l-2.222 1.773a2.068 2.068 0 01-2.76-.155l-4.57-4.579a2.08 2.08 0 01-.157-2.764l1.774-2.231a24.309 24.309 0 01-3.031-7.344l-2.827-.318a2.072 2.072 0 01-1.842-2.067v-6.476a2.078 2.078 0 011.844-2.065l2.825-.318a24.316 24.316 0 013.033-7.343l-1.774-2.225a2.081 2.081 0 01.156-2.768l4.569-4.577a2.072 2.072 0 012.762-.156l2.22 1.775a24.215 24.215 0 017.328-3.038l.318-2.831a2.08 2.08 0 012.06-1.846h6.465a2.072 2.072 0 012.062 1.847l.317 2.83a24.22 24.22 0 017.328 3.04l2.222-1.775a2.071 2.071 0 012.76.155l4.57 4.579a2.082 2.082 0 01.157 2.766l-1.78 2.226a24.314 24.314 0 013.037 7.34l2.827.32a2.07 2.07 0 011.843 2.064v6.476a2.08 2.08 0 01-1.843 2.067l-2.827.318a24.306 24.306 0 01-3.031 7.344l1.772 2.225a2.082 2.082 0 01-.156 2.768l-4.569 4.575a2.07 2.07 0 01-2.761.155l-2.22-1.773a24.248 24.248 0 01-7.329 3.037l-.317 2.83a2.08 2.08 0 01-2.062 1.853zM42.69 69.69h5.626l.374-3.326a1.274 1.274 0 011.017-1.109 21.746 21.746 0 008.096-3.355 1.27 1.27 0 011.503.06l2.61 2.085 3.979-3.988-2.081-2.62a1.276 1.276 0 01-.061-1.508 21.824 21.824 0 003.351-8.11 1.275 1.275 0 011.105-1.02l3.322-.374v-5.641L68.21 40.4a1.27 1.27 0 01-1.105-1.019 21.83 21.83 0 00-3.352-8.111 1.277 1.277 0 01.062-1.508l2.081-2.614-3.979-3.986-2.61 2.084a1.27 1.27 0 01-1.503.06 21.767 21.767 0 00-8.096-3.356 1.27 1.27 0 01-1.017-1.108l-.374-3.327H42.69l-.373 3.327A1.275 1.275 0 0141.3 21.95a21.767 21.767 0 00-8.096 3.356 1.27 1.27 0 01-1.503-.06l-2.61-2.084-3.979 3.986 2.082 2.617a1.275 1.275 0 01.06 1.507 21.829 21.829 0 00-3.351 8.112 1.274 1.274 0 01-1.105 1.02l-3.321.381v5.637l3.321.374a1.27 1.27 0 011.105 1.02 21.824 21.824 0 003.347 8.114 1.276 1.276 0 01-.061 1.508l-2.082 2.613 3.979 3.988 2.61-2.086a1.27 1.27 0 011.503-.06 21.746 21.746 0 008.096 3.356 1.27 1.27 0 011.017 1.109l.38 3.331zm-6.58-12.003a16.888 16.888 0 009.395 2.856 16.912 16.912 0 0011.954-4.968 16.978 16.978 0 004.958-11.977c0-3.35-.992-6.627-2.85-9.413a16.92 16.92 0 00-7.59-6.241 16.881 16.881 0 00-18.43 3.673 16.975 16.975 0 00-3.666 18.466 16.937 16.937 0 006.229 7.604zm1.412-26.059a14.349 14.349 0 017.983-2.426v.004a14.37 14.37 0 0110.154 4.22 14.426 14.426 0 014.215 10.172c0 2.848-.843 5.631-2.422 7.999a14.374 14.374 0 01-6.448 5.302 14.342 14.342 0 01-15.659-3.12 14.422 14.422 0 01-3.115-15.69 14.39 14.39 0 015.292-6.46z" clip-rule="evenodd"/><defs><linearGradient id="paint0_linear" x1=".998" x2="89.998" y1="44.501" y2="44.501" gradientUnits="userSpaceOnUse"><stop stop-color="#00C6FB"/><stop offset="1" stop-color="#005BEA"/></linearGradient></defs></svg>