<svg xmlns="http://www.w3.org/2000/svg" fill="none" viewBox="0 0 89 89"><defs/><path fill="url(#paint0_linear)" fill-rule="evenodd" d="M64.4 65.25h.486a4.86 4.86 0 014.887 4.239 4.71 4.71 0 01-4.698 5.21H38.75v9.45a1.35 1.35 0 01-1.35 1.35H6.35A1.35 1.35 0 015 84.15V56.422a9.404 9.404 0 016.736-9.045l2.916-.878a5.371 5.371 0 003.848-5.17v-1.08a12.163 12.163 0 01-5.4-10.098v-2.7h-1.35A4.062 4.062 0 017.7 23.4v-1.35A4.062 4.062 0 0111.75 18h1.35v-.526a11.732 11.732 0 01-5.4-9.856V5.85A1.35 1.35 0 019.05 4.5h18.9a9.46 9.46 0 019.45 9.45V18h1.35a4.062 4.062 0 014.05 4.05v1.35a4.062 4.062 0 01-4.05 4.05H37.4v2.7A12.163 12.163 0 0132 40.248v1.08a5.37 5.37 0 003.847 5.17l2.916.878A9.404 9.404 0 0145.5 56.42v8.829h12.15v-.675a3.375 3.375 0 116.75 0v.675zM38.75 20.7H37.4v4.05h1.35a1.35 1.35 0 001.35-1.35v-1.35a1.35 1.35 0 00-1.35-1.35zm-27 4.05h1.35V20.7h-1.35a1.35 1.35 0 00-1.35 1.35v1.35a1.35 1.35 0 001.35 1.35zm21.463 23.487c-.24-.148-.487-.3-.714-.47l-4.806 1.81 3.78 3.78 1.877-5.036-.137-.084zM19.945 45.62l5.305 1.984 5.305-1.984a8.009 8.009 0 01-1.228-4.037c-2.634.954-5.52.954-8.154 0a8.01 8.01 0 01-1.228 4.037zm5.98 7.479l.634-.837-1.309-1.31-1.31 1.31.635.837h1.35zM10.4 7.2v.418a9.045 9.045 0 009.031 9.032H34.7v-2.7a6.75 6.75 0 00-6.75-6.75H10.4zm5.4 11.57v11.38a9.45 9.45 0 1018.9 0v-10.8H19.43a11.56 11.56 0 01-3.631-.58zm7.006 30.806L18 47.767c-.226.17-.472.322-.713.47l-.137.084 1.877 5.035 3.78-3.78zM14.45 82.8h4.226l3.807-27.986-.473-.62-2.552 2.564a1.36 1.36 0 01-.958.392 2.01 2.01 0 01-.284-.027 1.364 1.364 0 01-.985-.85l-2.592-6.953-2.12.648A6.695 6.695 0 007.7 56.42V82.8h4.05V61.2h2.7v21.6zm10.625-27l-3.672 27h7.695l-3.672-27h-.351zM38.75 72h18.9v-4.05h-13.5a1.35 1.35 0 01-1.35-1.35V56.42a6.695 6.695 0 00-4.82-6.452l-2.12-.648-2.591 6.952a1.364 1.364 0 01-.986.85 2.01 2.01 0 01-.283.028 1.36 1.36 0 01-.959-.392l-2.551-2.565-.473.621L31.824 82.8h4.226V61.2h2.7V72zm27.144-.174a2.034 2.034 0 001.108-1.222c.088-.272.117-.56.084-.845a2.144 2.144 0 00-2.2-1.81H63.05a1.35 1.35 0 01-1.35-1.35v-2.024a.675.675 0 10-1.35 0V72h4.725c.282 0 .56-.06.819-.174zM84.65 8.55h-5.4V7.2a1.35 1.35 0 00-1.35-1.35h-27a1.35 1.35 0 00-1.35 1.35v1.35h-5.4A1.35 1.35 0 0042.8 9.9v5.4a6.75 6.75 0 006.75 6.75 14.865 14.865 0 0010.8 14.27v10.03H56.3a4.062 4.062 0 00-4.05 4.05v1.35H50.9a1.35 1.35 0 00-1.35 1.35v5.4a1.35 1.35 0 001.35 1.35h27a1.35 1.35 0 001.35-1.35v-5.4a1.35 1.35 0 00-1.35-1.35h-1.35V50.4a4.062 4.062 0 00-4.05-4.05h-4.05V36.32a14.865 14.865 0 0010.8-14.27A6.75 6.75 0 0086 15.3V9.9a1.35 1.35 0 00-1.35-1.35zm-35.1 10.8a4.062 4.062 0 01-4.05-4.05v-4.05h4.05v8.1zm27 35.1v2.7h-24.3v-2.7h24.3zm-4.05-5.4a1.35 1.35 0 011.35 1.35v1.35h-18.9V50.4a1.35 1.35 0 011.35-1.35h16.2zm-9.45-2.7v-9.518c.446.04.891.068 1.35.068.46 0 .905-.027 1.35-.068v9.518h-2.7zm13.5-24.3a12.15 12.15 0 11-24.3 0V8.55h24.3v13.5zm6.75-6.75a4.062 4.062 0 01-4.05 4.05v-8.1h4.05v4.05zm-10.8 0h-4.566l-2.32-4.653a1.406 1.406 0 00-2.416 0L60.865 15.3H56.3a1.351 1.351 0 00-.955 2.304l3.51 3.51-1.165 4.658a1.35 1.35 0 001.913 1.543l4.797-2.406 4.796 2.406c.189.09.395.137.604.135a1.35 1.35 0 001.31-1.678l-1.166-4.658 3.51-3.51A1.35 1.35 0 0072.5 15.3zm-5.005 4.445a1.35 1.35 0 00-.355 1.283l.638 2.552-2.775-1.388a1.35 1.35 0 00-1.207 0l-2.771 1.387.637-2.551a1.35 1.35 0 00-.355-1.282L59.559 18h2.14a1.35 1.35 0 001.216-.747L64.4 14.27l1.485 2.984A1.349 1.349 0 0067.1 18h2.14l-1.745 1.745zm-45.34 7.31a1.35 1.35 0 01-2.305-.955v-1.35a1.35 1.35 0 012.7 0v1.35c0 .358-.142.701-.395.954zm7.145.395a1.35 1.35 0 001.35-1.35v-1.35a1.35 1.35 0 10-2.7 0v1.35a1.35 1.35 0 001.35 1.35z" clip-rule="evenodd"/><defs><linearGradient id="paint0_linear" x1="5" x2="86" y1="45" y2="45" gradientUnits="userSpaceOnUse"><stop stop-color="#00C6FB"/><stop offset="1" stop-color="#005BEA"/></linearGradient></defs></svg>