<svg xmlns="http://www.w3.org/2000/svg" fill="none" viewBox="0 0 35 35"><defs/><g fill="#fff" clip-path="url(#clip0)"><path d="M31.958 9.13h-4.824l-2.785-3.043H13.697v4.566H9.132v4.565H4.566v15.217A3.052 3.052 0 007.61 33.48h24.348A3.052 3.052 0 0035 30.435v-18.26a3.052 3.052 0 00-3.043-3.044zM19.784 28.914a7.612 7.612 0 01-7.609-7.608c0-4.2 3.409-7.609 7.609-7.609s7.608 3.409 7.608 7.609-3.408 7.608-7.608 7.608z"/><path d="M4.565 13.696H7.61V9.13h4.565V6.087H7.609V1.522H4.565v4.565H0v3.044h4.565v4.565zM19.782 16.435a4.864 4.864 0 00-4.87 4.87 4.864 4.864 0 004.87 4.87 4.864 4.864 0 004.87-4.87 4.864 4.864 0 00-4.87-4.87z"/></g><defs><clipPath id="clip0"><path fill="#fff" d="M0 0h35v35H0z"/></clipPath></defs></svg>