<svg xmlns="http://www.w3.org/2000/svg" fill="none" viewBox="0 0 23 26"><defs/><path fill="url(#paint0_linear)" fill-rule="evenodd" d="M15.42.158a.716.716 0 00-.896 0L.238 12.283a.604.604 0 00-.095.084.48.48 0 00.043.72.633.633 0 00.12.081l14.218 12.087c.247.21.648.21.896 0a.483.483 0 000-.761L1.542 12.696 15.42.918a.482.482 0 000-.76z" clip-rule="evenodd"/><path fill="url(#paint1_linear)" fill-rule="evenodd" d="M22.814.158a.716.716 0 00-.896 0L7.632 12.283a.606.606 0 00-.095.084.48.48 0 00.043.72.633.633 0 00.121.081L21.92 25.255c.247.21.648.21.895 0a.483.483 0 000-.761L8.937 12.696 22.814.918a.482.482 0 000-.76z" clip-rule="evenodd"/><defs><linearGradient id="paint0_linear" x1="15.605" x2="0" y1="12.706" y2="12.706" gradientUnits="userSpaceOnUse"><stop stop-color="#00C6FB"/><stop offset="1" stop-color="#005BEA"/></linearGradient><linearGradient id="paint1_linear" x1="23" x2="7.395" y1="12.706" y2="12.706" gradientUnits="userSpaceOnUse"><stop stop-color="#00C6FB"/><stop offset="1" stop-color="#005BEA"/></linearGradient></defs></svg>