<svg width="23" height="26" viewBox="0 0 23 26" fill="none" xmlns="http://www.w3.org/2000/svg">
<path fill-rule="evenodd" clip-rule="evenodd" d="M7.58013 0.157523C7.82759 -0.0525083 8.22882 -0.0525072 8.47628 0.157524L22.7625 12.2826C22.7763 12.2925 22.7897 12.303 22.8027 12.3141C22.8226 12.3309 22.8408 12.3486 22.8575 12.3671C23.0612 12.5783 23.0469 12.8904 22.8147 13.0875C22.7774 13.1191 22.7367 13.146 22.6936 13.1681L8.47592 25.255C8.22865 25.4652 7.82776 25.4652 7.58049 25.255C7.33323 25.0448 7.33323 24.704 7.58049 24.4938L21.4576 12.6963L7.58013 0.918112C7.33267 0.708081 7.33267 0.367553 7.58013 0.157523Z" fill="url(#paint0_linear)"/>
<path fill-rule="evenodd" clip-rule="evenodd" d="M0.185599 0.157523C0.433063 -0.0525083 0.834284 -0.0525072 1.08175 0.157524L15.3679 12.2826C15.3817 12.2925 15.3952 12.303 15.4082 12.3141C15.428 12.3309 15.4463 12.3486 15.4629 12.3671C15.6667 12.5783 15.6524 12.8904 15.4201 13.0875C15.3829 13.1191 15.3422 13.146 15.2991 13.1681L1.08139 25.255C0.83412 25.4652 0.433226 25.4652 0.185961 25.255C-0.0613037 25.0448 -0.0613036 24.704 0.185961 24.4938L14.0631 12.6963L0.185599 0.918112C-0.0618662 0.708081 -0.0618662 0.367553 0.185599 0.157523Z" fill="url(#paint1_linear)"/>
<defs>
<linearGradient id="paint0_linear" x1="7.39453" y1="12.7064" x2="23.0002" y2="12.7064" gradientUnits="userSpaceOnUse">
<stop stop-color="#00C6FB"/>
<stop offset="1" stop-color="#005BEA"/>
</linearGradient>
<linearGradient id="paint1_linear" x1="0" y1="12.7064" x2="15.6057" y2="12.7064" gradientUnits="userSpaceOnUse">
<stop stop-color="#00C6FB"/>
<stop offset="1" stop-color="#005BEA"/>
</linearGradient>
</defs>
</svg>
