<svg xmlns="http://www.w3.org/2000/svg" fill="none" viewBox="0 0 840 353"><defs/><path fill="#fff" fill-opacity=".4" d="M266.17 218.09l-1.826-3.098 11.221-6.622 1.826 3.099-11.221 6.621zm16.864-9.948l-1.826-3.099 11.221-6.622 1.826 3.099-11.221 6.622zm16.864-9.949l-1.826-3.099 11.221-6.622 1.826 3.099-11.221 6.622zm16.832-9.949l-1.827-3.099 11.221-6.621 1.827 3.099-11.221 6.621zm16.864-9.949l-1.827-3.098 11.221-6.622 1.827 3.099-11.221 6.621zm16.864-9.948l-1.827-3.099 11.221-6.622 1.827 3.099-11.221 6.622zm16.831-9.949l-1.827-3.099 11.221-6.622 1.827 3.099-11.221 6.622zm16.864-9.949l-1.826-3.099 11.22-6.621 1.827 3.098-11.221 6.622zm16.864-9.981l-1.826-3.099 7.6-4.502 1.826 3.099-7.6 4.502zM455.851 108.132l-1.794-3.099 11.286-6.556 1.794 3.098-11.286 6.557zm16.896-9.851l-1.794-3.099 11.286-6.556 1.794 3.099-11.286 6.556zm16.93-9.851l-1.795-3.099 11.287-6.556 1.794 3.099-11.286 6.556zm16.896-9.851l-1.794-3.099 11.286-6.556 1.794 3.099-11.286 6.556zm16.929-9.85l-1.794-3.1 11.287-6.556 1.794 3.099-11.287 6.556zm16.897-9.852l-1.794-3.099 11.286-6.556 1.794 3.099-11.286 6.556zm16.929-9.85l-1.794-3.1 11.286-6.556 1.794 3.099-11.286 6.556zm156.8-.457l-6.753-4.013 1.827-3.098 6.752 4.012-1.826 3.099zm-12.363-7.34l-11.221-6.654 1.827-3.099 11.221 6.655-1.827 3.098zm-127.54-2.055l-1.794-3.098 11.286-6.557 1.794 3.099-11.286 6.556zm110.709-7.926l-11.221-6.654 1.826-3.1 11.221 6.655-1.826 3.099zm-93.813-1.925l-1.794-3.098 11.287-6.557 1.794 3.099-11.287 6.556zm76.981-8.056l-11.221-6.655 1.827-3.098 11.221 6.654-1.827 3.099zm-60.051-1.762l-1.794-3.099 11.286-6.556 1.794 3.099-11.286 6.556zm43.22-8.22L640.05 4.632l1.827-3.099 11.22 6.654-1.826 3.1zm-26.324-1.63l-1.794-3.1L634.439 0l1.794 3.099-11.286 6.556zM616.99 238.837l-1.892-3.066 8.742-5.382 1.891 3.066-8.741 5.382zm14.319-8.84l-1.892-3.066 11.123-6.85 1.892 3.066-11.123 6.85zm16.669-10.242l-1.892-3.066 11.123-6.85 1.892 3.066-11.123 6.85zm16.635-10.275l-1.892-3.066 11.123-6.85 1.892 3.066-11.123 6.85zm16.669-10.275l-1.892-3.066 11.123-6.85 1.892 3.066-11.123 6.85zm16.668-10.275l-1.892-3.066 11.123-6.85 1.892 3.066-11.123 6.85zm16.668-10.242l-1.892-3.067 11.123-6.85 1.892 3.067-11.123 6.85zm16.668-10.275l-1.892-3.067 11.124-6.85 1.891 3.067-11.123 6.85zm16.636-10.275l-1.892-3.067 11.123-6.85 1.892 3.067-11.123 6.85z"/><path fill="#fff" fill-opacity=".4" d="M838.111 266.235l-2.381-1.37 1.794-3.099 2.381 1.37-1.794 3.099zm-8.024-4.632l-11.287-6.524 1.794-3.098 11.287 6.523-1.794 3.099zm-16.93-9.818l-11.286-6.524 1.794-3.099 11.286 6.524-1.794 3.099zm-16.962-9.786l-11.286-6.524 1.794-3.098 11.286 6.523-1.794 3.099zm-16.929-9.818l-11.286-6.524 1.794-3.099 11.286 6.524-1.794 3.099zm-16.929-9.818l-11.286-6.524 1.794-3.099 11.286 6.524-1.794 3.099zm-16.962-9.786l-11.286-6.524 1.794-3.099 11.286 6.524-1.794 3.099zm-16.929-9.818l-11.286-6.524 1.794-3.099 11.286 6.524-1.794 3.099zm-16.929-9.786l-11.287-6.524 1.794-3.099 11.287 6.524-1.794 3.099zM339.922 173.5l-4.567-2.61 1.794-3.099 4.567 2.61-1.794 3.099zm-10.21-5.872l-11.319-6.491 1.794-3.099 11.319 6.491-1.794 3.099zm-16.995-9.753l-11.318-6.491 1.794-3.099 11.318 6.491-1.794 3.099zm-16.962-9.72l-11.318-6.492 1.794-3.098 11.319 6.491-1.795 3.099zm-16.961-9.753l-11.319-6.492 1.794-3.098 11.319 6.491-1.794 3.099zm-264.05-8.22l-1.795-3.099 11.319-6.524 1.794 3.099-11.319 6.524zm247.055-1.533l-11.319-6.492 1.794-3.098 11.319 6.491-1.794 3.099zm-230.094-8.22l-1.794-3.099 11.319-6.524 1.794 3.099-11.319 6.524zm213.132-1.501l-11.318-6.491 1.794-3.099 11.318 6.491-1.794 3.099zm-196.17-8.252l-1.794-3.099 11.319-6.524 1.794 3.099-11.319 6.524zm179.208-1.501l-11.318-6.491 1.794-3.099 11.319 6.491-1.795 3.099zM65.629 100.89l-1.794-3.099 11.319-6.524 1.794 3.099-11.32 6.524zm145.252-1.468l-11.319-6.491 1.794-3.099 11.319 6.491-1.794 3.099zm-128.29-8.285l-1.794-3.1 11.318-6.523 1.794 3.099-11.318 6.524zM193.919 89.7l-11.319-6.49 1.794-3.1 11.319 6.492-1.794 3.099zm-94.367-8.35l-1.794-3.099 11.319-6.523 1.794 3.098-11.319 6.524zm77.405-1.403l-11.318-6.49 1.794-3.1 11.318 6.492-1.794 3.099zm-60.443-8.35l-1.794-3.099 11.319-6.524 1.794 3.1-11.319 6.523zm43.449-1.403l-11.319-6.49 1.794-3.1 11.319 6.492-1.794 3.098zm-26.487-8.35l-1.794-3.099 7.731-4.469 5.349 3.066-1.794 3.1-3.555-2.056-5.937 3.458zM158.104 237.629l-5.415-3.099 1.794-3.099 5.415 3.132-1.794 3.066zm-11.09-6.393l-11.319-6.524 1.794-3.099 11.319 6.524-1.794 3.099zm-16.962-9.754l-11.319-6.523 1.794-3.099 11.319 6.524-1.794 3.098zm-16.962-9.753l-11.319-6.523 1.794-3.099 11.319 6.524-1.794 3.098zm-16.962-9.785l-11.319-6.524 1.794-3.099 11.32 6.524-1.795 3.099zm-16.962-9.753l-11.319-6.524 1.794-3.099 11.32 6.524-1.795 3.099zm-16.962-9.786l-11.318-6.524 1.794-3.099 11.318 6.524-1.794 3.099zm-16.962-9.753l-11.318-6.524 1.794-3.099 11.318 6.524-1.794 3.099zm-16.961-9.753l-11.32-6.524 1.795-3.099 11.319 6.524-1.794 3.099zm-16.962-9.753L0 146.622l1.794-3.099 11.319 6.524-1.794 3.099zM464.658 352.578l-5.969-3.458 1.794-3.099 4.142 2.414 5.252-3.164 1.859 3.066-7.078 4.241zm-11.645-6.72l-11.286-6.523 1.794-3.099 11.286 6.524-1.794 3.098zm24.301-.88l-1.859-3.067 11.188-6.719 1.859 3.066-11.188 6.72zm-41.263-8.905l-11.286-6.524 1.794-3.099 11.286 6.524-1.794 3.099zm58.062-1.175l-1.859-3.066 11.188-6.719 1.859 3.066-11.188 6.719zm-74.991-8.611l-11.286-6.524 1.794-3.099 11.286 6.524-1.794 3.099zm91.757-1.435l-1.827-3.066 11.189-6.72 1.826 3.066-11.188 6.72zm-108.719-8.351l-11.286-6.523 1.794-3.099 11.286 6.524-1.794 3.098zm125.518-1.696l-1.86-3.066 11.189-6.72 1.859 3.067-11.188 6.719zm-142.48-8.089l-11.286-6.524 1.794-3.099 11.286 6.524-1.794 3.099zm159.278-1.99l-1.859-3.066 11.189-6.72 1.859 3.066-11.189 6.72zm-176.207-7.796l-11.319-6.524 1.794-3.099 11.286 6.524-1.761 3.099zm192.974-2.251l-1.86-3.066 11.189-6.719 1.859 3.066-11.188 6.719zm-209.936-7.535l-11.286-6.524 1.794-3.098 11.286 6.523-1.794 3.099zm226.734-2.544l-1.859-3.066 11.188-6.72 1.86 3.067-11.189 6.719zm-243.696-7.209l-11.286-6.524 1.794-3.098 11.286 6.523-1.794 3.099zm-16.929-9.785l-11.286-6.524 1.794-3.099 11.286 6.524-1.794 3.099zm-16.962-9.786l-11.286-6.524 1.794-3.099 11.286 6.524-1.794 3.099z"/><path fill="#fff" fill-opacity=".4" d="M34.12 277.554l-1.827-3.099 11.254-6.589 1.826 3.099-11.253 6.589zm16.896-9.916l-1.826-3.099 11.253-6.589 1.827 3.099-11.254 6.589zm16.864-9.884l-1.826-3.099 11.253-6.589 1.827 3.099-11.254 6.589zm16.897-9.916l-1.827-3.099 11.254-6.589 1.827 3.099-11.254 6.589zm16.864-9.916l-1.827-3.099 11.254-6.589 1.826 3.099-11.253 6.589zm16.897-9.916l-1.827-3.099 11.253-6.589 1.827 3.099-11.253 6.589zM17.549 287.307l-1.826-3.099 11.253-6.589 1.827 3.099-11.254 6.589z"/></svg>