<svg xmlns="http://www.w3.org/2000/svg" fill="none" viewBox="0 0 48 48">
	<defs/>
	<path fill="#fff" d="M32.485 27.515a11.954 11.954 0 00-4.56-2.86 6.935 6.935 0 003.012-5.718A6.945 6.945 0 0024 12a6.945 6.945 0 00-6.938 6.938 6.935 6.935 0 003.013 5.716 11.954 11.954 0 00-4.56 2.86A11.921 11.921 0 0012 36h1.875c0-5.583 4.542-10.125 10.125-10.125S34.125 30.417 34.125 36H36c0-3.205-1.248-6.219-3.515-8.485zM24 24a5.068 5.068 0 01-5.063-5.063A5.068 5.068 0 0124 13.875a5.068 5.068 0 015.063 5.063A5.068 5.068 0 0124 24z"/>
</svg>