<svg width="127" height="41" viewBox="0 0 127 41" fill="none" xmlns="http://www.w3.org/2000/svg">
<path d="M12.0477 23.751C12.1619 23.751 12.2345 23.7354 12.2657 23.7043C12.3072 23.6628 12.3279 23.5953 12.3279 23.5019C12.3279 22.5888 12.0737 21.8779 11.5652 21.3695C11.0671 20.861 10.2836 20.6067 9.21481 20.6067C8.14597 20.6067 7.35732 20.861 6.84884 21.3695C6.34037 21.8676 6.07057 22.5784 6.03944 23.5019C6.03944 23.5953 6.055 23.6628 6.08613 23.7043C6.12764 23.7354 6.20547 23.751 6.31962 23.751H12.0477ZM15.6589 28.6074C15.6797 28.7527 15.6953 28.9291 15.7056 29.1367C15.7264 29.3338 15.742 29.5414 15.7523 29.7593C15.7627 29.9668 15.7679 30.1744 15.7679 30.3819C15.7679 30.5791 15.7627 30.7555 15.7523 30.9111C15.7316 31.0876 15.7005 31.2121 15.6589 31.2847C15.6278 31.347 15.5344 31.4092 15.3788 31.4715C15.2335 31.5234 15.0259 31.6012 14.7561 31.705C14.4863 31.7984 14.1387 31.8918 13.7133 31.9852C13.2982 32.0786 12.7949 32.1616 12.2034 32.2342C11.6119 32.3069 10.927 32.3432 10.1487 32.3432C8.86199 32.3432 7.67382 32.229 6.58423 32.0007C5.50502 31.7621 4.57108 31.3677 3.78243 30.8178C2.99378 30.2574 2.37634 29.5206 1.93013 28.6074C1.49429 27.6839 1.27638 26.532 1.27638 25.1519C1.27638 22.6925 1.95607 20.8558 3.31546 19.6417C4.67486 18.4172 6.6413 17.8049 9.21481 17.8049C10.2421 17.8049 11.228 17.9191 12.1723 18.1474C13.1166 18.3653 13.9467 18.7337 14.6628 19.2525C15.3788 19.761 15.9495 20.4407 16.375 21.2916C16.8108 22.1322 17.0287 23.1803 17.0287 24.4359C17.0287 24.7472 17.0235 25.0429 17.0132 25.3231C17.0028 25.6033 16.9872 25.816 16.9665 25.9613C16.9353 26.2311 16.8679 26.3971 16.7641 26.4594C16.6707 26.5217 16.4995 26.5528 16.2504 26.5528H6.22622C6.17434 26.5528 6.12764 26.5684 6.08613 26.5995C6.055 26.6202 6.03944 26.6566 6.03944 26.7084C6.04981 27.2065 6.16915 27.6164 6.39744 27.9381C6.63612 28.2598 6.9578 28.514 7.36251 28.7008C7.76721 28.8876 8.24456 29.0173 8.79454 29.09C9.3549 29.1626 9.97233 29.1989 10.6468 29.1989C11.1761 29.1989 11.6638 29.173 12.11 29.1211C12.5562 29.0588 12.9609 28.9862 13.3241 28.9032C13.6977 28.8202 14.0298 28.732 14.3203 28.6386C14.6212 28.5452 14.891 28.4622 15.1297 28.3895C15.275 28.3376 15.3943 28.3273 15.4877 28.3584C15.5811 28.3791 15.6382 28.4622 15.6589 28.6074ZM34.0034 18.1163C34.2421 18.137 34.3822 18.2045 34.4237 18.3186C34.4756 18.4328 34.46 18.5936 34.377 18.8011L29.8941 31.5026C29.8319 31.6894 29.7437 31.8191 29.6295 31.8918C29.5257 31.9644 29.3545 32.0007 29.1159 32.0007H23.4811C23.2425 32.0007 23.066 31.9644 22.9519 31.8918C22.8481 31.8191 22.7651 31.6894 22.7028 31.5026L18.22 18.8011C18.1473 18.5936 18.1318 18.4379 18.1733 18.3342C18.2148 18.22 18.3549 18.1474 18.5935 18.1163C18.8218 18.0851 19.102 18.0592 19.4341 18.0384C19.7765 18.0177 20.119 18.0073 20.4614 18.0073C20.8142 18.0073 21.1515 18.0125 21.4732 18.0229C21.7949 18.0332 22.0595 18.054 22.267 18.0851C22.5057 18.1163 22.6613 18.1785 22.734 18.2719C22.817 18.3549 22.8896 18.5002 22.9519 18.7077L26.0027 28.6697C26.0339 28.7527 26.065 28.8046 26.0961 28.8254C26.1376 28.8461 26.1999 28.8565 26.2829 28.8565H26.532C26.615 28.8565 26.6721 28.8461 26.7032 28.8254C26.7447 28.8046 26.781 28.7527 26.8122 28.6697L29.863 18.7077C29.9253 18.4898 29.9927 18.3394 30.0654 18.2563C30.1484 18.1733 30.3092 18.1163 30.5479 18.0851C30.7969 18.054 31.0771 18.0332 31.3884 18.0229C31.6997 18.0125 32.0111 18.0125 32.3224 18.0229C32.6337 18.0229 32.9346 18.0332 33.2252 18.054C33.5261 18.0747 33.7855 18.0955 34.0034 18.1163ZM37.8686 18.3653C38.1591 18.2927 38.486 18.2252 38.8492 18.163C39.2124 18.1007 39.6171 18.0488 40.0633 18.0073C40.5199 17.9554 41.0232 17.9139 41.5732 17.8828C42.1335 17.8516 42.751 17.8361 43.4255 17.8361C44.7122 17.8361 45.8278 17.9502 46.7721 18.1785C47.7164 18.3964 48.4947 18.7544 49.1069 19.2525C49.7191 19.7403 50.1757 20.3836 50.4767 21.1827C50.7776 21.9713 50.9281 22.9416 50.9281 24.0934V28.514C50.9281 28.6801 51.0215 28.7631 51.2082 28.7631H52.22C52.3653 28.7631 52.4691 28.7839 52.5313 28.8254C52.5936 28.8669 52.6351 28.9603 52.6558 29.1055C52.6662 29.2612 52.6766 29.4532 52.687 29.6815C52.6973 29.9098 52.7025 30.1432 52.7025 30.3819C52.7025 30.6206 52.6973 30.8541 52.687 31.0824C52.6766 31.3107 52.6662 31.5026 52.6558 31.6583C52.6351 31.8036 52.5936 31.897 52.5313 31.9385C52.4691 31.98 52.3653 32.0007 52.22 32.0007H47.7527C47.5763 32.0007 47.4518 31.9696 47.3791 31.9073C47.3065 31.8451 47.2546 31.7413 47.2235 31.596L47.0367 30.7244C47.0159 30.6413 46.9848 30.5895 46.9433 30.5687C46.9018 30.5479 46.8499 30.5376 46.7876 30.5376H46.5853C46.4919 30.5376 46.4244 30.5428 46.3829 30.5531C46.3518 30.5635 46.3051 30.5998 46.2428 30.6621C46.1287 30.7762 45.9523 30.9267 45.7136 31.1135C45.4749 31.3003 45.1636 31.4819 44.7797 31.6583C44.3957 31.8347 43.9339 31.9852 43.3943 32.1097C42.8651 32.2446 42.2425 32.312 41.5265 32.312C40.6963 32.312 39.9336 32.2342 39.2383 32.0786C38.5431 31.9229 37.9412 31.6687 37.4327 31.3158C36.9243 30.963 36.5247 30.5064 36.2342 29.9461C35.954 29.3753 35.8139 28.6801 35.8139 27.8603C35.8139 26.9264 35.9851 26.174 36.3276 25.6033C36.6804 25.0222 37.1629 24.576 37.7752 24.2647C38.3978 23.943 39.1346 23.7302 39.9855 23.6265C40.8468 23.5123 41.7911 23.4552 42.8184 23.4552H46.1961C46.4141 23.4552 46.523 23.3515 46.523 23.1439C46.523 22.677 46.4244 22.2982 46.2273 22.0076C46.0301 21.7067 45.7551 21.4784 45.4023 21.3228C45.0495 21.1567 44.624 21.0426 44.1259 20.9803C43.6278 20.9181 43.0778 20.8869 42.476 20.8869C41.9467 20.8869 41.4383 20.9129 40.9505 20.9648C40.4628 21.0063 40.0166 21.0581 39.6119 21.1204C39.2072 21.1723 38.8544 21.2294 38.5534 21.2916C38.2629 21.3435 38.045 21.385 37.8997 21.4162C37.7752 21.4369 37.6714 21.4369 37.5884 21.4162C37.5157 21.385 37.4639 21.2916 37.4327 21.136C37.3601 20.8143 37.3186 20.4407 37.3082 20.0153C37.2978 19.5898 37.3082 19.2058 37.3393 18.8634C37.3601 18.7077 37.4068 18.5988 37.4794 18.5365C37.5624 18.4743 37.6922 18.4172 37.8686 18.3653ZM43.1764 25.9302C42.7821 25.9302 42.4189 25.9457 42.0868 25.9769C41.7548 26.008 41.4642 26.0806 41.2152 26.1948C40.9765 26.3089 40.7897 26.475 40.6548 26.6929C40.5199 26.9108 40.4524 27.2065 40.4524 27.5801C40.4524 27.9433 40.5199 28.2391 40.6548 28.4674C40.8001 28.6853 40.9921 28.8565 41.2307 28.981C41.4798 29.1055 41.7703 29.1886 42.1024 29.2301C42.4345 29.2716 42.7925 29.2923 43.1764 29.2923C43.633 29.2923 44.0637 29.2404 44.4684 29.1367C44.8731 29.0329 45.2259 28.8669 45.5268 28.6386C45.8381 28.3999 46.082 28.0886 46.2584 27.7046C46.4348 27.3103 46.523 26.8226 46.523 26.2415C46.523 26.0339 46.4141 25.9302 46.1961 25.9302H43.1764ZM63.2898 20.9492C62.6153 20.9492 62.0134 21.0218 61.4842 21.1671C60.955 21.3124 60.5087 21.5459 60.1455 21.8676C59.7927 22.1892 59.5229 22.6147 59.3361 23.1439C59.1494 23.6628 59.056 24.301 59.056 25.0585C59.056 25.816 59.1494 26.4594 59.3361 26.9886C59.5229 27.5179 59.7927 27.9485 60.1455 28.2806C60.5087 28.6023 60.955 28.8357 61.4842 28.981C62.0134 29.1263 62.6153 29.1989 63.2898 29.1989C63.8086 29.1989 64.2964 29.1678 64.753 29.1055C65.2199 29.0329 65.635 28.9499 65.9982 28.8565C66.3718 28.7631 66.6883 28.6749 66.9477 28.5919C67.2071 28.4985 67.3991 28.431 67.5236 28.3895C67.7104 28.3273 67.8349 28.3117 67.8972 28.3428C67.9698 28.374 68.0217 28.4622 68.0529 28.6074C68.084 28.7527 68.1099 28.9239 68.1307 29.1211C68.1514 29.3183 68.1618 29.5206 68.1618 29.7282C68.1722 29.9357 68.1722 30.1432 68.1618 30.3508C68.1618 30.5479 68.1566 30.7244 68.1462 30.88C68.1255 31.0564 68.0944 31.1861 68.0529 31.2692C68.0217 31.3418 67.9283 31.4092 67.7727 31.4715C67.3057 31.6583 66.6416 31.8503 65.7803 32.0474C64.919 32.2446 63.8502 32.3432 62.5738 32.3432C61.3182 32.3432 60.1871 32.2031 59.1805 31.9229C58.1739 31.6427 57.3178 31.2069 56.6122 30.6154C55.9169 30.0239 55.3825 29.2716 55.0089 28.3584C54.6353 27.4452 54.4486 26.3556 54.4486 25.0896C54.4486 23.8236 54.6353 22.7392 55.0089 21.8364C55.3825 20.9232 55.9169 20.1761 56.6122 19.595C57.3178 19.0035 58.1739 18.5677 59.1805 18.2875C60.1871 18.0073 61.3182 17.8672 62.5738 17.8672C63.8502 17.8672 64.919 17.9658 65.7803 18.163C66.6416 18.3601 67.3057 18.5521 67.7727 18.7389C67.9283 18.8011 68.0217 18.8738 68.0529 18.9568C68.0944 19.0294 68.1255 19.154 68.1462 19.3304C68.1566 19.486 68.1618 19.6624 68.1618 19.8596C68.1722 20.0464 68.1722 20.2435 68.1618 20.4511C68.1618 20.6483 68.1514 20.8454 68.1307 21.0426C68.1099 21.2294 68.084 21.3954 68.0529 21.5407C68.0217 21.686 67.9698 21.7742 67.8972 21.8053C67.8349 21.8364 67.7104 21.8209 67.5236 21.7586C67.3991 21.7171 67.2071 21.6548 66.9477 21.5718C66.6883 21.4784 66.3718 21.385 65.9982 21.2916C65.635 21.1982 65.2199 21.1204 64.753 21.0581C64.2964 20.9855 63.8086 20.9492 63.2898 20.9492Z" fill="#030303"/>
<path d="M118.638 23.7503C118.752 23.7503 118.824 23.7347 118.856 23.7036C118.897 23.6621 118.918 23.5946 118.918 23.5012C118.918 22.588 118.664 21.8772 118.155 21.3687C117.657 20.8603 116.873 20.606 115.805 20.606C114.736 20.606 113.947 20.8603 113.439 21.3687C112.93 21.8668 112.66 22.5777 112.629 23.5012C112.629 23.5946 112.645 23.6621 112.676 23.7036C112.717 23.7347 112.795 23.7503 112.909 23.7503H118.638ZM122.249 28.6067C122.27 28.752 122.285 28.9284 122.295 29.1359C122.316 29.3331 122.332 29.5406 122.342 29.7586C122.353 29.9661 122.358 30.1736 122.358 30.3812C122.358 30.5783 122.353 30.7548 122.342 30.9104C122.321 31.0868 122.29 31.2113 122.249 31.284C122.218 31.3462 122.124 31.4085 121.969 31.4708C121.823 31.5227 121.616 31.6005 121.346 31.7043C121.076 31.7976 120.729 31.891 120.303 31.9844C119.888 32.0778 119.385 32.1608 118.793 32.2335C118.202 32.3061 117.517 32.3424 116.739 32.3424C115.452 32.3424 114.264 32.2283 113.174 32C112.095 31.7613 111.161 31.367 110.372 30.817C109.584 30.2567 108.966 29.5199 108.52 28.6067C108.084 27.6832 107.866 26.5313 107.866 25.1512C107.866 22.6918 108.546 20.8551 109.905 19.6409C111.265 18.4165 113.231 17.8042 115.805 17.8042C116.832 17.8042 117.818 17.9184 118.762 18.1467C119.706 18.3646 120.537 18.733 121.253 19.2518C121.969 19.7603 122.539 20.44 122.965 21.2909C123.401 22.1314 123.619 23.1795 123.619 24.4351C123.619 24.7465 123.613 25.0422 123.603 25.3224C123.593 25.6026 123.577 25.8153 123.556 25.9606C123.525 26.2304 123.458 26.3964 123.354 26.4587C123.261 26.5209 123.089 26.5521 122.84 26.5521H112.816C112.764 26.5521 112.717 26.5676 112.676 26.5988C112.645 26.6195 112.629 26.6558 112.629 26.7077C112.64 27.2058 112.759 27.6157 112.987 27.9374C113.226 28.2591 113.548 28.5133 113.952 28.7001C114.357 28.8869 114.834 29.0166 115.384 29.0892C115.945 29.1619 116.562 29.1982 117.237 29.1982C117.766 29.1982 118.254 29.1723 118.7 29.1204C119.146 29.0581 119.551 28.9855 119.914 28.9025C120.288 28.8194 120.62 28.7312 120.91 28.6378C121.211 28.5444 121.481 28.4614 121.72 28.3888C121.865 28.3369 121.984 28.3265 122.078 28.3577C122.171 28.3784 122.228 28.4614 122.249 28.6067Z" fill="#030303"/>
<path d="M79.375 19.0448H83.5342V20.8892C83.5342 20.8892 90.004 17.2006 93.0078 20.6588C97.6291 17.8923 102.944 18.3533 103.868 22.5031C103.868 33.1082 103.868 32.4165 103.868 32.4165H99.0155C99.0155 32.4165 99.0155 25.9612 99.0155 23.1947C99.0155 20.4281 93.2389 22.5031 93.701 23.1947C93.701 32.4165 93.701 32.4165 93.701 32.4165H89.0797C89.0797 32.4165 89.0797 32.4165 89.0797 23.1947C88.8487 20.1977 83.5342 22.7337 83.5342 23.1947C83.5342 23.6556 83.5342 32.4165 83.5342 32.4165H79.375V19.0448Z" fill="#030303"/>
<rect x="75.7465" y="12.613" width="50.8" height="25.6638" stroke="#EB8C31" stroke-width="0.907143"/>
</svg>
