<svg width="222" height="172" viewBox="0 0 222 172" fill="none" xmlns="http://www.w3.org/2000/svg">
<path opacity="0.6" d="M209.122 104.799C207.544 113.064 204.456 120.778 200.202 127.528C188.4 146.331 167.541 158.453 144.28 158.453H99.6793C81.5646 158.453 64.3419 151.014 51.8538 137.928C51.3048 137.377 50.7559 136.757 50.2756 136.206C43.3454 128.354 38.3364 119.056 35.6603 109.001C34.7683 105.626 34.1508 102.251 33.8077 98.7382C33.8077 98.6693 33.8077 98.6004 33.8077 98.4627C33.1902 92.1262 32.9843 86.0652 33.3274 80.3485C34.0135 67.6067 37.2385 56.5178 43.414 48.2528C50.6187 38.6103 61.8718 32.8248 77.9966 32.687C78.6827 32.687 79.3689 32.687 80.0551 32.687C124.45 33.3758 123.009 53.6939 159.375 62.6477C167.678 64.7139 177.971 66.1603 191.282 66.5735C191.557 66.5735 191.9 66.5735 192.174 66.6424C210.769 67.8133 212.828 85.3764 209.122 104.799Z" fill="#8CB0FF"/>
<path opacity="0.5" d="M192.173 66.6419C179.616 73.254 159.923 80.2792 136.251 77.7308C100.296 73.805 55.0089 66.2976 33.3262 80.417C34.0123 67.6751 37.2373 56.5862 43.4128 48.3212C51.0292 46.5304 60.6354 46.4615 72.8491 49.6298C99.2664 56.4484 133.575 63.9558 159.374 62.6472C167.677 64.7134 177.969 66.1598 191.281 66.5731C191.555 66.5731 191.898 66.5731 192.173 66.6419Z" fill="white"/>
<path opacity="0.5" d="M209.12 104.799C207.542 113.064 204.454 120.778 200.2 127.528C191.074 130.283 178.998 131.316 163.284 127.872C124.997 119.47 82.9348 119.607 51.8516 137.859C51.3027 137.308 50.7538 136.688 50.2735 136.137C43.3432 128.286 38.3342 118.988 35.6582 108.932C46.4996 103.766 73.6716 93.7793 108.735 101.769C145.719 110.24 188.055 116.99 209.12 104.799Z" fill="#407BFF"/>
<path d="M41.399 12.6085L41.9479 9.78465L39.2719 9.23365C39.2719 8.5449 39.1346 7.85615 38.9288 7.1674L41.1245 5.72102L39.5463 3.3104L37.4879 4.68789C36.8703 4.06802 36.1155 3.58589 35.3607 3.24152L35.9097 0.555394L33.0964 0.00439453L32.5475 2.7594C31.9985 2.7594 31.381 2.89715 30.8321 3.10377L29.3911 0.899769L26.9896 2.48389L28.3619 4.55015C27.7443 5.17002 27.264 5.92765 26.9209 6.68527L24.588 6.20315L24.0391 9.02702L26.4406 9.50915C26.5092 10.2668 26.6465 11.0244 26.9209 11.7132L24.7938 13.0907L26.372 15.5013L28.5677 14.0549C29.1853 14.6059 29.9401 15.0192 30.6948 15.2947L30.1459 17.9808L32.9592 18.5318L33.5081 15.639C34.1257 15.5702 34.7432 15.4324 35.3607 15.1569L36.7331 17.292L39.1346 15.7079L37.6937 13.5039C38.1054 13.0218 38.3799 12.5397 38.6543 12.0575L41.399 12.6085ZM34.3315 11.5065C33.0964 12.333 31.4496 11.9887 30.6948 10.7489C29.8714 9.50915 30.2145 7.85615 31.4496 7.09852C32.6847 6.27202 34.3315 6.6164 35.0863 7.85615C35.8411 9.02703 35.498 10.68 34.3315 11.5065Z" fill="#8CB0FF"/>
<path d="M54.3624 23.4754L54.6369 21.8913L53.1959 21.6158C53.1959 21.2025 53.1273 20.8582 52.9901 20.4449L54.1565 19.6184L53.2645 18.3098L52.0981 19.0674C51.755 18.723 51.3433 18.4475 50.9316 18.2409L51.206 16.7945L49.6279 16.519L49.3534 18.0343C49.0103 18.0343 48.7359 18.1032 48.3928 18.2409L47.5694 17.07L46.2657 17.9654L47.0205 19.1363C46.6774 19.4807 46.4029 19.8939 46.1971 20.3072L44.962 20.0317L44.6875 21.6158L45.9912 21.8913C45.9912 22.3045 46.1284 22.7178 46.2657 23.0622L45.2364 23.8198L46.1284 25.1284L47.2949 24.3019C47.638 24.5774 48.0497 24.8529 48.4614 24.9907L48.1869 26.437L49.7651 26.7126L50.0396 25.1973C50.3826 25.1284 50.7257 25.0595 51.0688 24.9218L51.8236 26.0927L53.1273 25.1973L52.3039 24.0264C52.5098 23.7509 52.7156 23.4754 52.8528 23.1999L54.3624 23.4754ZM50.4513 22.8555C49.7651 23.2688 48.8731 23.131 48.4614 22.4423C48.0497 21.7535 48.1869 20.8582 48.8731 20.4449C49.5593 20.0317 50.4513 20.1694 50.863 20.8582C51.2747 21.478 51.1374 22.3734 50.4513 22.8555Z" fill="#8CB0FF"/>
<path d="M217.492 137.239L217.355 134.346L214.679 134.484C214.542 133.795 214.199 133.175 213.856 132.555L215.64 130.627L213.513 128.698L211.797 130.558C211.042 130.076 210.219 129.8 209.396 129.663L209.258 126.977L206.376 127.114L206.514 129.938C205.965 130.076 205.416 130.351 204.936 130.696L203.014 128.905L201.093 131.04L202.946 132.762C202.465 133.52 202.191 134.346 202.054 135.173L199.721 135.31L199.858 138.203L202.328 138.065C202.534 138.754 202.877 139.443 203.357 140.063L201.642 141.922L203.769 143.851L205.553 141.922C206.308 142.336 207.063 142.542 207.886 142.611L208.023 145.366L210.905 145.228L210.768 142.267C211.385 142.06 211.934 141.716 212.415 141.371L214.267 143.093L216.189 140.958L214.267 139.167C214.542 138.616 214.748 138.065 214.816 137.514L217.492 137.239ZM210.288 137.859C209.327 138.961 207.612 139.03 206.582 138.065C205.484 137.101 205.416 135.379 206.376 134.346C207.337 133.244 209.053 133.175 210.082 134.14C211.18 135.104 211.248 136.826 210.288 137.859Z" fill="#8CB0FF"/>
<path d="M221.404 119.469L221.335 117.885L219.826 117.954C219.757 117.609 219.551 117.196 219.345 116.921L220.306 115.819L219.14 114.786L218.248 115.819C217.836 115.543 217.356 115.405 216.944 115.337L216.875 113.821L215.297 113.89L215.366 115.405C215.091 115.474 214.748 115.612 214.474 115.819L213.376 114.854L212.347 116.025L213.376 116.921C213.101 117.334 212.964 117.816 212.896 118.229L211.592 118.298L211.66 119.882L212.964 119.813C213.101 120.227 213.239 120.571 213.513 120.915L212.621 121.949L213.788 122.982L214.748 121.88C215.16 122.086 215.572 122.224 216.052 122.224L216.12 123.739L217.699 123.67L217.63 122.086C217.973 121.949 218.248 121.811 218.522 121.604L219.551 122.5L220.581 121.329L219.483 120.364C219.62 120.089 219.757 119.745 219.826 119.469H221.404ZM217.493 119.813C216.944 120.433 216.052 120.433 215.434 119.882C214.817 119.331 214.817 118.436 215.366 117.816C215.915 117.196 216.807 117.196 217.424 117.747C217.973 118.298 217.973 119.194 217.493 119.813Z" fill="#8CB0FF"/>
<path d="M185.83 54.3894C193.671 40.0943 188.483 22.1256 174.241 14.2551C160 6.38469 142.099 11.5929 134.258 25.888C126.417 40.183 131.605 58.1517 145.847 66.0222C160.088 73.8926 177.989 68.6845 185.83 54.3894Z" fill="#FF8697"/>
<path d="M167.301 62.3098C179.509 58.2942 186.163 45.105 182.162 32.8508C178.162 20.5966 165.022 13.9178 152.814 17.9333C140.606 21.9489 133.952 35.1381 137.952 47.3923C141.953 59.6465 155.093 66.3253 167.301 62.3098Z" fill="white"/>
<path d="M163.16 56.9883C172.439 55.2692 178.574 46.3248 176.861 37.0104C175.148 27.696 166.237 21.5388 156.958 23.2579C147.679 24.977 141.545 33.9214 143.257 43.2358C144.97 52.5502 153.881 58.7074 163.16 56.9883Z" fill="#FF8697"/>
<path d="M160.681 51.0602C166.696 50.7167 171.296 45.5431 170.953 39.5047C170.611 33.4662 165.457 28.8495 159.441 29.193C153.426 29.5365 148.826 34.7101 149.168 40.7486C149.511 46.787 154.665 51.4037 160.681 51.0602Z" fill="white"/>
<path d="M161.364 44.7408C158.826 45.4296 156.218 43.9832 155.532 41.4348C154.846 38.8864 156.287 36.2692 158.826 35.5804C161.364 34.8917 163.972 36.338 164.658 38.8864C165.344 41.3659 163.835 44.0521 161.364 44.7408Z" fill="#E07080"/>
<path d="M192.998 21.9429L185.862 20.8409L186.96 13.6779C187.028 13.2646 186.754 12.8514 186.342 12.7825C185.93 12.7136 185.519 12.9891 185.45 13.4024L184.284 21.1164L181.539 23.1138L182.499 16.915C182.568 16.5018 182.294 16.0885 181.882 16.0885C181.47 16.0196 181.059 16.2951 180.99 16.7084L179.823 24.4224L176.393 26.9708L177.353 20.772C177.422 20.3588 177.147 19.9455 176.736 19.8767C176.324 19.8078 175.912 20.0833 175.844 20.4965L174.677 28.2105L160.199 39.0239C159.856 39.8504 159.993 40.4014 160.199 40.8835L175.775 29.3814L183.186 30.4834C183.597 30.5523 184.009 30.2768 184.078 29.8635C184.146 29.4503 183.872 29.037 183.46 28.9682L177.559 28.0728L180.99 25.5244L188.332 26.7642C188.744 26.833 189.155 26.5575 189.224 26.1443C189.292 25.731 189.018 25.3178 188.606 25.3178L182.705 24.4224L185.45 22.425L192.861 23.527C193.272 23.5959 193.684 23.3204 193.753 22.9072C193.684 22.425 193.409 22.0118 192.998 21.9429Z" fill="#243762"/>
<path d="M140.644 118.023H40.3271C37.5824 118.023 35.3867 115.819 35.3867 113.064V57.9644C35.3867 55.2094 37.5824 53.0054 40.3271 53.0054H140.644C143.389 53.0054 145.584 55.2094 145.584 57.9644V113.133C145.584 115.819 143.389 118.023 140.644 118.023Z" fill="#243762"/>
<path d="M38.2695 110.309V60.7881C38.2695 58.0331 40.4652 55.8291 43.2099 55.8291H137.9C140.645 55.8291 142.841 58.0331 142.841 60.7881V110.309C142.841 113.064 140.645 115.268 137.9 115.268H43.2099C40.4652 115.199 38.2695 112.995 38.2695 110.309Z" fill="white"/>
<path d="M117.313 86.9605C117.313 97.154 109.08 105.419 98.9243 105.419C88.7691 105.419 80.5352 97.154 80.5352 86.9605C80.5352 84.4121 81.0155 82.0015 81.9761 79.7975L98.9929 86.9605L98.1009 68.502C98.3754 68.502 98.6499 68.502 98.9929 68.502C109.08 68.502 117.313 76.767 117.313 86.9605Z" fill="#407BFF"/>
<path d="M96.3846 65.6094C90.8953 65.8849 86.0235 68.571 82.7986 72.6346C81.7693 73.9433 80.8773 75.3896 80.2598 76.9738L97.2766 84.1368L96.3846 65.6094Z" fill="#FF8697"/>
<path d="M126.236 74.2876H123.697V76.836H126.236V74.2876Z" fill="#407BFF"/>
<path opacity="0.6" d="M136.871 75.8719H128.157C128.088 75.8719 127.951 75.803 127.951 75.6651V75.3894C127.951 75.3205 128.02 75.1826 128.157 75.1826H136.871C136.94 75.1826 137.077 75.2515 137.077 75.3894V75.6651C137.077 75.7341 136.94 75.8719 136.871 75.8719Z" fill="#8CB0FF"/>
<path d="M126.234 78.7637H123.695V81.312H126.234V78.7637Z" fill="#FA8B21"/>
<path opacity="0.6" d="M136.871 80.3485H128.157C128.088 80.3485 127.951 80.2796 127.951 80.1417V79.866C127.951 79.797 128.02 79.6592 128.157 79.6592H136.871C136.94 79.6592 137.077 79.7281 137.077 79.866V80.1417C137.077 80.2796 136.94 80.3485 136.871 80.3485Z" fill="#8CB0FF"/>
<path opacity="0.6" d="M136.732 89.3026H124.038C123.833 89.3026 123.695 89.1647 123.695 88.9579C123.695 88.7511 123.833 88.6133 124.038 88.6133H136.732C136.938 88.6133 137.075 88.7511 137.075 88.9579C137.075 89.1647 136.87 89.3026 136.732 89.3026Z" fill="#8CB0FF"/>
<path opacity="0.6" d="M136.732 91.9203H124.038C123.833 91.9203 123.695 91.7824 123.695 91.5756C123.695 91.3688 123.833 91.231 124.038 91.231H136.732C136.938 91.231 137.075 91.3688 137.075 91.5756C137.075 91.7135 136.87 91.9203 136.732 91.9203Z" fill="#8CB0FF"/>
<path opacity="0.6" d="M136.732 94.4681H124.038C123.833 94.4681 123.695 94.3303 123.695 94.1235C123.695 93.9167 123.833 93.7788 124.038 93.7788H136.732C136.938 93.7788 137.075 93.9167 137.075 94.1235C137.075 94.3303 136.87 94.4681 136.732 94.4681Z" fill="#8CB0FF"/>
<path opacity="0.6" d="M136.732 97.0858H124.038C123.833 97.0858 123.695 96.9479 123.695 96.7411C123.695 96.5343 123.833 96.3965 124.038 96.3965H136.732C136.938 96.3965 137.075 96.5343 137.075 96.7411C137.075 96.9479 136.87 97.0858 136.732 97.0858Z" fill="#8CB0FF"/>
<path opacity="0.6" d="M136.732 99.703H124.038C123.833 99.703 123.695 99.5651 123.695 99.3583C123.695 99.1515 123.833 99.0137 124.038 99.0137H136.732C136.938 99.0137 137.075 99.1515 137.075 99.3583C137.075 99.5651 136.87 99.703 136.732 99.703Z" fill="#8CB0FF"/>
<path opacity="0.6" d="M136.732 102.32H124.038C123.833 102.32 123.695 102.182 123.695 101.976C123.695 101.769 123.833 101.631 124.038 101.631H136.732C136.938 101.631 137.075 101.769 137.075 101.976C137.075 102.182 136.87 102.32 136.732 102.32Z" fill="#8CB0FF"/>
<path opacity="0.6" d="M136.732 104.937H124.038C123.833 104.937 123.695 104.8 123.695 104.593C123.695 104.386 123.833 104.248 124.038 104.248H136.732C136.938 104.248 137.075 104.386 137.075 104.593C137.075 104.8 136.87 104.937 136.732 104.937Z" fill="#8CB0FF"/>
<path d="M50.5512 94.1235H45.748V105.763H50.5512V94.1235Z" fill="#407BFF"/>
<path d="M57.6195 85.8584H52.8164V105.763H57.6195V85.8584Z" fill="#407BFF"/>
<path d="M65.4399 79.7974H60.6367V105.763H65.4399V79.7974Z" fill="#407BFF"/>
<path d="M73.1254 72.6348H68.3223V105.764H73.1254V72.6348Z" fill="#407BFF"/>
<path d="M64.2754 67.5377L67.6376 68.7775L67.2259 64.8516L64.2754 67.5377Z" fill="#91B3FA"/>
<path d="M44.445 88.4762C44.3078 88.4762 44.1705 88.4073 44.1019 88.2695C44.0333 88.0629 44.1019 87.8563 44.3077 87.7874C44.445 87.7185 58.8544 82.2085 65.9219 67.2626C65.9905 67.056 66.1963 66.9871 66.4022 67.1249C66.608 67.1938 66.6766 67.4004 66.5394 67.607C59.4033 82.7595 44.7194 88.4073 44.5136 88.4762C44.5136 88.4762 44.5136 88.4762 44.445 88.4762Z" fill="#91B3FA"/>
<path d="M204.937 72.2906V163.894C204.937 166.787 202.604 169.06 199.791 169.06H154.367C152.926 169.06 151.623 168.44 150.662 167.545C149.701 166.581 149.152 165.341 149.152 163.894V72.2906C149.152 69.3979 151.485 67.125 154.299 67.125H199.723C200.546 67.125 201.369 67.3316 202.055 67.676C203.771 68.5025 204.937 70.2933 204.937 72.2906Z" fill="#243762"/>
<path d="M204.936 72.2914V163.895C204.936 166.788 202.603 169.061 199.789 169.061H154.365C152.924 169.061 151.621 168.441 150.66 167.546L202.122 67.6768C203.769 68.5033 204.936 70.294 204.936 72.2914Z" fill="#243762"/>
<path d="M149.152 93.0902H148.535C148.054 93.0902 147.643 92.677 147.643 92.1949V84.412C147.643 83.9298 148.054 83.5166 148.535 83.5166H149.152V93.0902Z" fill="#243762"/>
<path d="M204.938 93.0902H205.555C206.035 93.0902 206.447 92.677 206.447 92.1949V84.412C206.447 83.9298 206.035 83.5166 205.555 83.5166H204.938V93.0902Z" fill="#243762"/>
<path d="M149.152 106.039H148.535C148.054 106.039 147.643 105.626 147.643 105.144V97.3607C147.643 96.8786 148.054 96.4653 148.535 96.4653H149.152V106.039Z" fill="#243762"/>
<path d="M151.76 162.379V73.8058C151.76 71.533 153.612 69.6733 155.877 69.6733H198.282C200.546 69.6733 202.399 71.533 202.399 73.8058V162.379C202.399 164.652 200.546 166.512 198.282 166.512H155.877C153.544 166.512 151.76 164.652 151.76 162.379Z" fill="white"/>
<path d="M195.468 89.3018L194.85 96.2581L192.86 94.674L182.019 108.311L178.039 105.143L169.805 115.268L167.884 113.684L165.894 112.099L157.249 122.913C156.837 123.395 156.082 123.533 155.602 123.119C155.053 122.706 154.916 121.88 155.327 121.329L165.482 108.449L169.462 111.617L174.608 105.143L177.628 101.355L179.617 102.939L181.607 104.523L190.87 92.8833L188.881 91.2991L195.468 89.3018Z" fill="#FF8697"/>
<path d="M182.705 120.778H171.383V161.415H182.705V120.778Z" fill="#407BFF"/>
<path d="M171.383 149.913C174.745 149.844 178.725 149.844 182.705 149.568V161.415H171.383V149.913Z" fill="#FF8697"/>
<path d="M198.556 109.415H187.234V161.416H198.556V109.415Z" fill="#407BFF"/>
<path d="M198.556 145.574V161.415H187.234V149.156C191.489 148.605 195.468 147.572 198.556 145.574Z" fill="#FF8697"/>
<path d="M166.855 130.559H155.533V161.415H166.855V130.559Z" fill="#407BFF"/>
<path d="M166.855 150.257V161.415H155.533V156.662C156.7 154.94 159.925 151.221 166.855 150.257Z" fill="#FF8697"/>
<path d="M160.133 82.0015H157.594V84.5498H160.133V82.0015Z" fill="#407BFF"/>
<path opacity="0.6" d="M170.697 83.5863H161.983C161.915 83.5863 161.777 83.5174 161.777 83.3795V83.1038C161.777 83.0348 161.846 82.897 161.983 82.897H170.697C170.766 82.897 170.903 82.9659 170.903 83.1038V83.3795C170.903 83.5174 170.835 83.5863 170.697 83.5863Z" fill="#8CB0FF"/>
<path d="M160.133 86.5474H157.594V89.0957H160.133V86.5474Z" fill="#FF8697"/>
<path opacity="0.6" d="M170.697 88.1322H161.983C161.915 88.1322 161.777 88.0633 161.777 87.9254V87.6497C161.777 87.5807 161.846 87.4429 161.983 87.4429H170.697C170.766 87.4429 170.903 87.5118 170.903 87.6497V87.9254C170.903 88.0633 170.835 88.1322 170.697 88.1322Z" fill="#8CB0FF"/>
<path opacity="0.6" d="M170.562 94.4691H157.868C157.663 94.4691 157.525 94.3312 157.525 94.1244C157.525 93.9176 157.663 93.7798 157.868 93.7798H170.562C170.768 93.7798 170.906 93.9176 170.906 94.1244C170.906 94.3312 170.768 94.4691 170.562 94.4691Z" fill="#8CB0FF"/>
<path opacity="0.6" d="M170.562 97.0863H157.868C157.663 97.0863 157.525 96.9484 157.525 96.7416C157.525 96.5348 157.663 96.397 157.868 96.397H170.562C170.768 96.397 170.906 96.5348 170.906 96.7416C170.906 96.9484 170.768 97.0863 170.562 97.0863Z" fill="#8CB0FF"/>
<path opacity="0.6" d="M170.562 99.704H157.868C157.663 99.704 157.525 99.5661 157.525 99.3593C157.525 99.1525 157.663 99.0146 157.868 99.0146H170.562C170.768 99.0146 170.906 99.1525 170.906 99.3593C170.906 99.5661 170.768 99.704 170.562 99.704Z" fill="#8CB0FF"/>
<path opacity="0.6" d="M170.562 102.321H157.868C157.663 102.321 157.525 102.183 157.525 101.976C157.525 101.769 157.663 101.631 157.868 101.631H170.562C170.768 101.631 170.906 101.769 170.906 101.976C170.906 102.183 170.768 102.321 170.562 102.321Z" fill="#8CB0FF"/>
<path d="M191.146 74.2882H162.945C162.122 74.2882 161.436 73.5995 161.436 72.7041V70.5001C161.436 69.6736 162.122 68.9849 162.945 68.9849H191.146C191.97 68.9849 192.725 69.6736 192.725 70.5001V72.7041C192.725 73.5306 192.038 74.2882 191.146 74.2882Z" fill="#243762"/>
<path d="M184.766 71.9463H166.72C166.514 71.9463 166.309 71.8086 166.309 71.5331V70.9821C166.309 70.7755 166.446 70.5688 166.72 70.5688H184.766C184.972 70.5688 185.178 70.7066 185.178 70.9821V71.5331C185.109 71.7397 184.972 71.9463 184.766 71.9463Z" fill="#243762"/>
<path d="M189.705 71.2581C189.705 71.6713 189.362 72.0157 188.95 72.0157C188.538 72.0157 188.195 71.6713 188.195 71.2581C188.195 70.8448 188.538 70.5005 188.95 70.5005C189.362 70.4316 189.705 70.776 189.705 71.2581Z" fill="#524E86"/>
<path d="M57.4794 74.1501C56.8619 73.9435 54.1859 75.3898 54.0486 75.3898C53.9114 75.3898 53.4311 75.2521 52.8821 75.1832C52.3332 75.1143 52.0587 75.2521 51.5784 76.0097C51.1667 76.6985 50.755 77.9382 50.755 77.9382C50.4806 78.0071 50.2061 78.1448 49.9316 78.2826C50.3433 79.1091 50.755 79.8667 51.1667 80.6932C51.647 80.4177 52.0587 80.2111 52.4018 80.0045C52.6763 80.0733 52.9508 80.1422 53.1566 80.0733C53.7742 79.9356 54.3231 79.729 54.6662 79.6601C54.872 79.5912 54.9406 79.5223 54.9406 79.5223C55.0092 79.5223 55.2837 79.6601 55.9013 79.5223C56.5874 79.3157 56.9991 78.8336 56.9991 78.5581C56.9991 78.2137 56.656 78.0071 56.656 78.0071C56.656 78.0071 56.9305 77.8005 56.9305 77.4561C56.9305 77.1117 56.313 76.7673 56.313 76.7673C56.313 76.7673 56.5874 76.423 56.3816 76.0786C56.1757 75.7342 55.3523 76.0097 55.2837 76.0786C55.4209 75.9408 58.0284 74.3567 57.4794 74.1501Z" fill="#FDA893"/>
<path d="M52.4693 77.2495H52.4006C52.332 77.1806 52.332 77.1118 52.332 77.0429L52.6751 76.423C52.6751 76.3541 52.7437 76.3541 52.7437 76.3541C52.8123 76.3541 52.8123 76.3541 52.881 76.3541C52.881 76.3541 53.5671 76.7674 54.1847 76.6296C54.3905 76.5608 54.5278 76.4919 54.5278 76.423C54.5964 76.2853 54.5278 76.2164 54.5278 76.2164C54.5278 76.1475 54.5278 76.0786 54.5964 76.0098C54.665 76.0098 54.7336 76.0098 54.8022 76.0786C54.8022 76.0786 54.8708 76.3541 54.8022 76.5608C54.7336 76.7674 54.5278 76.9051 54.2533 76.974C53.7044 77.1118 53.1554 76.8363 52.881 76.7674L52.6065 77.2495C52.5379 77.2495 52.4693 77.2495 52.4693 77.2495Z" fill="#FD896B"/>
<path d="M55.0778 79.5232C55.0778 79.5232 54.9406 79.5232 54.7347 79.5921C54.4603 79.3166 54.4603 78.9033 54.4603 78.6278C54.4603 78.3523 54.4603 78.1457 54.323 77.9391C54.1858 77.8013 54.1172 77.5947 54.1172 77.3881C54.1172 77.1814 54.1172 77.0437 54.1858 76.9059C54.1858 76.8371 54.1858 76.8371 54.2544 76.7682C54.323 76.6304 54.323 76.5616 54.323 76.5616C54.3916 76.4927 54.4603 76.4927 54.5289 76.4927C54.5975 76.5616 54.5975 76.6304 54.5975 76.6993C54.5289 76.7682 54.4603 76.9748 54.4603 77.2503C54.4603 77.3881 54.5289 77.5258 54.5975 77.6636C54.8033 77.8702 54.8033 78.2146 54.8033 78.4901C54.7347 78.9722 54.8033 79.2477 55.0778 79.5232Z" fill="#FD896B"/>
<path d="M53.02 78.4201C52.9514 78.4201 52.8828 78.4201 52.8828 78.3512C52.8828 78.2824 52.8828 78.2135 52.9514 78.1446C52.9514 78.1446 53.8434 77.7314 53.9121 76.9048C53.9121 76.836 53.9807 76.7671 54.0493 76.7671C54.1179 76.7671 54.1865 76.836 54.1865 76.9048C54.1179 77.938 53.1573 78.4201 53.02 78.4201C53.0887 78.4201 53.02 78.4201 53.02 78.4201Z" fill="#FD896B"/>
<path d="M49.9999 78.2134C44.5106 80.073 40.3936 81.3128 36.1394 82.3459C28.523 84.2055 24.4746 83.1035 24.4746 83.1035L27.3565 88.4069L27.8368 89.3711C28.6602 89.5778 29.6894 89.6466 30.6501 89.5089C33.532 89.2334 36.4825 87.9936 36.4825 87.9936C44.3047 84.8943 49.4509 82.4836 51.578 80.9684L49.9999 78.2134Z" fill="#407BFF"/>
<path d="M49.8623 77.7998L48.5586 78.4197L50.3426 81.9323L51.7149 81.1058L49.8623 77.7998Z" fill="#243762"/>
<path d="M30.651 89.5087C29.6218 89.5775 28.6611 89.5775 27.8377 89.3709L27.3574 88.4067C27.4947 87.9245 27.7691 87.5802 28.2494 87.3735C28.2494 87.3735 28.9356 88.751 30.651 89.5087Z" fill="#243762"/>
<path d="M8.35027 155.56L6.08594 158.59C6.08594 158.59 6.49763 159.968 8.14442 161.001L10.8205 157.557L8.35027 155.56Z" fill="#FDA893"/>
<path d="M7.80195 160.037C7.80195 160.037 8.8312 159.83 9.17428 160.175C9.51736 160.519 10.4094 165.478 11.3014 166.58C12.1248 167.682 11.3014 168.233 10.7525 168.44C10.2035 168.646 2.79297 161.208 2.79297 161.208C2.79297 161.208 4.64561 158.659 5.53762 158.177C6.42963 157.695 6.84133 159.486 7.80195 160.037Z" fill="#243762"/>
<path d="M22.0742 160.725L22.4173 164.444C22.4173 164.444 23.5838 165.202 25.505 164.858L25.162 160.519L22.0742 160.725Z" fill="#FDA893"/>
<path d="M24.8881 164.307C24.8881 164.307 25.5742 163.412 26.0545 163.412C26.6035 163.412 30.7204 166.649 32.1614 166.924C33.5337 167.2 33.3279 168.233 33.0534 168.715C32.7789 169.266 21.9376 168.922 21.9376 168.922C21.9376 168.922 21.5259 165.409 21.8689 164.376C22.1434 163.481 23.7902 164.582 24.8881 164.307Z" fill="#243762"/>
<path d="M20.0164 120.158L17.7521 138.961C17.7521 138.961 15.6936 141.716 13.7723 145.229C12.1256 148.19 7.80273 155.904 7.80273 155.904L10.4102 157.902L24.751 143.025L28.5935 120.021L20.0164 120.158Z" fill="#243762"/>
<path d="M11.0957 157.902C10.8899 158.522 10.4096 158.867 9.92927 159.211L6.91016 156.663C7.18462 156.112 7.5277 155.63 7.9394 155.285L11.0957 157.902Z" fill="#243762"/>
<path d="M8.41797 120.915C8.41797 120.915 12.4663 130.902 17.6812 138.616C17.6812 138.616 18.4359 146.192 19.8083 150.187C20.4258 151.978 21.5237 160.311 21.5237 160.311L25.5034 160.105L24.4742 136.963L20.2886 120.157L8.41797 120.915Z" fill="#243762"/>
<path d="M25.9148 160.037C26.1893 160.725 26.1207 161.414 25.9148 162.103L21.3175 162.241C21.1117 161.552 21.0431 160.932 21.1117 160.243L25.9148 160.037Z" fill="#524E86"/>
<path d="M29.1406 119.677C29.1406 120.503 29.1406 121.123 29.1406 121.605C27.2193 122.156 25.2981 122.501 23.3768 122.707C23.3082 122.707 23.3082 122.707 23.2396 122.707C23.171 122.707 23.1024 122.707 22.9651 122.707H22.8965C22.5534 122.776 22.2104 122.776 21.8673 122.776C20.2205 122.914 18.5737 122.914 16.9269 122.845C16.7897 122.845 16.6524 122.845 16.5152 122.845C16.378 122.845 16.2407 122.845 16.1035 122.845C16.0349 122.845 15.9663 122.845 15.8977 122.845C15.7604 122.845 15.6918 122.845 15.5546 122.845C13.153 122.638 10.6828 122.225 8.28125 121.536C8.28125 120.572 8.28125 118.644 8.28125 116.095C8.28125 115.958 8.28125 115.82 8.28125 115.682C8.28125 112.927 8.28125 109.483 8.34987 105.971C8.34987 105.695 8.34987 105.42 8.34987 105.144C8.34987 104.8 8.34987 104.524 8.34987 104.18C8.34987 104.111 8.34987 104.042 8.34987 104.042C8.34987 103.973 8.34987 103.904 8.34987 103.836C8.34987 103.698 8.34987 103.56 8.34987 103.353C8.34987 103.147 8.34987 102.94 8.34987 102.665C8.34987 102.527 8.34987 102.32 8.34987 102.183C8.34987 101.838 8.34987 101.494 8.34987 101.149C8.4871 94.1242 8.69295 87.7188 9.17326 86.0658C9.24188 85.9281 9.24188 85.7903 9.31049 85.7214C9.37911 85.6525 9.44773 85.5837 9.51634 85.5148C9.58496 85.4459 9.72219 85.3082 9.79081 85.2393C10.5456 84.5505 11.8493 83.724 13.153 82.9664C13.2902 82.8975 13.4275 82.7598 13.6333 82.6909L17.2014 81.4512L20.9066 81.7267C21.3183 82.0022 24.8864 83.173 25.2981 83.4485C25.4353 83.5174 25.5725 83.5863 25.6412 83.6552C26.6704 84.275 27.4938 84.9638 27.9055 85.5148C28.4544 86.3413 28.7975 93.4354 28.9347 101.218C28.9347 101.425 28.9347 101.563 28.9347 101.769C28.9347 102.596 29.0034 103.422 29.0034 104.249C29.0034 105.075 29.0034 105.902 29.072 106.659C29.072 107.968 29.1406 109.277 29.1406 110.516C29.1406 110.654 29.1406 110.792 29.1406 110.93C29.1406 112.169 29.1406 113.34 29.2092 114.442C29.2092 114.58 29.2092 114.718 29.2092 114.856C29.2092 116.509 29.2092 117.955 29.2092 119.126C29.1406 119.332 29.1406 119.539 29.1406 119.677Z" fill="#407BFF"/>
<path d="M22.3473 92.6075L26.6015 92.332C26.6015 92.332 26.7388 97.4977 24.4744 97.3599C22.2101 97.2222 22.3473 92.6075 22.3473 92.6075Z" fill="#91B3FA"/>
<path d="M11.9882 95.1562C11.9882 94.9496 11.7824 94.8807 11.6451 95.0184C10.1356 97.0158 9.24357 99.1509 8.69464 100.804C8.55741 101.217 8.42018 101.63 8.35156 102.044C8.35156 102.181 8.35156 102.388 8.35156 102.526C8.35156 102.732 8.35156 102.939 8.35156 103.215C8.35156 103.352 8.35156 103.49 8.35156 103.697C8.35156 103.766 8.35156 103.834 8.35156 103.903C8.35156 103.972 8.35156 104.041 8.35156 104.041C8.4888 103.215 8.69464 102.113 9.10634 100.873C9.65527 99.2198 10.4787 97.0847 11.9882 95.1562C11.9882 95.2251 11.9882 95.2251 11.9882 95.1562Z" fill="#243762"/>
<path d="M12.7423 115.474C16.722 115.474 20.1528 113.615 22.3485 112.099C24.6815 110.446 26.1224 108.793 26.1224 108.725C26.1911 108.656 26.1911 108.518 26.1224 108.449C26.0538 108.38 25.9166 108.38 25.848 108.449C25.848 108.449 24.4757 110.102 22.1427 111.755C20.0156 113.27 16.722 115.061 12.8109 115.061C12.6737 115.061 12.605 115.13 12.605 115.268C12.5364 115.405 12.605 115.474 12.7423 115.474Z" fill="#243762"/>
<path d="M16.9279 116.852C20.4274 116.852 23.8582 114.854 23.9954 114.786C24.064 114.717 24.1326 114.648 24.064 114.51C23.9954 114.441 23.9268 114.372 23.7896 114.441C23.7209 114.441 19.6726 116.783 16.0359 116.439C15.8987 116.439 15.8301 116.507 15.8301 116.645C15.8301 116.783 15.8987 116.852 16.0359 116.852C16.3104 116.783 16.6535 116.852 16.9279 116.852Z" fill="#243762"/>
<path d="M22.5536 110.517L20.7009 116.164L18.1621 111.068L18.7797 89.0277L18.8483 88.2012L19.8089 88.0635L19.9461 89.1655L22.5536 110.517Z" fill="white"/>
<path d="M19.9458 89.1655L19.4655 89.7853L18.7793 89.0277L18.8479 88.2012L19.8085 88.0635L19.9458 89.1655Z" fill="#EDEDED"/>
<path d="M17.5449 87.0299L19.4662 88.8895L20.7699 86.5477L19.4662 84.4126L17.5449 87.0299Z" fill="white"/>
<path d="M16.6531 81.2437L16.1042 81.6569C15.9669 81.7947 15.8297 81.8635 15.6925 82.0013C15.2808 82.3457 15.1435 82.6212 15.2122 83.3099C15.2122 83.3788 15.2808 83.5165 15.2808 83.5854L16.31 88.6822L19.535 84.4119C19.4664 84.4119 17.1334 83.5854 16.6531 81.2437Z" fill="#91B3FA"/>
<path d="M20.8377 81.4512C20.8377 81.4512 22.3473 82.8287 21.9356 84.5506L21.2494 87.3744L19.534 84.4128C19.4654 84.4128 20.7005 83.6552 20.8377 81.4512Z" fill="#91B3FA"/>
<path d="M1.62757 125.668C1.55895 126.632 2.72543 126.15 2.38235 124.084C2.03927 122.087 2.99989 120.227 3.41159 120.296C3.82329 120.365 3.06851 122.5 3.41159 123.258C3.75467 124.015 4.23499 122.5 4.7153 121.605C5.19561 120.64 5.19561 118.574 4.98976 117.128C4.78392 115.681 7.39133 106.728 7.45995 104.179L7.80303 103.077L8.96951 99.0824L10.8221 92.8148C10.8221 92.8148 9.72429 88.0624 7.87165 88.4757C7.87165 88.4757 6.91102 91.7817 5.81316 95.5009C5.60731 96.1208 5.47008 96.8095 5.26423 97.4294C4.50945 100.116 3.82329 102.802 3.48021 104.386C2.5882 108.587 2.51958 117.265 2.51958 117.265C2.51958 117.265 1.01002 120.434 0.941406 121.88C0.941406 123.464 1.7648 124.704 1.62757 125.668Z" fill="#FDA893"/>
<path d="M9.51747 85.6515C9.51747 85.7204 9.38023 85.5138 9.31162 85.6515C9.10577 86.1337 8.14514 87.3734 7.66483 88.6132C7.59621 88.7509 7.52759 88.9575 7.45898 89.0953C6.77282 90.886 2.99892 102.457 2.24414 112.375L5.94942 113.064C7.1159 106.59 7.87068 104.592 8.55684 101.424C8.89992 100.184 9.31162 99.0133 9.6547 97.9113C9.79193 97.498 9.92916 97.0159 10.0664 96.6715C10.135 96.5338 10.135 96.396 10.2036 96.2583C10.7526 94.6053 11.1643 93.2967 11.3015 92.6079C11.576 90.4728 10.7526 86.478 9.51747 85.6515Z" fill="#407BFF"/>
<path d="M2.04009 111.687L1.76562 113.202L6.15707 113.891L6.43153 112.376L2.04009 111.687Z" fill="#91B3FA"/>
<path d="M2.31157 114.028C2.31157 114.028 4.71314 113.821 5.74239 114.579L5.53654 116.025C5.53654 116.025 2.72327 115.681 2.03711 115.75C2.03711 115.75 2.03711 114.303 2.31157 114.028Z" fill="#243762"/>
<path d="M3.54626 114.992C3.54626 115.612 3.13456 116.163 2.58563 116.163C2.0367 116.163 1.625 115.612 1.625 114.992C1.625 114.372 2.0367 113.821 2.58563 113.821C3.13456 113.821 3.54626 114.303 3.54626 114.992Z" fill="#243762"/>
<path d="M3.13405 114.923C3.13405 115.405 2.79096 115.75 2.44788 115.75C2.1048 115.75 1.76172 115.336 1.76172 114.923C1.76172 114.441 2.1048 114.097 2.44788 114.097C2.79096 114.097 3.13405 114.441 3.13405 114.923Z" fill="#524E86"/>
<path d="M12.8789 72.1519C12.8789 75.5268 14.9374 77.8685 18.3682 77.8685C21.799 77.8685 24.132 75.3201 24.132 71.9453C24.132 68.5704 22.1421 65.9531 18.7113 65.9531C14.6629 66.022 12.8789 68.777 12.8789 72.1519Z" fill="#243762"/>
<path d="M13.6337 73.5982C13.6337 73.5982 12.6731 72.3584 11.9869 73.3916C11.3008 74.4247 12.2614 77.5241 13.9768 76.7664L13.6337 73.5982Z" fill="#FD896B"/>
<path d="M13.6334 75.8022C13.5648 75.8022 13.4962 75.7333 13.4962 75.6644C13.2217 74.7002 12.2611 74.3558 12.2611 74.3558C12.1925 74.3558 12.1239 74.218 12.1925 74.1492C12.1925 74.0803 12.3297 74.0114 12.3983 74.0803C12.4669 74.0803 13.4962 74.4935 13.8393 75.5955C13.8393 75.7333 13.7707 75.8022 13.6334 75.8022C13.702 75.8022 13.6334 75.8022 13.6334 75.8022Z" fill="#D65C48"/>
<path d="M12.6724 75.3211H12.6038C12.5352 75.2521 12.5352 75.1832 12.5352 75.1143C12.5352 75.1143 12.741 74.8385 13.0841 74.7007C13.1527 74.7007 13.2213 74.7007 13.2899 74.7696C13.2899 74.8385 13.2899 74.9075 13.2213 74.9764C12.9469 75.1143 12.8096 75.3211 12.8096 75.3211C12.741 75.3211 12.741 75.3211 12.6724 75.3211Z" fill="#D65C48"/>
<path d="M23.3763 73.5982C23.3763 73.5982 24.3369 72.3584 25.0231 73.3916C25.7092 74.4247 24.7486 77.5241 23.0332 76.7664L23.3763 73.5982Z" fill="#FD896B"/>
<path d="M23.3758 75.8022C23.4444 75.8022 23.513 75.7333 23.513 75.6644C23.7875 74.7002 24.7481 74.3558 24.7481 74.3558C24.8167 74.3558 24.8853 74.218 24.8167 74.1492C24.8167 74.0803 24.6795 74.0114 24.6109 74.0803C24.5422 74.0803 23.513 74.4935 23.1699 75.5955C23.1699 75.7333 23.2385 75.8022 23.3758 75.8022C23.3072 75.8022 23.3758 75.8022 23.3758 75.8022Z" fill="#D65C48"/>
<path d="M24.3363 75.3211H24.4049C24.4735 75.2521 24.4735 75.1832 24.4735 75.1143C24.4735 75.1143 24.2677 74.8385 23.9246 74.7007C23.856 74.7007 23.7874 74.7007 23.7188 74.7696C23.7188 74.8385 23.7188 74.9075 23.7874 74.9764C24.0618 75.1143 24.1991 75.3211 24.1991 75.3211C24.2677 75.3211 24.3363 75.3211 24.3363 75.3211Z" fill="#D65C48"/>
<path d="M20.839 79.3838V82.6209C20.839 82.6209 20.4959 84.2739 19.4666 84.4117C18.0257 84.5494 16.3789 82.1388 16.3789 82.1388V79.5904L20.839 79.3838Z" fill="#FDA893"/>
<path d="M20.839 79.3838V80.7613C20.0156 81.6567 18.5746 81.9321 16.3789 81.5878V79.5904L20.839 79.3838Z" fill="#FD896B"/>
<path d="M13.1529 73.5985C13.1529 73.8051 13.1529 73.9429 13.2215 74.1495C13.2901 74.6316 13.3587 75.0449 13.4273 75.527C13.4273 75.527 13.4273 75.527 13.4273 75.5959C13.839 77.8688 14.731 80.0728 16.7209 80.7615C21.181 82.3457 22.8278 78.4887 23.4453 76.2846C23.5139 76.0091 23.5825 75.7336 23.6511 75.4581C23.6511 75.4581 23.6511 75.4581 23.6511 75.3893C23.7198 75.0449 23.7884 74.7005 23.7884 74.3561C23.7884 74.0806 23.857 73.8051 23.857 73.5296C23.9256 72.8409 23.9942 72.1521 23.9942 71.6011C24.0628 70.2236 23.2394 68.9839 21.9357 68.5018C20.0831 67.813 17.2698 67.262 14.6624 68.7084C13.7018 69.2594 13.0842 70.2925 13.0156 71.3945C13.0842 72.0144 13.0842 72.772 13.1529 73.5985Z" fill="#FDA893"/>
<path d="M13.1543 73.5982C13.1543 73.8048 13.1543 73.9425 13.2229 74.1492C13.2915 74.6313 13.3601 75.0446 13.4288 75.5267C13.4288 75.5267 13.4288 75.5267 13.4288 75.5956C13.8405 77.8684 14.7325 80.0724 16.7223 80.7612C21.1824 82.3453 22.8292 78.4883 23.4467 76.2843C23.5154 76.0088 23.584 75.7333 23.6526 75.4578C23.6526 75.4578 23.6526 75.4578 23.6526 75.3889C23.7212 75.0445 23.7898 74.7002 23.7898 74.3558C23.7898 74.0803 23.8584 73.8048 23.8584 73.5293L23.1723 73.7359C22.9664 74.769 22.692 76.2154 22.3489 76.9042C21.7313 75.4578 18.5064 76.6287 18.5064 76.6287C18.5064 76.6287 15.5559 75.5956 14.5952 76.6287C14.1149 75.4578 13.7032 73.667 13.7032 73.667L13.1543 73.5982ZM18.4378 77.1108C20.7707 76.7664 21.3882 77.3863 21.4569 78.0751C20.8393 78.7638 20.0845 79.1082 19.467 79.3148C18.6436 79.5214 16.9968 79.4526 15.8303 78.5572C15.6931 78.0062 15.5559 76.4221 18.4378 77.1108Z" fill="#243762"/>
<path d="M16.9967 73.8054C16.9967 74.1498 16.8595 74.4253 16.6536 74.4253C16.4478 74.4253 16.3105 74.1498 16.3105 73.8054C16.3105 73.461 16.4478 73.1855 16.6536 73.1855C16.7909 73.1855 16.9967 73.461 16.9967 73.8054Z" fill="#243762"/>
<path d="M21.319 73.8054C21.319 74.1498 21.1817 74.4253 20.9759 74.4253C20.77 74.4253 20.6328 74.1498 20.6328 73.8054C20.6328 73.461 20.77 73.1855 20.9759 73.1855C21.1817 73.1855 21.319 73.461 21.319 73.8054Z" fill="#243762"/>
<path d="M22.0058 71.8075C22.0058 71.8075 20.8393 71.3254 19.9473 71.7387L20.0159 72.2208C20.0159 72.2208 21.3196 72.083 22.0058 72.3585C22.0744 72.1519 22.0744 71.9453 22.0058 71.8075Z" fill="#243762"/>
<path d="M15.1452 71.8075C15.1452 71.8075 16.3117 71.3254 17.2037 71.7387L17.1351 72.2208C17.1351 72.2208 15.8314 72.083 15.1452 72.3585C15.0766 72.1519 15.0766 71.9453 15.1452 71.8075Z" fill="#243762"/>
<path d="M18.6421 76.3532C18.3676 76.3532 18.1617 76.2843 18.0931 76.2843C18.0245 76.2843 17.9559 76.2154 18.0245 76.0777C18.0245 76.0088 18.0931 75.9399 18.2304 76.0088C18.3676 76.0777 18.7107 76.0777 18.7793 76.0088C18.7793 76.0088 18.8479 75.9399 18.8479 75.8711C18.8479 75.3889 18.5048 73.667 18.5048 73.667C18.5048 73.5982 18.5048 73.5293 18.6421 73.5293C18.7107 73.5293 18.7793 73.5293 18.7793 73.667C18.7793 73.7359 19.1224 75.3889 19.1224 75.9399C19.1224 76.1466 19.0538 76.2843 18.9851 76.2843C18.8479 76.3532 18.7793 76.3532 18.6421 76.3532Z" fill="#FD896B"/>
<path d="M16.6523 77.2485C16.7896 77.8684 17.1327 78.9704 18.505 78.9704C19.8087 78.9704 20.2204 77.9373 20.3576 77.2485H16.6523Z" fill="white"/>
<path d="M23.857 73.6675H23.1708C23.2394 72.9788 23.0336 72.2211 22.8278 71.6701C22.3474 70.4304 23.3081 69.9483 22.5533 69.3284C21.7985 68.7085 19.8773 68.984 18.5049 68.9151C17.1326 68.8463 15.0055 68.9151 14.4566 68.984C13.9076 69.1218 14.2507 69.9483 14.388 70.637C14.5938 71.3258 13.7704 72.0834 13.6332 72.7721C13.5646 72.9788 13.6332 73.2543 13.6332 73.5986H13.0842C13.0156 72.7721 13.0156 71.9456 13.0156 71.3258C13.0156 70.2238 13.6332 69.1906 14.6624 68.6396C17.3385 67.1244 20.0831 67.6754 21.9357 68.433C23.2394 68.9151 24.0628 70.1549 23.9942 71.5324C23.9942 72.1523 23.9256 72.9099 23.857 73.6675Z" fill="#243762"/>
<path d="M19.1934 74.0798C19.1934 73.1155 19.9481 72.3579 20.9088 72.3579C21.8694 72.3579 22.6242 73.1155 22.6242 74.0798C22.6242 75.044 21.8694 75.8017 20.9088 75.8017C20.0168 75.8017 19.1934 75.044 19.1934 74.0798ZM19.4678 74.0798C19.4678 74.9063 20.154 75.5262 20.9088 75.5262C21.7322 75.5262 22.3497 74.8374 22.3497 74.0798C22.3497 73.3222 21.6635 72.6334 20.9088 72.6334C20.154 72.6334 19.4678 73.3222 19.4678 74.0798Z" fill="white"/>
<path d="M14.5254 74.0798C14.5254 73.1155 15.2802 72.3579 16.2408 72.3579C17.2014 72.3579 17.9562 73.1155 17.9562 74.0798C17.9562 75.044 17.2014 75.8017 16.2408 75.8017C15.2802 75.8017 14.5254 75.044 14.5254 74.0798ZM14.7999 74.0798C14.7999 74.9063 15.486 75.5262 16.2408 75.5262C16.9956 75.5262 17.6817 74.8374 17.6817 74.0798C17.6817 73.3222 16.9956 72.6334 16.2408 72.6334C15.486 72.6334 14.7999 73.3222 14.7999 74.0798Z" fill="white"/>
<path d="M22.3488 73.5295C22.3488 73.5295 22.4175 73.5295 22.4175 73.4606C22.4175 73.4606 23.2409 72.703 24.2015 72.9096C24.2701 72.9096 24.3387 72.9096 24.3387 72.8408C24.3387 72.7719 24.3387 72.703 24.2701 72.703C23.1036 72.4275 22.2116 73.254 22.2116 73.3229C22.143 73.3918 22.143 73.4606 22.2116 73.5295C22.2802 73.5295 22.3488 73.5295 22.3488 73.5295Z" fill="white"/>
<path d="M14.802 73.5296C14.8706 73.5296 14.8706 73.5296 14.9392 73.4607C15.0078 73.3919 14.9392 73.323 14.8706 73.2541C14.802 73.2541 13.5669 72.4276 12.5376 72.6342C12.469 72.6342 12.4004 72.7031 12.4004 72.772C12.4004 72.8409 12.469 72.9097 12.5376 72.9097C13.4983 72.772 14.6647 73.5296 14.6647 73.5296C14.7333 73.5296 14.7333 73.5296 14.802 73.5296Z" fill="white"/>
<path d="M17.8877 73.7362C17.8877 73.7362 18.2308 73.3226 18.6425 73.3226C19.0542 73.3226 19.3287 73.7362 19.3287 73.7362L19.5345 73.5983C19.5345 73.5983 19.1915 73.0469 18.5739 73.0469C18.025 73.0469 17.6133 73.5983 17.6133 73.5983L17.8877 73.7362Z" fill="white"/>
<path d="M98.0978 163.619C98.0978 164.446 97.6861 165.203 96.9313 165.961C96.7255 166.168 96.5196 166.305 96.3138 166.443C95.6962 166.925 94.8728 167.338 93.9122 167.752C93.7063 167.821 93.5005 167.958 93.2947 168.027C92.5399 168.303 91.7851 168.578 90.8931 168.854C90.6872 168.923 90.4814 168.991 90.2755 169.06C89.5208 169.267 88.6974 169.474 87.874 169.611C87.6681 169.68 87.4623 169.68 87.2564 169.749C86.5016 169.887 85.6782 170.025 84.8549 170.162C84.649 170.162 84.4432 170.231 84.2373 170.231C83.4825 170.3 82.6591 170.438 81.8357 170.507C81.6299 170.507 81.424 170.576 81.2182 170.576C80.4634 170.644 79.64 170.713 78.8166 170.713C78.6108 170.713 78.4049 170.713 78.1991 170.713C77.4443 170.713 76.6209 170.782 75.7975 170.782C75.6603 170.782 75.523 170.782 75.3858 170.782C75.3172 170.782 75.2486 170.782 75.18 170.782C74.3566 170.782 73.6018 170.782 72.7784 170.713C72.5725 170.713 72.3667 170.713 72.1608 170.713C71.5433 170.713 70.9944 170.644 70.3768 170.644C70.171 170.644 69.9651 170.644 69.7593 170.576C69.5534 170.576 69.3476 170.576 69.1417 170.507C68.3183 170.438 67.5636 170.369 66.7402 170.231C66.5343 170.231 66.3285 170.162 66.1226 170.162C65.6423 170.093 65.162 170.025 64.6817 169.956C64.3386 169.887 64.0641 169.818 63.721 169.818C63.5152 169.749 63.3093 169.749 63.1035 169.68C62.2801 169.542 61.4567 169.336 60.7019 169.129C60.5647 169.06 60.4275 169.06 60.2902 168.991C60.2216 168.991 60.153 168.923 60.0844 168.923C59.7413 168.854 59.3982 168.716 59.1238 168.647C58.6434 168.509 58.1631 168.303 57.7514 168.165C57.5456 168.096 57.3397 168.027 57.1339 167.889C56.3105 167.545 55.6243 167.201 55.0068 166.787C54.9382 166.719 54.8009 166.65 54.7323 166.581C54.5951 166.512 54.5265 166.443 54.3892 166.374C54.252 166.305 54.1834 166.236 54.0462 166.099C53.1541 165.341 52.6738 164.515 52.6738 163.688C52.6738 163.619 52.6738 163.55 52.6738 163.481V158.66H54.0462H54.6637H57.0653H57.6828H59.5355H60.0844H60.7019H63.1035H63.721H66.1226H66.7402H69.1417H69.7593H72.1608H72.7784H75.18H75.7975H78.1991H78.8166H81.2182H81.8357H84.2373H84.8549H87.2564H87.874H90.2755H90.8931H91.0303H93.226H93.8436H96.2452H96.8627H98.0292L98.0978 163.619Z" fill="#FA8B21"/>
<path d="M54.8034 158.59V166.58C54.6661 166.511 54.5975 166.442 54.4603 166.373C54.323 166.304 54.2544 166.235 54.1172 166.098V158.59H54.8034Z" fill="#FA8B21"/>
<path d="M60.8421 158.59V168.99C60.7049 168.922 60.5677 168.922 60.4305 168.853C60.3618 168.853 60.2932 168.784 60.2246 168.784V158.521L60.8421 158.59Z" fill="#FA8B21"/>
<path d="M66.8793 158.591V170.162C66.6734 170.162 66.4676 170.093 66.2617 170.093V158.591H66.8793Z" fill="#FA8B21"/>
<path d="M72.85 158.591V170.644C72.6441 170.644 72.4383 170.644 72.2324 170.644V158.591H72.85Z" fill="#FA8B21"/>
<path d="M78.8871 158.591V170.644C78.6812 170.644 78.4754 170.644 78.2695 170.644V158.591H78.8871Z" fill="#FA8B21"/>
<path d="M84.9262 158.59V170.024C84.7203 170.024 84.5144 170.093 84.3086 170.093V158.521L84.9262 158.59Z" fill="#FA8B21"/>
<path d="M90.8949 158.591V168.853C90.689 168.922 90.4832 168.991 90.2773 169.06V158.66L90.8949 158.591Z" fill="#FA8B21"/>
<path d="M93.9125 158.591V167.751C93.7066 167.82 93.5008 167.958 93.2949 168.027V158.591H93.9125Z" fill="#FA8B21"/>
<path d="M96.934 158.521V165.891C96.7281 166.098 96.5223 166.235 96.3164 166.373V158.521H96.934Z" fill="#FA8B21"/>
<path d="M98.0992 158.59C98.0992 162.172 87.944 165.065 75.4559 165.065C73.7405 165.065 72.0937 164.996 70.4469 164.927C68.457 164.789 66.5358 164.583 64.7517 164.307C63.1736 164.032 61.7326 163.756 60.3603 163.412C59.9486 163.343 59.5369 163.205 59.1938 163.067C57.547 162.585 56.1061 162.034 55.0768 161.414C54.871 161.277 54.6651 161.139 54.5279 161.07C53.43 160.312 52.8125 159.486 52.8125 158.59C52.8125 158.522 52.8125 158.453 52.8125 158.384C53.2242 154.94 63.2422 152.185 75.4559 152.185C78.475 152.185 81.3569 152.323 83.9643 152.667C84.4446 152.736 84.9935 152.805 85.4739 152.874C87.601 153.149 89.5222 153.563 91.2376 154.045C91.5807 154.114 91.9924 154.251 92.3355 154.389C93.5706 154.802 94.6684 155.216 95.4918 155.698C96.3838 156.18 97.07 156.731 97.5503 157.213C97.8934 157.626 98.0992 158.039 98.0992 158.453C98.0992 158.453 98.0992 158.522 98.0992 158.59Z" fill="#FFCE4F"/>
<path opacity="0.3" d="M97.5503 157.144L70.5155 164.927C68.5256 164.789 66.6043 164.583 64.8203 164.307L95.4918 155.56C96.3838 156.042 97.07 156.593 97.5503 157.144Z" fill="white"/>
<path opacity="0.3" d="M85.473 152.805L55.1446 161.415C54.9388 161.277 54.7329 161.139 54.5957 161.07L84.0321 152.599C84.4438 152.668 84.9927 152.736 85.473 152.805Z" fill="white"/>
<path opacity="0.3" d="M92.3348 154.32L60.4282 163.481C60.0165 163.412 59.6048 163.274 59.2617 163.136L91.2369 153.976C91.58 154.114 91.9917 154.183 92.3348 154.32Z" fill="white"/>
<path d="M93.5692 158.591C93.5692 158.66 93.5692 158.729 93.5692 158.798C93.1575 161.553 85.198 163.688 75.4545 163.688C65.711 163.688 57.8202 161.484 57.3398 158.798C57.3398 158.729 57.3398 158.66 57.3398 158.591C57.3398 155.767 65.4366 153.425 75.4545 153.425C85.4725 153.425 93.5692 155.767 93.5692 158.591Z" fill="#FA8B21"/>
<path d="M93.5709 158.867C93.1592 161.622 85.1997 163.757 75.4562 163.757C75.2504 163.757 75.0445 163.757 74.8387 163.757C72.643 163.757 70.5845 163.619 68.6632 163.412C66.742 163.206 65.0266 162.861 63.517 162.517C63.1053 162.448 62.7622 162.31 62.4191 162.242C60.7724 161.759 59.4686 161.208 58.6453 160.52C58.4394 160.382 58.2336 160.244 58.0963 160.038C57.7532 159.693 57.4788 159.28 57.4102 158.867C57.8219 156.112 65.7813 153.908 75.5248 153.908C76.7599 153.908 77.9264 153.977 79.0929 153.977C79.7104 153.977 80.2594 154.045 80.8083 154.114C83.1413 154.321 85.2684 154.665 87.121 155.079C87.5327 155.147 87.8758 155.285 88.2875 155.354C89.7284 155.767 90.8949 156.249 91.7869 156.732C92.6789 157.214 93.2278 157.765 93.5023 158.385C93.5023 158.591 93.5023 158.729 93.5709 158.867Z" fill="#FA8B21"/>
<path opacity="0.2" d="M93.4326 158.453L74.8376 163.756C72.6419 163.756 70.5834 163.618 68.6621 163.412L91.7172 156.869C92.6092 157.351 93.1581 157.902 93.4326 158.453Z" fill="white"/>
<path opacity="0.2" d="M80.8079 154.183L58.5763 160.519C58.3704 160.381 58.1646 160.244 58.0273 160.037L79.0239 154.045C79.6415 154.045 80.259 154.114 80.8079 154.183Z" fill="white"/>
<path opacity="0.2" d="M88.2177 155.422L63.5158 162.448C63.1041 162.379 62.7611 162.241 62.418 162.172L87.1198 155.147C87.4629 155.216 87.8746 155.354 88.2177 155.422Z" fill="white"/>
<path d="M77.9934 161.552V162.379H74.1509V161.552C71.4749 161.483 68.7989 161.277 67.2207 161.001L69.2792 159.693C71.0632 159.968 73.4648 160.175 75.5233 160.175C77.3073 160.175 77.9934 160.037 77.9934 159.899C77.9934 159.211 67.4952 159.762 67.4952 157.764C67.4952 156.869 69.6909 156.18 74.1509 155.973V155.147H77.9934V155.973C79.9833 156.042 81.9732 156.18 83.4827 156.456L81.5615 157.764C79.7088 157.489 77.9248 157.351 76.278 157.351C74.4254 157.351 73.8079 157.489 73.8079 157.695C73.8079 158.315 84.3061 157.833 84.3061 159.83C84.3061 160.588 82.179 161.346 77.9934 161.552Z" fill="#FA8B21"/>
<path d="M77.8567 161.277V162.103H74.0142V161.277C71.3382 161.208 68.6622 161.001 67.084 160.726L69.1425 159.417C70.9265 159.693 73.3281 159.899 75.3865 159.899C77.1706 159.899 77.8567 159.762 77.8567 159.624C77.8567 158.935 67.3584 159.486 67.3584 157.489C67.3584 156.593 69.5542 155.905 74.0142 155.698V154.872H77.8567V155.698C79.8466 155.767 81.8365 155.905 83.346 156.18L81.4248 157.489C79.5721 157.213 77.7881 157.076 76.1413 157.076C74.2887 157.076 73.6711 157.213 73.6711 157.42C73.6711 158.04 84.1694 157.558 84.1694 159.555C84.1694 160.313 82.0423 161.07 77.8567 161.277Z" fill="#FFCE4F"/>
<path d="M98.0978 156.525C98.0978 157.351 97.6861 158.109 96.9313 158.867C96.7255 159.073 96.5196 159.211 96.3138 159.349C95.6962 159.831 94.8728 160.244 93.9122 160.657C93.7063 160.726 93.5005 160.864 93.2947 160.933C92.5399 161.208 91.7851 161.484 90.8931 161.759C90.6872 161.828 90.4814 161.897 90.2755 161.966C89.5208 162.173 88.6974 162.379 87.874 162.517C87.6681 162.586 87.4623 162.586 87.2564 162.655C86.5016 162.793 85.6782 162.93 84.8549 163.068C84.649 163.068 84.4432 163.137 84.2373 163.137C83.4825 163.206 82.6591 163.344 81.8357 163.412C81.6299 163.412 81.424 163.481 81.2182 163.481C80.4634 163.55 79.64 163.619 78.8166 163.619C78.6108 163.619 78.4049 163.619 78.1991 163.619C77.4443 163.619 76.6209 163.688 75.7975 163.688C75.6603 163.688 75.523 163.688 75.3858 163.688C75.3172 163.688 75.2486 163.688 75.18 163.688C74.3566 163.688 73.6018 163.688 72.7784 163.619C72.5725 163.619 72.3667 163.619 72.1608 163.619C71.5433 163.619 70.9944 163.55 70.3768 163.55C70.171 163.55 69.9651 163.55 69.7593 163.481C69.5534 163.481 69.3476 163.481 69.1417 163.412C68.3183 163.344 67.5636 163.275 66.7402 163.137C66.5343 163.137 66.3285 163.068 66.1226 163.068C65.6423 162.999 65.162 162.93 64.6817 162.861C64.3386 162.793 64.0641 162.724 63.721 162.724C63.5152 162.655 63.3093 162.655 63.1035 162.586C62.2801 162.448 61.4567 162.242 60.7019 162.035C60.5647 161.966 60.4275 161.966 60.2902 161.897C60.2216 161.897 60.153 161.828 60.0844 161.828C59.7413 161.759 59.3982 161.622 59.1238 161.553C58.6434 161.415 58.1631 161.208 57.7514 161.071C57.5456 161.002 57.3397 160.933 57.1339 160.795C56.3105 160.451 55.6243 160.106 55.0068 159.693C54.9382 159.624 54.8009 159.555 54.7323 159.487C54.5951 159.418 54.5265 159.349 54.3892 159.28C54.252 159.211 54.1834 159.142 54.0462 159.004C53.1541 158.247 52.6738 157.42 52.6738 156.594C52.6738 156.525 52.6738 156.456 52.6738 156.387V151.566H54.0462H54.6637H57.0653H57.6828H59.5355H60.0844H60.7019H63.1035H63.721H66.1226H66.7402H69.1417H69.7593H72.1608H72.7784H75.18H75.7975H78.1991H78.8166H81.2182H81.8357H84.2373H84.8549H87.2564H87.874H90.2755H90.8931H91.0303H93.226H93.8436H96.2452H96.8627H98.0292L98.0978 156.525Z" fill="#FA8B21"/>
<path d="M54.8034 151.565V159.486C54.6661 159.417 54.5975 159.348 54.4603 159.279C54.323 159.211 54.2544 159.142 54.1172 159.004V151.497L54.8034 151.565Z" fill="#FA8B21"/>
<path d="M60.8402 151.497V161.897C60.703 161.828 60.5657 161.828 60.4285 161.759C60.3599 161.759 60.2913 161.691 60.2227 161.691V151.428L60.8402 151.497Z" fill="#FA8B21"/>
<path d="M66.8773 151.497V163.068C66.6715 163.068 66.4656 162.999 66.2598 162.999V151.497H66.8773Z" fill="#FA8B21"/>
<path d="M72.848 151.497V163.55C72.6422 163.55 72.4363 163.55 72.2305 163.55V151.497H72.848Z" fill="#FA8B21"/>
<path d="M78.8851 151.497V163.55C78.6793 163.55 78.4734 163.55 78.2676 163.55V151.497H78.8851Z" fill="#FA8B21"/>
<path d="M84.9262 151.497V162.999C84.7203 162.999 84.5144 163.068 84.3086 163.068V151.497H84.9262Z" fill="#FA8B21"/>
<path d="M90.8949 151.497V161.759C90.689 161.828 90.4832 161.897 90.2773 161.966V151.566L90.8949 151.497Z" fill="#FA8B21"/>
<path d="M93.9125 151.497V160.657C93.7066 160.726 93.5008 160.864 93.2949 160.933V151.497H93.9125Z" fill="#FA8B21"/>
<path d="M96.934 151.497V158.867C96.7281 159.073 96.5223 159.211 96.3164 159.349V151.497H96.934Z" fill="#FA8B21"/>
<path d="M98.0992 151.566C98.0992 155.148 87.944 158.04 75.4559 158.04C73.7405 158.04 72.0937 157.971 70.4469 157.903C68.457 157.765 66.5358 157.558 64.7517 157.283C63.1736 157.076 61.7326 156.732 60.3603 156.387C59.9486 156.318 59.5369 156.181 59.1938 156.043C57.547 155.561 56.1061 155.01 55.0768 154.39C54.871 154.252 54.6651 154.114 54.5279 154.046C53.43 153.288 52.8125 152.461 52.8125 151.566C52.8125 151.497 52.8125 151.428 52.8125 151.359C53.2242 147.916 63.2422 145.161 75.4559 145.161C78.475 145.161 81.3569 145.298 83.9643 145.643C84.4446 145.712 84.9935 145.781 85.4739 145.849C87.601 146.125 89.5222 146.538 91.2376 147.02C91.5807 147.089 91.9924 147.227 92.3355 147.365C93.5706 147.778 94.6684 148.191 95.4918 148.673C96.3838 149.155 97.07 149.706 97.5503 150.189C97.8934 150.602 98.0992 151.015 98.0992 151.428C98.0992 151.359 98.0992 151.428 98.0992 151.566Z" fill="#FFCE4F"/>
<path opacity="0.3" d="M97.5503 150.05L70.5155 157.833C68.5256 157.696 66.6043 157.489 64.8203 157.213L95.4918 148.466C96.3838 149.017 97.07 149.499 97.5503 150.05Z" fill="white"/>
<path opacity="0.3" d="M85.473 145.712L55.1446 154.321C54.9388 154.184 54.7329 154.046 54.5957 153.977L84.0321 145.505C84.4438 145.574 84.9927 145.643 85.473 145.712Z" fill="white"/>
<path opacity="0.3" d="M92.3348 147.227L60.4282 156.388C60.0165 156.319 59.6048 156.181 59.2617 156.043L91.2369 146.883C91.58 147.021 91.9917 147.089 92.3348 147.227Z" fill="white"/>
<path d="M93.5692 151.567C93.5692 151.635 93.5692 151.704 93.5692 151.773C93.1575 154.528 85.198 156.663 75.4545 156.663C65.711 156.663 57.8202 154.459 57.3398 151.773C57.3398 151.704 57.3398 151.635 57.3398 151.567C57.3398 148.743 65.4366 146.401 75.4545 146.401C85.4725 146.401 93.5692 148.674 93.5692 151.567Z" fill="#FA8B21"/>
<path d="M93.5709 151.773C93.1592 154.528 85.1997 156.664 75.4562 156.664C75.2504 156.664 75.0445 156.664 74.8387 156.664C72.643 156.664 70.5845 156.526 68.6632 156.319C66.742 156.113 65.0266 155.768 63.517 155.424C63.1053 155.355 62.7622 155.217 62.4191 155.148C60.7724 154.666 59.4686 154.115 58.6453 153.426C58.4394 153.289 58.2336 153.151 58.0963 152.944C57.7532 152.6 57.4788 152.187 57.4102 151.773C57.8219 149.018 65.7813 146.814 75.5248 146.814C76.7599 146.814 77.9264 146.883 79.0929 146.883C79.7104 146.883 80.2594 146.952 80.8083 147.021C83.1413 147.228 85.2684 147.572 87.121 147.985C87.5327 148.054 87.8758 148.192 88.2875 148.261C89.7284 148.674 90.8949 149.156 91.7869 149.638C92.6789 150.12 93.2278 150.671 93.5023 151.291C93.5023 151.498 93.5023 151.636 93.5709 151.773Z" fill="#FA8B21"/>
<path opacity="0.2" d="M93.4326 151.36L74.8376 156.663C72.6419 156.663 70.5834 156.525 68.6621 156.319L91.7172 149.775C92.6092 150.258 93.1581 150.809 93.4326 151.36Z" fill="white"/>
<path opacity="0.2" d="M80.8079 147.089L58.5763 153.426C58.3704 153.288 58.1646 153.15 58.0273 152.944L79.0239 146.952C79.6415 146.952 80.259 147.021 80.8079 147.089Z" fill="white"/>
<path opacity="0.2" d="M88.2177 148.329L63.5158 155.354C63.1041 155.285 62.7611 155.147 62.418 155.078L87.1198 148.053C87.4629 148.122 87.8746 148.26 88.2177 148.329Z" fill="white"/>
<path d="M77.9934 154.459V155.285H74.1509V154.459C71.4749 154.39 68.7989 154.183 67.2207 153.908L69.2792 152.599C71.0632 152.874 73.4648 153.081 75.5233 153.081C77.3073 153.081 77.9934 152.943 77.9934 152.806C77.9934 152.117 67.4952 152.668 67.4952 150.67C67.4952 149.775 69.6909 149.086 74.1509 148.88V148.053H77.9934V148.88C79.9833 148.949 81.9732 149.086 83.4827 149.362L81.5615 150.67C79.7088 150.395 77.9248 150.257 76.278 150.257C74.4254 150.257 73.8079 150.395 73.8079 150.602C73.8079 151.221 84.3061 150.739 84.3061 152.737C84.3061 153.494 82.179 154.252 77.9934 154.459Z" fill="#FA8B21"/>
<path d="M77.8567 154.184V155.01H74.0142V154.184C71.3382 154.115 68.6622 153.908 67.084 153.633L69.1425 152.324C70.9265 152.6 73.3281 152.806 75.3865 152.806C77.1706 152.806 77.8567 152.668 77.8567 152.531C77.8567 151.842 67.3584 152.393 67.3584 150.396C67.3584 149.5 69.5542 148.811 74.0142 148.605V147.778H77.8567V148.605C79.8466 148.674 81.8365 148.811 83.346 149.087L81.4248 150.396C79.5721 150.12 77.7881 149.982 76.1413 149.982C74.2887 149.982 73.6711 150.12 73.6711 150.327C73.6711 150.947 84.1694 150.464 84.1694 152.462C84.1694 153.219 82.0423 153.977 77.8567 154.184Z" fill="#FFCE4F"/>
<path d="M98.5822 148.673C98.5822 148.742 98.5822 148.742 98.5822 148.673C98.5822 149.499 98.1705 150.257 97.4157 151.015C97.2099 151.221 97.004 151.359 96.7982 151.497C96.1806 151.979 95.3572 152.392 94.3966 152.805C94.1907 152.874 93.9849 153.012 93.779 153.081C93.0243 153.356 92.2695 153.632 91.3775 153.907C91.1716 153.976 90.9658 154.045 90.7599 154.114C90.0051 154.321 89.1818 154.527 88.3584 154.665C88.1525 154.734 87.9467 154.734 87.7408 154.803C86.986 154.94 86.1626 155.078 85.3392 155.216C85.1334 155.216 84.9275 155.285 84.7217 155.285C83.9669 155.354 83.1435 155.491 82.3201 155.56C82.1143 155.56 81.9084 155.629 81.7026 155.629C80.9478 155.698 80.1244 155.767 79.301 155.767C79.0952 155.767 78.8893 155.767 78.6835 155.767C77.9287 155.767 77.1053 155.836 76.2819 155.836C76.1447 155.836 76.0074 155.836 75.8702 155.836C75.8016 155.836 75.733 155.836 75.6643 155.836C74.8409 155.836 74.0862 155.836 73.2628 155.767C73.0569 155.767 72.8511 155.767 72.6452 155.767C72.0277 155.767 71.4788 155.698 70.8612 155.698C70.6554 155.698 70.4495 155.698 70.2437 155.629C70.0378 155.629 69.832 155.629 69.6261 155.56C68.8027 155.491 68.0479 155.423 67.2245 155.285C67.0187 155.285 66.8128 155.216 66.607 155.216C66.1267 155.147 65.6464 155.078 65.1661 155.009C64.823 154.94 64.5485 154.872 64.2054 154.872C63.9996 154.803 63.7937 154.803 63.5879 154.734C62.7645 154.596 61.9411 154.389 61.1863 154.183C61.0491 154.114 60.9118 154.114 60.7746 154.045C60.706 154.045 60.6374 153.976 60.5688 153.976C60.2257 153.907 59.8826 153.77 59.6081 153.701C59.1278 153.563 58.6475 153.356 58.2358 153.219C58.03 153.15 57.8241 153.081 57.6183 152.943C56.7949 152.599 56.1087 152.254 55.4912 151.841C55.4225 151.772 55.2853 151.703 55.2167 151.634C55.0795 151.566 55.0108 151.497 54.8736 151.428C54.7364 151.359 54.6678 151.29 54.5305 151.152C53.6385 150.395 53.1582 149.568 53.1582 148.742C53.1582 148.673 53.1582 148.604 53.1582 148.535V143.714H54.5305H55.1481H57.5496H58.1672H60.0198H60.5688H61.1863H63.5879H64.2054H66.607H67.2245H69.6261H70.2437H72.6452H73.2628H75.6643H76.2819H78.6835H79.301H81.7026H82.3201H84.7217H85.3392H87.7408H88.3584H90.7599H91.3775H91.5147H93.7104H94.328H96.7295H97.3471H98.5136L98.5822 148.673Z" fill="#FA8B21"/>
<path d="M55.2858 143.713V151.634C55.1485 151.565 55.0799 151.496 54.9427 151.427C54.8055 151.358 54.7368 151.289 54.5996 151.151V143.644L55.2858 143.713Z" fill="#FA8B21"/>
<path d="M61.3226 143.712V154.113C61.1854 154.044 61.0482 154.044 60.9109 153.975C60.8423 153.975 60.7737 153.906 60.7051 153.906V143.644L61.3226 143.712Z" fill="#FA8B21"/>
<path d="M67.2933 143.713V155.284C67.0875 155.284 66.8816 155.215 66.6758 155.215V143.713H67.2933Z" fill="#FA8B21"/>
<path d="M73.3324 143.713V155.766C73.1265 155.766 72.9207 155.766 72.7148 155.766V143.713H73.3324Z" fill="#FA8B21"/>
<path d="M79.3695 143.713V155.766C79.1636 155.766 78.9578 155.766 78.752 155.766V143.713H79.3695Z" fill="#FA8B21"/>
<path d="M85.3383 143.713V155.215C85.1324 155.215 84.9266 155.284 84.7207 155.284V143.713H85.3383Z" fill="#FA8B21"/>
<path d="M91.3773 143.644V153.906C91.1715 153.975 90.9656 154.044 90.7598 154.113V143.712L91.3773 143.644Z" fill="#FA8B21"/>
<path d="M94.3968 143.644V152.804C94.191 152.873 93.9851 153.011 93.7793 153.079V143.644H94.3968Z" fill="#FA8B21"/>
<path d="M97.348 143.644V151.013C97.1422 151.22 96.9363 151.358 96.7305 151.495V143.644H97.348Z" fill="#FA8B21"/>
<path d="M98.5817 143.713C98.5817 147.294 88.4265 150.187 75.9383 150.187C74.2229 150.187 72.5761 150.118 70.9293 150.049C68.9394 149.912 67.0182 149.705 65.2342 149.43C63.656 149.223 62.215 148.879 60.8427 148.534C60.431 148.465 60.0193 148.328 59.6762 148.19C58.0294 147.708 56.5885 147.157 55.5593 146.537C55.3534 146.399 55.1476 146.261 55.0103 146.192C53.9125 145.435 53.2949 144.608 53.2949 143.713C53.2949 143.644 53.2949 143.575 53.2949 143.506C53.7066 140.063 63.7246 137.308 75.9383 137.308C78.9574 137.308 81.8393 137.445 84.4467 137.79C84.927 137.859 85.476 137.927 85.9563 137.996C88.0834 138.272 90.0046 138.685 91.72 139.167C92.0631 139.236 92.4748 139.374 92.8179 139.512C94.053 139.925 95.1508 140.338 95.9742 140.82C96.8663 141.302 97.5524 141.853 98.0327 142.335C98.3758 142.749 98.5817 143.162 98.5817 143.575C98.5817 143.575 98.5817 143.644 98.5817 143.713Z" fill="#FFCE4F"/>
<path opacity="0.3" d="M97.9643 142.266L70.9295 150.049C68.9397 149.911 67.0184 149.705 65.2344 149.429L95.9058 140.682C96.7979 141.164 97.5526 141.715 97.9643 142.266Z" fill="white"/>
<path opacity="0.3" d="M85.8871 137.927L55.5587 146.536C55.3528 146.398 55.147 146.261 55.0098 146.192L84.4461 137.72C84.9265 137.789 85.4068 137.858 85.8871 137.927Z" fill="white"/>
<path opacity="0.3" d="M92.7488 139.442L60.8423 148.602C60.4306 148.534 60.0189 148.396 59.6758 148.258L91.651 139.098C92.0627 139.167 92.4057 139.304 92.7488 139.442Z" fill="white"/>
<path d="M93.9833 143.712C93.9833 143.781 93.9833 143.85 93.9833 143.919C93.5716 146.674 85.6121 148.809 75.8686 148.809C66.1251 148.809 58.2342 146.605 57.7539 143.919C57.7539 143.85 57.7539 143.781 57.7539 143.712C57.7539 140.888 65.8506 138.546 75.8686 138.546C85.8866 138.546 93.9833 140.888 93.9833 143.712Z" fill="#FA8B21"/>
<path d="M93.983 143.988C93.5714 146.743 85.6119 148.878 75.8683 148.878C75.6625 148.878 75.4566 148.878 75.2508 148.878C73.0551 148.878 70.9966 148.74 69.0753 148.534C67.1541 148.327 65.4387 147.983 63.9291 147.638C63.5174 147.569 63.1743 147.432 62.8313 147.363C61.1845 146.881 59.8808 146.33 59.0574 145.641C58.8515 145.503 58.6457 145.365 58.5084 145.159C58.1653 144.814 57.8909 144.401 57.8223 143.988C58.234 141.233 66.1934 139.029 75.937 139.029C77.1721 139.029 78.3385 139.098 79.505 139.098C80.1226 139.098 80.6715 139.167 81.2204 139.235C83.5534 139.442 85.6805 139.786 87.5331 140.2C87.9448 140.269 88.2879 140.406 88.6996 140.475C90.1405 140.888 91.307 141.371 92.199 141.853C93.091 142.335 93.64 142.886 93.9144 143.506C93.9144 143.712 93.983 143.85 93.983 143.988Z" fill="#FA8B21"/>
<path opacity="0.2" d="M93.915 143.574L75.32 148.878C73.1243 148.878 71.0658 148.74 69.1445 148.533L92.1996 141.99C93.023 142.472 93.6405 143.023 93.915 143.574Z" fill="white"/>
<path opacity="0.2" d="M81.222 139.235L58.9903 145.572C58.7845 145.434 58.5786 145.296 58.4414 145.09L79.438 139.098C80.1241 139.167 80.6731 139.235 81.222 139.235Z" fill="white"/>
<path opacity="0.2" d="M88.7001 140.545L63.9983 147.57C63.5866 147.501 63.2435 147.363 62.9004 147.294L87.6022 140.269C87.9453 140.338 88.2884 140.476 88.7001 140.545Z" fill="white"/>
<path d="M78.4075 146.674V147.501H74.565V146.674C71.889 146.606 69.2129 146.399 67.6348 146.123L69.6933 144.815C71.4773 145.09 73.8788 145.297 75.9373 145.297C77.7214 145.297 78.4075 145.159 78.4075 145.021C78.4075 144.333 67.9092 144.884 67.9092 142.886C67.9092 141.991 70.1049 141.302 74.565 141.096V140.269H78.4075V141.096C80.3974 141.164 82.3873 141.302 83.8968 141.578L81.9756 142.886C80.1229 142.611 78.3389 142.473 76.6921 142.473C74.8395 142.473 74.2219 142.611 74.2219 142.817C74.2219 143.437 84.7202 142.955 84.7202 144.953C84.7202 145.71 82.5931 146.468 78.4075 146.674Z" fill="#FA8B21"/>
<path d="M78.3372 146.399V147.225H74.4947V146.399C71.8187 146.33 69.1426 146.123 67.5645 145.848L69.6229 144.539C71.407 144.814 73.8085 145.021 75.867 145.021C77.651 145.021 78.3372 144.883 78.3372 144.746C78.3372 144.057 67.8389 144.608 67.8389 142.61C67.8389 141.715 70.0346 141.026 74.4947 140.82V139.993H78.3372V140.82C80.3271 140.889 82.3169 141.026 83.8265 141.302L81.9052 142.61C80.0526 142.335 78.2686 142.197 76.6218 142.197C74.7692 142.197 74.1516 142.335 74.1516 142.542C74.1516 143.161 84.6499 142.679 84.6499 144.677C84.6499 145.434 82.5228 146.192 78.3372 146.399Z" fill="#FFCE4F"/>
<path d="M97.758 141.165C97.758 141.991 97.3463 142.749 96.5915 143.506C96.3856 143.713 96.1798 143.851 95.9739 143.988C95.3564 144.471 94.533 144.884 93.5724 145.297C93.3665 145.366 93.1607 145.504 92.9548 145.573C92.2 145.848 91.4453 146.124 90.5532 146.399C90.3474 146.468 90.1416 146.537 89.9357 146.606C89.1809 146.812 88.3575 147.019 87.5341 147.157C87.3283 147.226 87.1224 147.226 86.9166 147.294C86.1618 147.432 85.3384 147.57 84.515 147.708C84.3092 147.708 84.1033 147.777 83.8975 147.777C83.1427 147.845 82.3193 147.983 81.4959 148.052C81.2901 148.052 81.0842 148.121 80.8783 148.121C80.1236 148.19 79.3002 148.259 78.4768 148.259C78.2709 148.259 78.0651 148.259 77.8592 148.259C77.1045 148.259 76.2811 148.328 75.4577 148.328C75.3204 148.328 75.1832 148.328 75.046 148.328C74.9774 148.328 74.9087 148.328 74.8401 148.328C74.0167 148.328 73.2619 148.328 72.4386 148.259C72.2327 148.259 72.0269 148.259 71.821 148.259C71.2035 148.259 70.6545 148.19 70.037 148.19C69.8311 148.19 69.6253 148.19 69.4194 148.121C69.2136 148.121 69.0077 148.121 68.8019 148.052C67.9785 147.983 67.2237 147.914 66.4003 147.777C66.1945 147.777 65.9886 147.708 65.7828 147.708C65.3025 147.639 64.8221 147.57 64.3418 147.501C63.9988 147.432 63.7243 147.363 63.3812 147.363C63.1754 147.294 62.9695 147.294 62.7637 147.226C61.9403 147.088 61.1169 146.881 60.3621 146.675C60.2249 146.606 60.0876 146.606 59.9504 146.537C59.8818 146.537 59.8132 146.468 59.7445 146.468C59.4015 146.399 59.0584 146.261 58.7839 146.192C58.3036 146.055 57.8233 145.848 57.4116 145.71C57.2057 145.641 56.9999 145.573 56.794 145.435C55.9706 145.09 55.2845 144.746 54.6669 144.333C54.5983 144.264 54.4611 144.195 54.3925 144.126C54.2552 144.057 54.1866 143.988 54.0494 143.92C53.9122 143.851 53.8435 143.782 53.7063 143.644C52.8143 142.886 52.334 142.06 52.334 141.233C52.334 141.165 52.334 141.096 52.334 141.027V136.206H53.7063H54.3239H56.7254H57.343H59.1956H59.7445H60.3621H62.7637H63.3812H65.7828H66.4003H68.8019H69.4194H71.821H72.4386H74.8401H75.4577H77.8592H78.4768H80.8783H81.4959H83.8975H84.515H86.9166H87.5341H89.9357H90.5532H90.6905H92.8862H93.5037H95.9053H96.5229H97.6893L97.758 141.165Z" fill="#FA8B21"/>
<path d="M54.4616 136.206V144.126C54.3243 144.057 54.2557 143.988 54.1185 143.92C53.9812 143.851 53.9126 143.782 53.7754 143.644V136.137L54.4616 136.206Z" fill="#FA8B21"/>
<path d="M60.4301 136.137V146.606C60.2928 146.537 60.1556 146.537 60.0184 146.468C59.9497 146.468 59.8811 146.399 59.8125 146.399V136.137H60.4301Z" fill="#FA8B21"/>
<path d="M66.4691 136.137V147.708C66.2633 147.708 66.0574 147.639 65.8516 147.639V136.137H66.4691Z" fill="#FA8B21"/>
<path d="M72.5062 136.137V148.19C72.3004 148.19 72.0945 148.19 71.8887 148.19V136.137H72.5062Z" fill="#FA8B21"/>
<path d="M78.4769 136.137V148.19C78.2711 148.19 78.0652 148.19 77.8594 148.19V136.137H78.4769Z" fill="#FA8B21"/>
<path d="M84.514 136.137V147.639C84.3082 147.639 84.1023 147.708 83.8965 147.708V136.137H84.514Z" fill="#FA8B21"/>
<path d="M90.5531 136.137V146.399C90.3472 146.468 90.1414 146.537 89.9355 146.606V136.206L90.5531 136.137Z" fill="#FA8B21"/>
<path d="M96.5218 136.137V143.506C96.316 143.713 96.1101 143.851 95.9043 143.988V136.137H96.5218Z" fill="#FA8B21"/>
<path d="M97.7594 136.206C97.7594 139.788 87.6042 142.68 75.116 142.68C73.4006 142.68 71.7538 142.612 70.107 142.543C68.1172 142.405 66.1959 142.198 64.4119 141.923C62.8337 141.647 61.3928 141.372 60.0204 141.027C59.6087 140.959 59.1971 140.821 58.854 140.683C57.2072 140.201 55.7662 139.65 54.737 139.03C54.5311 138.892 54.3253 138.755 54.1881 138.686C53.0902 137.928 52.4727 137.102 52.4727 136.206C52.4727 136.137 52.4727 136.068 52.4727 136C52.8844 132.556 62.9023 129.801 75.116 129.801C78.1351 129.801 81.017 129.939 83.6244 130.283C84.1047 130.352 84.6537 130.421 85.134 130.49C87.2611 130.765 89.1824 131.178 90.8978 131.66C91.2408 131.729 91.6525 131.867 91.9956 132.005C93.2307 132.418 94.3286 132.831 95.152 133.313C96.044 133.796 96.7301 134.347 97.2105 134.829C97.5535 135.242 97.7594 135.655 97.7594 136.068C97.7594 136 97.7594 136.068 97.7594 136.206Z" fill="#FFCE4F"/>
<path opacity="0.3" d="M97.1421 134.691L70.1073 142.474C68.1174 142.336 66.1961 142.13 64.4121 141.854L95.0836 133.107C95.9756 133.658 96.6618 134.14 97.1421 134.691Z" fill="white"/>
<path opacity="0.3" d="M85.0629 130.353L54.7345 139.031C54.5286 138.893 54.3228 138.755 54.1855 138.686L83.6219 130.215C84.1022 130.284 84.5825 130.284 85.0629 130.353Z" fill="white"/>
<path opacity="0.3" d="M91.9265 131.868L60.02 141.028C59.6083 140.959 59.1966 140.822 58.8535 140.684L90.8287 131.523C91.2404 131.661 91.5835 131.73 91.9265 131.868Z" fill="white"/>
<path d="M93.1591 136.207C93.1591 136.276 93.1591 136.344 93.1591 136.413C92.7474 139.168 84.7879 141.303 75.0444 141.303C65.3695 141.303 57.41 139.099 56.9297 136.413C56.9297 136.344 56.9297 136.276 56.9297 136.207C56.9297 133.383 65.0264 131.041 75.0444 131.041C85.0624 131.041 93.1591 133.314 93.1591 136.207Z" fill="#FA8B21"/>
<path d="M93.1588 136.413C92.7471 139.168 84.7876 141.303 75.0441 141.303C74.8383 141.303 74.6324 141.303 74.4266 141.303C72.2309 141.303 70.1724 141.165 68.2511 140.959C66.3299 140.752 64.6145 140.408 63.1049 140.063C62.6932 139.995 62.3501 139.857 62.007 139.788C60.3602 139.306 59.0565 138.755 58.2331 138.066C58.0273 137.928 57.8214 137.791 57.6842 137.584C57.3411 137.24 57.0667 136.826 56.998 136.413C57.4097 133.658 65.3692 131.454 75.1127 131.454C76.3478 131.454 77.5143 131.523 78.6808 131.523C79.2983 131.523 79.8473 131.592 80.3962 131.661C82.7291 131.867 84.8563 132.212 86.7089 132.625C87.1206 132.694 87.4637 132.832 87.8754 132.9C89.3163 133.314 90.4828 133.796 91.3748 134.278C92.2668 134.76 92.8157 135.311 93.0902 135.931C93.0902 136.138 93.1588 136.275 93.1588 136.413Z" fill="#FA8B21"/>
<path opacity="0.2" d="M93.0244 136L74.4294 141.303C72.2336 141.303 70.1752 141.165 68.2539 140.959L91.309 134.416C92.201 134.898 92.8185 135.449 93.0244 136Z" fill="white"/>
<path opacity="0.2" d="M80.3997 131.729L58.1681 138.066C57.9622 137.928 57.7564 137.79 57.6191 137.583L78.6157 131.591C79.2333 131.591 79.8508 131.66 80.3997 131.729Z" fill="white"/>
<path opacity="0.2" d="M87.8759 132.969L63.174 139.995C62.7623 139.926 62.4193 139.788 62.0762 139.719L86.778 132.694C87.1211 132.763 87.4642 132.9 87.8759 132.969Z" fill="white"/>
<path d="M77.5833 139.099V139.926H73.7408V139.099C71.0648 139.03 68.3887 138.824 66.8105 138.548L68.869 137.24C70.6531 137.515 73.0546 137.722 75.1131 137.722C76.8971 137.722 77.5833 137.584 77.5833 137.446C77.5833 136.757 67.085 137.308 67.085 135.311C67.085 134.416 69.2807 133.727 73.7408 133.52V132.694H77.5833V133.52C79.5732 133.589 81.563 133.727 83.0726 134.002L81.1513 135.311C79.2987 135.036 77.5147 134.898 75.8679 134.898C74.0152 134.898 73.3977 135.036 73.3977 135.242C73.3977 135.862 83.896 135.38 83.896 137.377C83.896 138.204 81.7689 138.893 77.5833 139.099Z" fill="#FA8B21"/>
<path d="M77.5149 138.823V139.65H73.6724V138.823C70.9964 138.754 68.3204 138.548 66.7422 138.272L68.8007 136.964C70.5847 137.239 72.9863 137.446 75.0448 137.446C76.8288 137.446 77.5149 137.308 77.5149 137.17C77.5149 136.482 67.0166 137.033 67.0166 135.035C67.0166 134.14 69.2124 133.451 73.6724 133.244V132.418H77.5149V133.244C79.5048 133.313 81.4947 133.451 83.0042 133.727L81.083 135.035C79.2304 134.76 77.4463 134.622 75.7995 134.622C73.9469 134.622 73.3294 134.76 73.3294 134.966C73.3294 135.586 83.8276 135.104 83.8276 137.101C83.8276 137.859 81.7005 138.617 77.5149 138.823Z" fill="#FFCE4F"/>
<path d="M98.6505 133.796C98.6505 133.865 98.6505 133.865 98.6505 133.796C98.6505 134.622 98.2388 135.38 97.4841 136.138C97.2782 136.344 97.0724 136.482 96.8665 136.62C96.249 137.102 95.4256 137.515 94.4649 137.928C94.2591 137.997 94.0533 138.135 93.8474 138.204C93.0926 138.479 92.3378 138.755 91.4458 139.03C91.24 139.099 91.0341 139.168 90.8283 139.237C90.0735 139.444 89.2501 139.65 88.4267 139.788C88.2209 139.857 88.015 139.857 87.8092 139.926C87.0544 140.064 86.231 140.201 85.4076 140.339C85.2018 140.339 84.9959 140.408 84.7901 140.408C84.0353 140.477 83.2119 140.615 82.3885 140.683C82.1826 140.683 81.9768 140.752 81.7709 140.752C81.0162 140.821 80.1928 140.89 79.3694 140.89C79.1635 140.89 78.9577 140.89 78.7518 140.89C77.997 140.89 77.1736 140.959 76.3503 140.959C76.213 140.959 76.0758 140.959 75.9386 140.959C75.8699 140.959 75.8013 140.959 75.7327 140.959C74.9093 140.959 74.1545 140.959 73.3311 140.89C73.1253 140.89 72.9194 140.89 72.7136 140.89C72.096 140.89 71.5471 140.821 70.9296 140.821C70.7237 140.821 70.5179 140.821 70.312 140.752C70.1062 140.752 69.9003 140.752 69.6945 140.683C68.8711 140.615 68.1163 140.546 67.2929 140.408C67.0871 140.408 66.8812 140.339 66.6754 140.339C66.195 140.27 65.7147 140.201 65.2344 140.132C64.8913 140.064 64.6169 139.995 64.2738 139.995C64.0679 139.926 63.8621 139.926 63.6562 139.857C62.8328 139.719 62.0094 139.513 61.2547 139.306C61.1174 139.237 60.9802 139.237 60.843 139.168C60.7744 139.168 60.7057 139.099 60.6371 139.099C60.294 139.03 59.951 138.893 59.6765 138.824C59.1962 138.686 58.7159 138.479 58.3042 138.342C58.0983 138.273 57.8925 138.204 57.6866 138.066C56.8632 137.722 56.1771 137.377 55.5595 136.964C55.4909 136.895 55.3537 136.826 55.2851 136.758C55.1478 136.689 55.0792 136.62 54.942 136.551C54.8047 136.482 54.7361 136.413 54.5989 136.275C53.7069 135.518 53.2266 134.691 53.2266 133.865C53.2266 133.796 53.2266 133.727 53.2266 133.658V128.837H54.5989H55.2164H57.618H58.2356H60.0882H60.6371H61.2547H63.6562H64.2738H66.6754H67.2929H69.6945H70.312H72.7136H73.3311H75.7327H76.3503H78.7518H79.3694H81.7709H82.3885H84.7901H85.4076H87.8092H88.4267H90.8283H91.4458H91.5831H93.7788H94.3963H96.7979H97.4155H98.5819L98.6505 133.796Z" fill="#FA8B21"/>
<path d="M55.3541 128.837V136.758C55.2169 136.689 55.1483 136.62 55.011 136.551C54.8738 136.482 54.8052 136.413 54.668 136.275V128.768L55.3541 128.837Z" fill="#FA8B21"/>
<path d="M61.3929 128.837V139.238C61.2557 139.169 61.1185 139.169 60.9812 139.1C60.9126 139.1 60.844 139.031 60.7754 139.031V128.769L61.3929 128.837Z" fill="#FA8B21"/>
<path d="M67.432 128.837V140.408C67.2261 140.408 67.0203 140.34 66.8145 140.34V128.837H67.432Z" fill="#FA8B21"/>
<path d="M73.4027 128.837V140.891C73.1968 140.891 72.991 140.891 72.7852 140.891V128.837H73.4027Z" fill="#FA8B21"/>
<path d="M79.4398 128.837V140.891C79.234 140.891 79.0281 140.891 78.8223 140.891V128.837H79.4398Z" fill="#FA8B21"/>
<path d="M85.4086 128.769V140.271C85.2027 140.271 84.9969 140.34 84.791 140.34V128.769H85.4086Z" fill="#FA8B21"/>
<path d="M91.4476 128.769V139.031C91.2418 139.1 91.0359 139.169 90.8301 139.238V128.837L91.4476 128.769Z" fill="#FA8B21"/>
<path d="M97.4847 128.769V136.138C97.2789 136.345 97.073 136.483 96.8672 136.62V128.769H97.4847Z" fill="#FA8B21"/>
<path d="M98.65 128.837C98.65 132.419 88.4948 135.311 76.0066 135.311C74.2912 135.311 72.6444 135.242 70.9977 135.174C69.0078 135.036 67.0865 134.829 65.3025 134.554C63.7243 134.347 62.2834 134.003 60.9111 133.658C60.4994 133.589 60.0877 133.452 59.7446 133.314C58.0978 132.832 56.6569 132.281 55.6276 131.661C55.4218 131.523 55.2159 131.385 55.0787 131.317C53.9808 130.559 53.3633 129.732 53.3633 128.837C53.3633 128.768 53.3633 128.699 53.3633 128.63C53.775 125.187 63.793 122.432 76.0066 122.432C79.0258 122.432 81.9076 122.569 84.5151 122.914C84.9954 122.983 85.5443 123.052 86.0246 123.12C88.1517 123.396 90.073 123.809 91.7884 124.291C92.1315 124.36 92.5432 124.498 92.8862 124.636C94.1213 125.049 95.2192 125.462 96.0426 125.944C96.9346 126.426 97.6208 126.977 98.1011 127.46C98.4442 127.873 98.65 128.286 98.65 128.699C98.65 128.699 98.65 128.768 98.65 128.837Z" fill="#FFCE4F"/>
<path d="M94.122 128.837C94.122 128.906 94.122 128.975 94.122 129.044C93.7103 131.799 85.7508 133.934 76.0073 133.934C66.3324 133.934 58.3729 131.73 57.8926 129.044C57.8926 128.975 57.8926 128.906 57.8926 128.837C57.8926 126.013 65.9893 123.671 76.0073 123.671C85.9566 123.671 94.122 126.013 94.122 128.837Z" fill="#FA8B21"/>
<path d="M94.1217 129.043C93.71 131.798 85.7505 133.934 76.007 133.934C75.8012 133.934 75.5953 133.934 75.3895 133.934C73.1938 133.934 71.1353 133.796 69.214 133.589C67.2928 133.383 65.5773 133.038 64.0678 132.694C63.6561 132.625 63.313 132.487 62.9699 132.418C61.3231 131.936 60.0194 131.385 59.196 130.696C58.9902 130.559 58.7843 130.421 58.6471 130.214C58.304 129.87 58.0296 129.457 57.9609 129.043C58.3726 126.288 66.3321 124.084 76.0756 124.084C77.3107 124.084 78.4772 124.153 79.6437 124.153C80.2612 124.153 80.8102 124.222 81.3591 124.291C83.692 124.498 85.8191 124.842 87.6718 125.255C88.0835 125.324 88.4266 125.462 88.8383 125.531C90.2792 125.944 91.4457 126.426 92.3377 126.908C93.2297 127.39 93.7786 127.941 94.0531 128.561C94.0531 128.837 94.0531 128.975 94.1217 129.043Z" fill="#FA8B21"/>
<path d="M78.5462 131.799V132.625H74.7037V131.799C72.0276 131.73 69.3516 131.523 67.7734 131.248L69.8319 129.939C71.6159 130.215 74.0175 130.421 76.076 130.421C77.86 130.421 78.5462 130.284 78.5462 130.146C78.5462 129.457 68.0479 130.008 68.0479 128.011C68.0479 127.115 70.2436 126.427 74.7037 126.22V125.394H78.5462V126.22C80.5361 126.289 82.5259 126.427 84.0355 126.702L82.1142 128.011C80.2616 127.735 78.4776 127.598 76.8308 127.598C74.9781 127.598 74.3606 127.735 74.3606 127.942C74.3606 128.562 84.8589 128.08 84.8589 130.077C84.8589 130.835 82.7318 131.592 78.5462 131.799Z" fill="#FA8B21"/>
<path d="M78.4095 131.454V132.281H74.567V131.454C71.8909 131.385 69.2149 131.179 67.6367 130.903L69.6952 129.595C71.4792 129.87 73.8808 130.077 75.9393 130.077C77.7233 130.077 78.4095 129.939 78.4095 129.801C78.4095 129.112 67.9112 129.663 67.9112 127.666C67.9112 126.771 70.1069 126.082 74.567 125.875V125.049H78.4095V125.875C80.3993 125.944 82.3892 126.082 83.8988 126.357L81.9775 127.666C80.1249 127.391 78.3409 127.253 76.6941 127.253C74.8414 127.253 74.2239 127.391 74.2239 127.597C74.2239 128.217 84.7222 127.735 84.7222 129.732C84.7222 130.559 82.5951 131.248 78.4095 131.454Z" fill="#FFCE4F"/>
<path d="M135.772 164.514C135.772 164.514 135.772 164.583 135.772 164.514C135.772 165.34 135.36 166.098 134.605 166.855C134.399 167.062 134.193 167.2 133.988 167.338C133.37 167.82 132.547 168.233 131.586 168.646C131.38 168.715 131.174 168.853 130.968 168.922C130.214 169.197 129.459 169.473 128.567 169.748C128.361 169.817 128.155 169.886 127.949 169.955C127.195 170.161 126.371 170.368 125.548 170.506C125.342 170.575 125.136 170.575 124.93 170.644C124.175 170.781 123.352 170.919 122.529 171.057C122.323 171.057 122.117 171.126 121.911 171.126C121.156 171.195 120.333 171.332 119.51 171.401C119.304 171.401 119.098 171.47 118.892 171.47C118.137 171.539 117.314 171.608 116.49 171.608C116.285 171.608 116.079 171.608 115.873 171.608C115.118 171.608 114.295 171.677 113.471 171.677C113.334 171.677 113.197 171.677 113.06 171.677C112.991 171.677 112.922 171.677 112.854 171.677C112.03 171.677 111.276 171.677 110.452 171.608C110.246 171.608 110.041 171.608 109.835 171.608C109.217 171.608 108.668 171.539 108.051 171.539C107.845 171.539 107.639 171.539 107.433 171.47C107.227 171.47 107.021 171.47 106.816 171.401C105.992 171.332 105.237 171.263 104.414 171.126C104.208 171.126 104.002 171.057 103.796 171.057C103.316 170.988 102.836 170.919 102.356 170.85C102.012 170.781 101.738 170.712 101.395 170.712C101.189 170.644 100.983 170.644 100.777 170.575C99.9539 170.437 99.1305 170.23 98.3758 170.024C98.2385 169.955 98.1013 169.955 97.9641 169.886C97.8955 169.886 97.8268 169.817 97.7582 169.817C97.4151 169.748 97.0721 169.61 96.7976 169.542C96.3173 169.404 95.837 169.197 95.4253 169.059C95.2194 168.991 95.0136 168.922 94.8077 168.784C93.9843 168.44 93.2982 168.095 92.6806 167.682C92.612 167.613 92.4748 167.544 92.4061 167.475C92.2689 167.406 92.2003 167.338 92.0631 167.269C91.9258 167.2 91.8572 167.131 91.72 166.993C90.828 166.236 90.3477 165.409 90.3477 164.583C90.3477 164.514 90.3477 164.445 90.3477 164.376V159.555H91.72H92.3375H94.7391H95.3566H97.2093H97.7582H98.3758H100.777H101.395H103.796H104.414H106.816H107.433H109.835H110.452H112.854H113.471H115.873H116.49H118.892H119.51H121.911H122.529H124.93H125.548H127.949H128.567H128.704H130.9H131.517H133.919H134.537H135.703L135.772 164.514Z" fill="#FA8B21"/>
<path d="M92.4752 159.555V167.475C92.338 167.406 92.2694 167.338 92.1321 167.269C91.9949 167.2 91.9263 167.131 91.7891 166.993V159.486L92.4752 159.555Z" fill="#FA8B21"/>
<path d="M98.514 159.555V169.955C98.3768 169.886 98.2396 169.886 98.1023 169.818C98.0337 169.818 97.9651 169.749 97.8965 169.749V159.486L98.514 159.555Z" fill="#FA8B21"/>
<path d="M104.551 159.556V171.127C104.345 171.127 104.139 171.058 103.934 171.058V159.556H104.551Z" fill="#FA8B21"/>
<path d="M110.522 159.556V171.609C110.316 171.609 110.11 171.609 109.904 171.609V159.556H110.522Z" fill="#FA8B21"/>
<path d="M116.559 159.486V171.539C116.353 171.539 116.147 171.539 115.941 171.539V159.486H116.559Z" fill="#FA8B21"/>
<path d="M122.6 159.486V170.988C122.394 170.988 122.188 171.057 121.982 171.057V159.486H122.6Z" fill="#FA8B21"/>
<path d="M128.569 159.486V169.749C128.363 169.818 128.157 169.886 127.951 169.955V159.555L128.569 159.486Z" fill="#FA8B21"/>
<path d="M134.606 159.486V166.856C134.4 167.063 134.194 167.2 133.988 167.338V159.486H134.606Z" fill="#FA8B21"/>
<path d="M135.773 159.555C135.773 163.137 125.618 166.03 113.13 166.03C111.414 166.03 109.768 165.961 108.121 165.892C106.131 165.754 104.21 165.547 102.426 165.272C100.847 164.996 99.4064 164.721 98.0341 164.377C97.6224 164.308 97.2107 164.17 96.8676 164.032C95.2209 163.55 93.7799 162.999 92.7507 162.379C92.5448 162.241 92.339 162.104 92.2017 162.035C91.1039 161.277 90.4863 160.451 90.4863 159.555C90.4863 159.486 90.4863 159.418 90.4863 159.349C90.898 155.905 100.916 153.15 113.13 153.15C116.149 153.15 119.031 153.288 121.638 153.632C122.118 153.701 122.667 153.77 123.148 153.839C125.275 154.114 127.196 154.527 128.911 155.01C129.255 155.078 129.666 155.216 130.009 155.354C131.244 155.767 132.342 156.18 133.166 156.663C134.058 157.145 134.744 157.696 135.224 158.178C135.567 158.591 135.773 159.004 135.773 159.418C135.773 159.418 135.773 159.486 135.773 159.555Z" fill="#FFCE4F"/>
<path opacity="0.3" d="M135.156 158.11L108.121 165.892C106.131 165.755 104.21 165.548 102.426 165.273L133.097 156.525C134.058 157.008 134.744 157.559 135.156 158.11Z" fill="white"/>
<path opacity="0.3" d="M123.147 153.771L92.8185 162.38C92.6126 162.242 92.4068 162.104 92.2695 162.036L121.706 153.564C122.118 153.633 122.667 153.702 123.147 153.771Z" fill="white"/>
<path opacity="0.3" d="M129.94 155.216L98.0337 164.377C97.622 164.308 97.2103 164.17 96.8672 164.032L128.842 154.872C129.254 155.01 129.597 155.148 129.94 155.216Z" fill="white"/>
<path d="M131.243 159.556C131.243 159.625 131.243 159.694 131.243 159.762C130.831 162.517 122.872 164.653 113.128 164.653C103.453 164.653 95.494 162.449 95.0137 159.762C95.0137 159.694 95.0137 159.625 95.0137 159.556C95.0137 156.732 103.11 154.39 113.128 154.39C123.078 154.39 131.243 156.732 131.243 159.556Z" fill="#FA8B21"/>
<path d="M131.243 159.762C130.831 162.517 122.872 164.652 113.128 164.652C112.922 164.652 112.716 164.652 112.511 164.652C110.315 164.652 108.256 164.514 106.335 164.307C104.414 164.101 102.698 163.756 101.189 163.412C100.777 163.343 100.434 163.205 100.091 163.137C98.4442 162.654 97.1405 162.103 96.3171 161.415C96.1113 161.277 95.9054 161.139 95.7682 160.933C95.4251 160.588 95.1506 160.175 95.082 159.762C95.4937 157.007 103.453 154.803 113.197 154.803C114.432 154.803 115.598 154.872 116.765 154.872C117.382 154.872 117.931 154.94 118.48 155.009C120.813 155.216 122.94 155.56 124.793 155.974C125.205 156.042 125.548 156.18 125.959 156.249C127.4 156.662 128.567 157.144 129.459 157.627C130.351 158.109 130.9 158.66 131.174 159.28C131.174 159.555 131.174 159.624 131.243 159.762Z" fill="#FA8B21"/>
<path opacity="0.2" d="M131.106 159.418L112.511 164.721C110.316 164.721 108.257 164.583 106.336 164.377L129.391 157.833C130.283 158.247 130.832 158.798 131.106 159.418Z" fill="white"/>
<path opacity="0.2" d="M118.482 155.079L96.2501 161.415C96.0443 161.277 95.8384 161.14 95.7012 160.933L116.698 154.941C117.315 155.01 117.864 155.01 118.482 155.079Z" fill="white"/>
<path opacity="0.2" d="M125.892 156.388L101.19 163.413C100.778 163.344 100.435 163.206 100.092 163.138L124.794 156.112C125.137 156.181 125.548 156.25 125.892 156.388Z" fill="white"/>
<path d="M115.669 162.448V163.275H111.827V162.448C109.151 162.379 106.475 162.173 104.896 161.897L106.955 160.589C108.739 160.864 111.141 161.071 113.199 161.071C114.983 161.071 115.669 160.933 115.669 160.795C115.669 160.107 105.171 160.658 105.171 158.66C105.171 157.765 107.367 157.076 111.827 156.869V156.043H115.669V156.869C117.659 156.938 119.649 157.076 121.159 157.352L119.237 158.66C117.385 158.385 115.601 158.247 113.954 158.247C112.101 158.247 111.484 158.385 111.484 158.591C111.484 159.211 121.982 158.729 121.982 160.726C121.982 161.553 119.855 162.242 115.669 162.448Z" fill="#FA8B21"/>
<path d="M115.531 162.173V162.999H111.688V162.173C109.012 162.104 106.336 161.897 104.758 161.622L106.816 160.313C108.6 160.589 111.002 160.795 113.06 160.795C114.844 160.795 115.531 160.658 115.531 160.52C115.531 159.831 105.032 160.382 105.032 158.385C105.032 157.489 107.228 156.801 111.688 156.594V155.768H115.531V156.594C117.52 156.663 119.51 156.801 121.02 157.076L119.099 158.385C117.246 158.109 115.462 157.972 113.815 157.972C111.963 157.972 111.345 158.109 111.345 158.316C111.345 158.936 121.843 158.454 121.843 160.451C121.843 161.278 119.716 161.966 115.531 162.173Z" fill="#FFCE4F"/>
<path d="M134.401 157.42C134.401 157.489 134.401 157.489 134.401 157.42C134.401 158.247 133.989 159.005 133.234 159.762C133.028 159.969 132.822 160.107 132.617 160.244C131.999 160.726 131.176 161.14 130.215 161.553C130.009 161.622 129.803 161.76 129.597 161.828C128.843 162.104 128.088 162.379 127.196 162.655C126.99 162.724 126.784 162.793 126.578 162.862C125.823 163.068 125 163.275 124.177 163.413C123.971 163.481 123.765 163.481 123.559 163.55C122.804 163.688 121.981 163.826 121.158 163.964C120.952 163.964 120.746 164.032 120.54 164.032C119.785 164.101 118.962 164.239 118.138 164.308C117.933 164.308 117.727 164.377 117.521 164.377C116.766 164.446 115.943 164.515 115.119 164.515C114.914 164.515 114.708 164.515 114.502 164.515C113.747 164.515 112.924 164.583 112.1 164.583C111.963 164.583 111.826 164.583 111.689 164.583C111.62 164.583 111.551 164.583 111.483 164.583C110.659 164.583 109.905 164.583 109.081 164.515C108.875 164.515 108.669 164.515 108.464 164.515C107.846 164.515 107.297 164.446 106.68 164.446C106.474 164.446 106.268 164.446 106.062 164.377C105.856 164.377 105.65 164.377 105.444 164.308C104.621 164.239 103.866 164.17 103.043 164.032C102.837 164.032 102.631 163.964 102.425 163.964C101.945 163.895 101.465 163.826 100.984 163.757C100.641 163.688 100.367 163.619 100.024 163.619C99.8179 163.55 99.6121 163.55 99.4062 163.481C98.5828 163.344 97.7594 163.137 97.0047 162.93C96.8674 162.862 96.7302 162.862 96.593 162.793C96.5244 162.793 96.4557 162.724 96.3871 162.724C96.044 162.655 95.701 162.517 95.4265 162.448C94.9462 162.311 94.4659 162.104 94.0542 161.966C93.8483 161.897 93.6425 161.828 93.4366 161.691C92.6132 161.346 91.9271 161.002 91.3095 160.589C91.2409 160.52 91.1037 160.451 91.0351 160.382C90.8978 160.313 90.8292 160.244 90.692 160.175C90.5547 160.107 90.4861 160.038 90.3489 159.9C89.4569 159.142 88.9766 158.316 88.9766 157.489C88.9766 157.42 88.9766 157.352 88.9766 157.283V152.461H90.3489H90.9664H93.368H93.9856H95.8382H96.3871H97.0047H99.4062H100.024H102.425H103.043H105.444H106.062H108.464H109.081H111.483H112.1H114.502H115.119H117.521H118.138H120.54H121.158H123.559H124.177H126.578H127.196H127.333H129.529H130.146H132.548H133.165H134.332L134.401 157.42Z" fill="#FA8B21"/>
<path d="M91.1041 152.461V160.382C90.9669 160.313 90.8983 160.244 90.761 160.175C90.6238 160.106 90.5552 160.037 90.418 159.899V152.392L91.1041 152.461Z" fill="#FA8B21"/>
<path d="M97.0746 152.462V162.862C96.9373 162.793 96.8001 162.793 96.6629 162.724C96.5943 162.724 96.5256 162.655 96.457 162.655V152.393L97.0746 152.462Z" fill="#FA8B21"/>
<path d="M103.112 152.461V164.032C102.906 164.032 102.7 163.964 102.494 163.964V152.461H103.112Z" fill="#FA8B21"/>
<path d="M109.153 152.461V164.515C108.947 164.515 108.741 164.515 108.535 164.515V152.461H109.153Z" fill="#FA8B21"/>
<path d="M115.12 152.461V164.515C114.914 164.515 114.708 164.515 114.502 164.515V152.461H115.12Z" fill="#FA8B21"/>
<path d="M121.161 152.461V163.964C120.955 163.964 120.749 164.032 120.543 164.032V152.461H121.161Z" fill="#FA8B21"/>
<path d="M127.196 152.393V162.655C126.99 162.724 126.784 162.793 126.578 162.862V152.462L127.196 152.393Z" fill="#FA8B21"/>
<path d="M133.166 152.393V159.763C132.961 159.969 132.755 160.107 132.549 160.245V152.393H133.166Z" fill="#FA8B21"/>
<path d="M134.4 152.462C134.4 156.044 124.245 158.936 111.757 158.936C110.041 158.936 108.394 158.867 106.748 158.799C104.758 158.661 102.837 158.454 101.053 158.179C99.4743 157.972 98.0334 157.628 96.6611 157.283C96.2494 157.214 95.8377 157.077 95.4946 156.939C93.8478 156.457 92.4069 155.906 91.3776 155.286C91.1718 155.148 90.9659 155.01 90.8287 154.942C89.7308 154.184 89.1133 153.357 89.1133 152.462C89.1133 152.393 89.1133 152.324 89.1133 152.255C89.525 148.812 99.543 146.057 111.757 146.057C114.776 146.057 117.658 146.194 120.265 146.539C120.745 146.608 121.294 146.677 121.775 146.745C123.902 147.021 125.823 147.434 127.538 147.916C127.881 147.985 128.293 148.123 128.636 148.261C129.871 148.674 130.969 149.087 131.793 149.569C132.685 150.051 133.371 150.602 133.851 151.085C134.194 151.498 134.4 151.911 134.4 152.324C134.4 152.324 134.4 152.393 134.4 152.462Z" fill="#FFCE4F"/>
<path opacity="0.3" d="M133.785 151.016L106.75 158.799C104.76 158.661 102.839 158.454 101.055 158.179L131.726 149.432C132.618 149.914 133.304 150.465 133.785 151.016Z" fill="white"/>
<path opacity="0.3" d="M121.707 146.678L91.379 155.287C91.1732 155.149 90.9673 155.012 90.8301 154.943L120.266 146.471C120.747 146.54 121.227 146.609 121.707 146.678Z" fill="white"/>
<path opacity="0.3" d="M128.569 148.123L96.6626 157.284C96.2509 157.215 95.8392 157.077 95.4961 156.939L127.471 147.779C127.883 147.917 128.226 148.054 128.569 148.123Z" fill="white"/>
<path d="M129.804 152.463C129.804 152.532 129.804 152.601 129.804 152.67C129.392 155.425 121.432 157.56 111.689 157.56C102.014 157.56 94.0545 155.356 93.5742 152.67C93.5742 152.601 93.5742 152.532 93.5742 152.463C93.5742 149.639 101.671 147.297 111.689 147.297C121.707 147.297 129.804 149.639 129.804 152.463Z" fill="#FA8B21"/>
<path d="M129.805 152.738C129.394 155.493 121.434 157.628 111.691 157.628C111.485 157.628 111.279 157.628 111.073 157.628C108.877 157.628 106.819 157.49 104.898 157.284C102.976 157.077 101.261 156.733 99.7514 156.388C99.3397 156.319 98.9966 156.182 98.6535 156.113C97.0067 155.631 95.703 155.08 94.8796 154.391C94.6738 154.253 94.4679 154.115 94.3307 153.909C93.9876 153.564 93.7131 153.151 93.6445 152.738C94.0562 149.983 102.016 147.779 111.759 147.779C112.994 147.779 114.161 147.848 115.327 147.848C115.945 147.848 116.494 147.917 117.043 147.985C119.376 148.192 121.503 148.536 123.355 148.95C123.767 149.019 124.11 149.156 124.522 149.225C125.963 149.638 127.129 150.121 128.021 150.603C128.913 151.085 129.462 151.636 129.737 152.256C129.737 152.462 129.805 152.6 129.805 152.738Z" fill="#FA8B21"/>
<path opacity="0.2" d="M129.667 152.324L111.072 157.628C108.876 157.628 106.818 157.49 104.896 157.283L127.952 150.74C128.844 151.153 129.461 151.704 129.667 152.324Z" fill="white"/>
<path opacity="0.2" d="M117.04 147.985L94.8087 154.321C94.6028 154.184 94.397 154.046 94.2598 153.839L115.256 147.847C115.874 147.916 116.491 147.985 117.04 147.985Z" fill="white"/>
<path opacity="0.2" d="M124.52 149.294L99.8186 156.319C99.4069 156.25 99.0638 156.113 98.7207 156.044L123.423 149.019C123.766 149.087 124.109 149.156 124.52 149.294Z" fill="white"/>
<path d="M114.226 155.424V156.25H110.383V155.424C107.707 155.355 105.031 155.148 103.453 154.873L105.512 153.564C107.296 153.84 109.697 154.046 111.756 154.046C113.54 154.046 114.226 153.909 114.226 153.771C114.226 153.082 103.728 153.633 103.728 151.636C103.728 150.74 105.923 150.052 110.383 149.845V149.019H114.226V149.845C116.216 149.914 118.206 150.052 119.715 150.327L117.794 151.636C115.941 151.36 114.157 151.223 112.51 151.223C110.658 151.223 110.04 151.36 110.04 151.567C110.04 152.187 120.539 151.705 120.539 153.702C120.539 154.46 118.411 155.217 114.226 155.424Z" fill="#FA8B21"/>
<path d="M114.159 155.079V155.906H110.317V155.079C107.641 155.01 104.965 154.804 103.387 154.528L105.445 153.22C107.229 153.495 109.631 153.702 111.689 153.702C113.473 153.702 114.159 153.564 114.159 153.426C114.159 152.737 103.661 153.288 103.661 151.291C103.661 150.396 105.857 149.707 110.317 149.5V148.674H114.159V149.5C116.149 149.569 118.139 149.707 119.649 149.982L117.728 151.291C115.875 151.016 114.091 150.878 112.444 150.878C110.591 150.878 109.974 151.016 109.974 151.222C109.974 151.842 120.472 151.36 120.472 153.357C120.472 154.184 118.345 154.873 114.159 155.079Z" fill="#FFCE4F"/>
<path d="M134.813 149.638C134.813 149.638 134.813 149.707 134.813 149.638C134.813 150.464 134.401 151.222 133.646 151.979C133.44 152.186 133.234 152.324 133.029 152.462C132.411 152.944 131.588 153.357 130.627 153.77C130.421 153.839 130.215 153.977 130.009 154.046C129.255 154.321 128.5 154.597 127.608 154.872C127.402 154.941 127.196 155.01 126.99 155.079C126.236 155.285 125.412 155.492 124.589 155.63C124.383 155.699 124.177 155.699 123.971 155.768C123.216 155.905 122.393 156.043 121.57 156.181C121.364 156.181 121.158 156.25 120.952 156.25C120.197 156.319 119.374 156.456 118.551 156.525C118.345 156.525 118.139 156.594 117.933 156.594C117.178 156.663 116.355 156.732 115.531 156.732C115.326 156.732 115.12 156.732 114.914 156.732C114.159 156.732 113.336 156.801 112.512 156.801C112.375 156.801 112.238 156.801 112.101 156.801C112.032 156.801 111.963 156.801 111.895 156.801C111.071 156.801 110.317 156.801 109.493 156.732C109.287 156.732 109.082 156.732 108.876 156.732C108.258 156.732 107.709 156.663 107.092 156.663C106.886 156.663 106.68 156.663 106.474 156.594C106.268 156.594 106.062 156.594 105.857 156.525C105.033 156.456 104.278 156.387 103.455 156.25C103.249 156.25 103.043 156.181 102.837 156.181C102.357 156.112 101.877 156.043 101.397 155.974C101.053 155.905 100.779 155.836 100.436 155.836C100.23 155.768 100.024 155.768 99.8183 155.699C98.9949 155.561 98.1715 155.354 97.4168 155.148C97.2795 155.079 97.1423 155.079 97.0051 155.01C96.9365 155.01 96.8678 154.941 96.7992 154.941C96.4561 154.872 96.1131 154.734 95.8386 154.666C95.3583 154.528 94.878 154.321 94.4663 154.183C94.2604 154.115 94.0546 154.046 93.8487 153.908C93.0253 153.564 92.3392 153.219 91.7216 152.806C91.653 152.737 91.5158 152.668 91.4472 152.599C91.3099 152.53 91.2413 152.462 91.1041 152.393C90.9668 152.324 90.8982 152.255 90.761 152.117C89.869 151.36 89.3887 150.533 89.3887 149.707C89.3887 149.638 89.3887 149.569 89.3887 149.5V144.679H90.761H91.3785H93.7801H94.3977H96.2503H96.7992H97.4168H99.8183H100.436H102.837H103.455H105.857H106.474H108.876H109.493H111.895H112.512H114.914H115.531H117.933H118.551H120.952H121.57H123.971H124.589H126.99H127.608H127.745H129.941H130.558H132.96H133.578H134.744L134.813 149.638Z" fill="#FA8B21"/>
<path d="M91.5162 144.678V152.599C91.379 152.53 91.3104 152.461 91.1732 152.392C91.0359 152.323 90.9673 152.254 90.8301 152.117V144.609L91.5162 144.678Z" fill="#FA8B21"/>
<path d="M97.5531 144.678V155.078C97.4158 155.009 97.2786 155.01 97.1414 154.941C97.0728 154.941 97.0042 154.872 96.9355 154.872V144.609L97.5531 144.678Z" fill="#FA8B21"/>
<path d="M103.592 144.679V156.25C103.386 156.25 103.18 156.181 102.975 156.181V144.679H103.592Z" fill="#FA8B21"/>
<path d="M109.561 144.609V156.663C109.355 156.663 109.149 156.663 108.943 156.663V144.609H109.561Z" fill="#FA8B21"/>
<path d="M115.598 144.609V156.663C115.392 156.663 115.186 156.663 114.98 156.663V144.609H115.598Z" fill="#FA8B21"/>
<path d="M121.637 144.609V156.111C121.431 156.111 121.225 156.18 121.02 156.18V144.609H121.637Z" fill="#FA8B21"/>
<path d="M127.608 144.609V154.872C127.402 154.941 127.196 155.009 126.99 155.078V144.678L127.608 144.609Z" fill="#FA8B21"/>
<path d="M133.647 144.609V151.979C133.441 152.186 133.235 152.323 133.029 152.461V144.609H133.647Z" fill="#FA8B21"/>
<path d="M134.812 144.678C134.812 148.259 124.657 151.152 112.169 151.152C110.453 151.152 108.807 151.083 107.16 151.014C105.17 150.877 103.249 150.67 101.465 150.394C99.8864 150.119 98.4455 149.843 97.0732 149.499C96.6615 149.43 96.2498 149.292 95.9067 149.155C94.2599 148.673 92.819 148.122 91.7897 147.502C91.5839 147.364 91.378 147.226 91.2408 147.157C90.1429 146.4 89.5254 145.573 89.5254 144.678C89.5254 144.609 89.5254 144.54 89.5254 144.471C89.9371 141.027 99.9551 138.272 112.169 138.272C115.188 138.272 118.07 138.41 120.677 138.755C121.157 138.823 121.706 138.892 122.187 138.961C124.314 139.237 126.235 139.65 127.951 140.132C128.294 140.201 128.705 140.339 129.048 140.476C130.283 140.89 131.381 141.303 132.205 141.785C133.097 142.267 133.783 142.818 134.263 143.3C134.606 143.714 134.812 144.127 134.812 144.54C134.812 144.471 134.812 144.609 134.812 144.678Z" fill="#FFCE4F"/>
<path d="M130.282 144.677C130.282 144.746 130.282 144.815 130.282 144.884C129.87 147.639 121.911 149.774 112.167 149.774C102.493 149.774 94.533 147.57 94.0527 144.884C94.0527 144.815 94.0527 144.746 94.0527 144.677C94.0527 141.853 102.149 139.512 112.167 139.512C122.185 139.512 130.282 141.785 130.282 144.677Z" fill="#FA8B21"/>
<path d="M130.284 144.884C129.872 147.639 121.913 149.774 112.169 149.774C111.963 149.774 111.757 149.774 111.552 149.774C109.356 149.774 107.297 149.637 105.376 149.43C103.455 149.223 101.739 148.879 100.23 148.535C99.8182 148.466 99.4751 148.328 99.132 148.259C97.4852 147.777 96.1815 147.226 95.3581 146.537C95.1523 146.4 94.9464 146.262 94.8092 146.055C94.4661 145.711 94.1917 145.298 94.123 144.884C94.5347 142.129 102.494 139.925 112.238 139.925C113.473 139.925 114.639 139.994 115.806 139.994C116.423 139.994 116.972 140.063 117.521 140.132C119.854 140.339 121.981 140.683 123.834 141.096C124.246 141.165 124.589 141.303 125 141.372C126.441 141.785 127.608 142.267 128.5 142.749C129.392 143.231 129.941 143.782 130.215 144.402C130.215 144.609 130.215 144.747 130.284 144.884Z" fill="#FA8B21"/>
<path d="M114.706 147.57V148.397H110.864V147.57C108.188 147.502 105.512 147.295 103.934 147.019L105.992 145.711C107.776 145.986 110.178 146.193 112.236 146.193C114.02 146.193 114.706 146.055 114.706 145.917C114.706 145.229 104.208 145.78 104.208 143.782C104.208 142.887 106.404 142.198 110.864 141.992V141.165H114.706V141.992C116.696 142.06 118.686 142.198 120.196 142.474L118.274 143.782C116.422 143.507 114.638 143.369 112.991 143.369C111.138 143.369 110.521 143.507 110.521 143.713C110.521 144.333 121.019 143.851 121.019 145.849C121.019 146.675 118.892 147.364 114.706 147.57Z" fill="#FA8B21"/>
<path d="M114.57 147.295V148.121H110.727V147.295C108.051 147.226 105.375 147.019 103.797 146.744L105.855 145.435C107.639 145.71 110.041 145.917 112.099 145.917C113.883 145.917 114.57 145.779 114.57 145.642C114.57 144.953 104.071 145.504 104.071 143.506C104.071 142.611 106.267 141.922 110.727 141.716V140.889H114.57V141.716C116.56 141.785 118.549 141.922 120.059 142.198L118.138 143.506C116.285 143.231 114.501 143.093 112.854 143.093C111.002 143.093 110.384 143.231 110.384 143.438C110.384 144.057 120.882 143.575 120.882 145.573C120.882 146.399 118.755 147.088 114.57 147.295Z" fill="#FFCE4F"/>
<path d="M109.904 42.3987H103.591C101.121 42.3987 99.1309 40.4013 99.1309 37.9218V31.5853C99.1309 29.1058 101.121 27.1084 103.591 27.1084H109.904C112.374 27.1084 114.364 29.1058 114.364 31.5853V37.9218C114.364 40.4013 112.374 42.3987 109.904 42.3987Z" fill="#FF8697"/>
<path d="M101.877 32.8939C101.877 31.5164 102.769 30.7588 103.935 30.7588C105.102 30.7588 105.994 31.5164 105.994 32.8939C105.994 34.2714 105.102 35.029 103.935 35.029C102.769 35.029 101.877 34.2714 101.877 32.8939ZM108.464 30.8277H110.317L105.033 38.6105H103.181L108.464 30.8277ZM104.416 32.8939C104.416 32.1363 104.141 31.9297 103.935 31.9297C103.661 31.9297 103.455 32.1363 103.455 32.8939C103.455 33.6515 103.73 33.8582 103.935 33.8582C104.141 33.8582 104.416 33.6515 104.416 32.8939ZM107.503 36.5443C107.503 35.1668 108.395 34.4092 109.562 34.4092C110.728 34.4092 111.62 35.1668 111.62 36.5443C111.62 37.9218 110.728 38.6794 109.562 38.6794C108.395 38.7483 107.503 37.9218 107.503 36.5443ZM110.042 36.5443C110.042 35.7867 109.768 35.58 109.562 35.58C109.287 35.58 109.082 35.7867 109.082 36.5443C109.082 37.3019 109.356 37.5085 109.562 37.5085C109.836 37.5085 110.042 37.3019 110.042 36.5443Z" fill="white"/>
</svg>
