<svg xmlns="http://www.w3.org/2000/svg" fill="none" viewBox="0 0 1205 341"><defs/><path fill="url(#paint0_linear)" d="M303.989 17.688l-13.097-5.03 10.905-8.827 2.192 13.857z"/><path fill="url(#paint1_linear)" d="M130.955 128.705l-13.075-5.087 10.944-8.78 2.131 13.867z"/><path fill="url(#paint2_linear)" d="M202.384 208.394l-9.088-10.688 13.8-2.527-4.712 13.215z"/><path stroke="url(#paint3_linear)" stroke-dasharray="10 10" d="M1204.5 104.501c-71.83 46.333-246.9 136.8-372.5 128-157-11-396.5-128.001-534-128.001-137.5.001-227 26.001-283 61.001"/><path stroke="url(#paint4_linear)" stroke-dasharray="10 10" d="M1204.5 166c-71.83 46.333-262.4 124.3-388 115.5-157-11-319.5-56.5-454.5-64S178 188 57.5 188"/><path stroke="url(#paint5_linear)" stroke-dasharray="10 10" d="M1204.5 26C1126 121.5 1003 183.5 863 193S455.5 11 318 11 57 106.5 1 141.5"/><ellipse fill="#D1E2EA" rx="268" ry="25" transform="matrix(-1 0 0 1 491.5 316)"/><path fill="#EDF7FF" fill-opacity=".46" d="M284.417 158.043c12.375-17.122 38.258-26.074 39.248-51.943.64-16.813-6.744-26.033 5.445-40.232C358.561 31.52 403.337 28 441.326 42.963c37.99 14.96 68.143 44.39 110.608 43.175 23.12-.679 44.734-11.565 67.648-13.376 7.053-.556 13.632.082 19.778 1.749 23.017 6.297 43.105 29.161 50.488 54.35 5.961 20.436-2.227 40.419 7.301 60.484 10.106 21.361 30.421 36.384 35.289 60.977 5.836 29.511-18.17 54.824-43.621 55.317-16.21.309-46.198-2.695-59.831-13.026-16.602-12.595-33.06-13.603-52.612-13.377-37.186.453-40.656 7.758-77.429 13.377-31.514 4.815-42.266 38.12-108.773 32.817-66.507-5.302 8.329-50.408-75.148-44.898-83.478 5.51-56.552-86.557-30.607-122.489z"/><path fill="#8CB0FF" d="M657.247 208.672c-2.675 14.013-7.91 27.092-15.121 38.535-20.007 31.879-55.367 52.431-94.798 52.431h-75.605c-30.708 0-59.903-12.611-81.073-34.798-.93-.934-1.861-1.985-2.675-2.919-11.748-13.312-20.239-29.077-24.775-46.126a109.083 109.083 0 01-3.141-17.399v-.467c-1.047-10.743-1.396-21.019-.814-30.711 1.163-21.603 6.63-40.403 17.098-54.416 12.214-16.348 31.29-26.157 58.624-26.39h3.489c75.257 1.167 72.814 35.615 134.462 50.795 14.074 3.503 31.521 5.956 54.087 6.656.465 0 1.047 0 1.512.117 31.521 1.985 35.011 31.762 28.73 64.692z" opacity=".6"/><path fill="#fff" d="M628.516 143.98c-21.286 11.21-54.669 23.121-94.798 18.801-60.949-6.656-137.718-19.385-174.474 4.554 1.163-21.603 6.63-40.404 17.099-54.416 12.911-3.036 29.195-3.153 49.899 2.218 44.782 11.561 102.94 24.289 146.675 22.07 14.074 3.504 31.521 5.956 54.087 6.656.465 0 1.047 0 1.512.117z" opacity=".5"/><path fill="#407BFF" d="M657.246 208.672c-2.675 14.013-7.909 27.091-15.121 38.535-15.47 4.671-35.942 6.422-62.578.584-64.904-14.246-136.206-14.013-188.897 16.932-.931-.934-1.861-1.985-2.675-2.919-11.748-13.313-20.239-29.077-24.776-46.126 18.378-8.758 64.439-25.69 123.877-12.144 62.694 14.363 134.461 25.807 170.17 5.138z" opacity=".5"/><path fill="#8CB0FF" d="M372.93 52.37l.93-4.788-4.536-.934c0-1.168-.233-2.336-.581-3.504l3.722-2.452-2.676-4.087-3.489 2.336c-1.047-1.051-2.326-1.869-3.606-2.453l.931-4.554-4.769-.934-.931 4.67c-.93 0-1.977.234-2.908.585l-2.442-3.737-4.071 2.686 2.326 3.503c-1.047 1.051-1.861 2.335-2.443 3.62l-3.955-.817-.93 4.787 4.071.818c.116 1.284.349 2.569.814 3.736l-3.606 2.336 2.676 4.087 3.722-2.452c1.047.934 2.326 1.634 3.606 2.101l-.931 4.555 4.769.934.931-4.905c1.046-.116 2.093-.35 3.14-.817l2.326 3.62 4.071-2.686-2.442-3.736c.698-.818 1.163-1.635 1.628-2.453l4.653.934zM360.949 50.5c-2.093 1.401-4.885.818-6.164-1.284-1.396-2.102-.815-4.905 1.279-6.19 2.094-1.4 4.885-.817 6.165 1.285 1.279 1.985.698 4.788-1.28 6.189zM394.903 70.794l.465-2.686-2.443-.467c0-.7-.116-1.284-.349-1.985l1.978-1.401-1.513-2.219-1.977 1.285c-.581-.584-1.279-1.051-1.977-1.402l.465-2.452-2.675-.467-.466 2.569c-.581 0-1.046.117-1.628.35l-1.396-1.985-2.21 1.518 1.28 1.985c-.582.584-1.047 1.285-1.396 1.986l-2.094-.468-.465 2.686 2.21.467c0 .7.233 1.401.465 1.985l-1.745 1.285 1.513 2.219 1.977-1.402c.582.467 1.279.934 1.977 1.168l-.465 2.452 2.675.467.466-2.569c.581-.116 1.163-.233 1.744-.467l1.28 1.985 2.21-1.518-1.396-1.985c.349-.467.698-.934.931-1.401l2.559.467zm-6.63-1.05c-1.164.7-2.676.466-3.374-.701-.698-1.168-.465-2.686.698-3.387 1.163-.7 2.675-.467 3.373.7.698 1.052.466 2.57-.697 3.387zM671.438 263.673l-.232-4.905-4.537.234c-.232-1.168-.814-2.219-1.395-3.27l3.024-3.27-3.606-3.269-2.908 3.153c-1.279-.818-2.675-1.285-4.071-1.518l-.233-4.555-4.885.234.233 4.788c-.931.233-1.861.7-2.675 1.284l-3.257-3.036-3.257 3.62 3.14 2.919c-.814 1.285-1.279 2.686-1.512 4.087l-3.955.234.233 4.904 4.188-.233c.348 1.168.93 2.335 1.744 3.386l-2.908 3.153 3.606 3.27 3.024-3.27c1.28.701 2.559 1.051 3.955 1.168l.233 4.671 4.885-.234-.233-5.021c1.047-.35 1.978-.934 2.792-1.518l3.141 2.919 3.256-3.62-3.256-3.036c.465-.934.814-1.868.93-2.802l4.536-.467zm-12.213 1.051c-1.628 1.868-4.536 1.985-6.281.35-1.861-1.635-1.977-4.554-.349-6.306 1.629-1.868 4.537-1.985 6.281-.35 1.861 1.635 1.978 4.554.349 6.306zM678.067 233.545l-.117-2.686-2.558.117c-.117-.584-.466-1.284-.815-1.751l1.629-1.869-1.978-1.751-1.512 1.751c-.698-.467-1.512-.7-2.21-.817l-.116-2.569-2.675.117.116 2.569c-.465.116-1.047.35-1.512.7l-1.861-1.635-1.745 1.985 1.745 1.519c-.465.7-.698 1.518-.814 2.218l-2.21.117.116 2.686 2.21-.117c.233.701.465 1.284.93 1.868l-1.512 1.752 1.978 1.752 1.628-1.869c.698.35 1.396.584 2.21.584l.116 2.569 2.676-.117-.117-2.686c.582-.233 1.047-.467 1.513-.817l1.744 1.518 1.745-1.985-1.861-1.635a8.151 8.151 0 00.582-1.518h2.675zm-6.63.584c-.931 1.051-2.443 1.051-3.49.117-1.047-.934-1.047-2.452-.116-3.503.931-1.051 2.443-1.051 3.489-.117.931.934.931 2.452.117 3.503z"/><path fill="#FF8697" d="M617.764 123.207c13.292-24.237 4.496-54.701-19.645-68.045-24.142-13.344-54.487-4.514-67.779 19.722-13.292 24.237-4.496 54.701 19.645 68.045 24.142 13.344 54.488 4.514 67.779-19.722z"/><path fill="#fff" d="M586.353 136.635c20.695-6.808 31.974-29.17 25.193-49.946-6.781-20.776-29.055-32.1-49.75-25.291-20.695 6.808-31.974 29.169-25.193 49.945 6.782 20.776 29.055 32.1 49.75 25.292z"/><path fill="#FF8697" d="M579.333 127.612c15.73-2.914 26.129-18.079 23.225-33.87-2.903-15.793-18.008-26.232-33.738-23.317-15.73 2.914-26.129 18.079-23.225 33.871 2.903 15.792 18.008 26.231 33.738 23.316z"/><path fill="#fff" d="M575.132 117.561c10.197-.582 17.994-9.354 17.414-19.592-.58-10.237-9.317-18.065-19.515-17.482-10.198.582-17.994 9.353-17.414 19.591.58 10.238 9.317 18.065 19.515 17.483z"/><path fill="#E07080" d="M576.289 106.847c-4.303 1.168-8.723-1.284-9.887-5.605-1.163-4.32 1.28-8.758 5.584-9.925 4.303-1.168 8.723 1.284 9.887 5.605 1.163 4.204-1.396 8.758-5.584 9.925z"/><path fill="#243762" d="M629.912 68.195l-12.097-1.868 1.862-12.145c.116-.7-.349-1.4-1.047-1.518-.698-.116-1.396.35-1.512 1.051l-1.978 13.079-4.652 3.386 1.628-10.51c.116-.7-.349-1.4-1.047-1.4-.698-.117-1.396.35-1.512 1.05L607.58 72.4l-5.816 4.32 1.628-10.509c.117-.7-.349-1.401-1.047-1.518-.697-.117-1.395.35-1.512 1.05l-1.977 13.08-24.543 18.333c-.581 1.401-.349 2.335 0 3.153l26.404-19.501 12.562 1.868c.698.117 1.396-.35 1.512-1.051.117-.7-.349-1.401-1.047-1.518l-10.003-1.518 5.816-4.32 12.446 2.101c.698.117 1.396-.35 1.512-1.05.116-.701-.349-1.402-1.047-1.402l-10.003-1.518 4.653-3.386 12.562 1.868c.698.117 1.395-.35 1.512-1.051-.117-.817-.582-1.518-1.28-1.635zM541.165 231.093H371.111c-4.653 0-8.375-3.737-8.375-8.408v-93.418c0-4.671 3.722-8.408 8.375-8.408h170.054c4.653 0 8.375 3.737 8.375 8.408v93.535c0 4.554-3.722 8.291-8.375 8.291z"/><path fill="#fff" d="M367.621 218.014v-83.959c0-4.671 3.722-8.408 8.375-8.408h160.516c4.653 0 8.375 3.737 8.375 8.408v83.959c0 4.671-3.722 8.408-8.375 8.408H375.996c-4.653-.117-8.375-3.854-8.375-8.408z"/><path fill="#407BFF" d="M501.615 178.428c0 17.283-13.958 31.296-31.173 31.296-17.215 0-31.172-14.013-31.172-31.296 0-4.32.814-8.407 2.442-12.144l28.847 12.144-1.513-31.295h1.513c17.098 0 31.056 14.013 31.056 31.295z"/><path fill="#FF8697" d="M466.139 142.229c-9.305.467-17.564 5.021-23.031 11.91-1.744 2.219-3.256 4.671-4.303 7.357l28.846 12.144-1.512-31.411z"/><path fill="#407BFF" d="M516.741 156.941h-4.303v4.321h4.303v-4.321z"/><path fill="#8CB0FF" d="M534.771 159.628h-14.772c-.116 0-.349-.117-.349-.35v-.468c0-.117.117-.351.349-.351h14.772c.117 0 .349.117.349.351v.468c0 .116-.232.35-.349.35z" opacity=".6"/><path fill="#FA8B21" d="M516.739 164.532h-4.303v4.32h4.303v-4.32z"/><path fill="#8CB0FF" d="M534.77 167.218h-14.773c-.116 0-.349-.116-.349-.35v-.468c0-.116.117-.35.349-.35h14.773c.116 0 .348.117.348.35v.468c0 .234-.232.35-.348.35zM534.536 182.399h-21.519c-.349 0-.581-.234-.581-.584 0-.351.232-.585.581-.585h21.519c.349 0 .581.234.581.585 0 .35-.349.584-.581.584zM534.536 186.837h-21.519c-.349 0-.581-.234-.581-.585 0-.35.232-.584.581-.584h21.519c.349 0 .581.234.581.584 0 .234-.349.585-.581.585zM534.536 191.157h-21.519c-.349 0-.581-.234-.581-.584 0-.351.232-.585.581-.585h21.519c.349 0 .581.234.581.585 0 .35-.349.584-.581.584zM534.536 195.594h-21.519c-.349 0-.581-.233-.581-.584 0-.35.232-.584.581-.584h21.519c.349 0 .581.234.581.584 0 .351-.349.584-.581.584zM534.536 200.031h-21.519c-.349 0-.581-.233-.581-.584 0-.35.232-.584.581-.584h21.519c.349 0 .581.234.581.584 0 .351-.349.584-.581.584zM534.536 204.469h-21.519c-.349 0-.581-.234-.581-.584 0-.351.232-.585.581-.585h21.519c.349 0 .581.234.581.585 0 .35-.349.584-.581.584zM534.536 208.906h-21.519c-.349 0-.581-.233-.581-.584 0-.35.232-.584.581-.584h21.519c.349 0 .581.234.581.584 0 .351-.349.584-.581.584z" opacity=".6"/><path fill="#407BFF" d="M388.443 190.572h-8.142v19.735h8.142v-19.735zM400.423 176.56h-8.142v33.747h8.142V176.56zM413.681 166.283h-8.142v44.024h8.142v-44.024zM426.709 154.139h-8.143v56.167h8.143v-56.167z"/><path fill="#91B3FA" d="M411.707 145.498l5.7 2.102-.698-6.656-5.002 4.554z"/><path fill="#91B3FA" d="M378.09 180.997a.64.64 0 01-.582-.35c-.116-.35 0-.701.349-.817.233-.117 24.659-9.459 36.64-34.799.116-.35.465-.467.814-.233.349.117.465.467.233.817-12.097 25.69-36.989 35.266-37.338 35.382h-.116z"/><path fill="#243762" d="M650.153 153.556v155.308a8.73 8.73 0 01-8.724 8.758h-77.001c-2.443 0-4.653-1.051-6.281-2.569-1.629-1.635-2.559-3.737-2.559-6.189V153.556a8.729 8.729 0 018.724-8.758h77.001c1.396 0 2.791.35 3.955.934 2.907 1.401 4.885 4.437 4.885 7.824z"/><path fill="#243762" d="M650.153 153.557v155.308a8.73 8.73 0 01-8.724 8.758h-77.001c-2.443 0-4.653-1.051-6.282-2.569l87.238-169.321c2.791 1.402 4.769 4.438 4.769 7.824zM555.588 188.821h-1.047c-.814 0-1.512-.7-1.512-1.518v-13.195c0-.818.698-1.518 1.512-1.518h1.047v16.231z"/><path fill="#243762" d="M650.154 188.821h1.047c.814 0 1.512-.7 1.512-1.518v-13.195c0-.818-.698-1.518-1.512-1.518h-1.047v16.231zM555.588 210.775h-1.047c-.814 0-1.512-.701-1.512-1.518v-13.195c0-.818.698-1.519 1.512-1.519h1.047v16.232z"/><path fill="#fff" d="M560.01 306.294V156.125c0-3.854 3.14-7.007 6.979-7.007h71.883c3.839 0 6.979 3.153 6.979 7.007v150.169c0 3.854-3.14 7.007-6.979 7.007h-71.883c-3.955 0-6.979-3.153-6.979-7.007z"/><path fill="#FF8697" d="M634.101 182.398l-1.047 11.794-3.373-2.686-18.378 23.121-6.746-5.371-13.958 17.165-3.257-2.685-3.373-2.686-14.656 18.333c-.698.817-1.977 1.051-2.792.35-.93-.7-1.163-2.102-.465-3.036l17.215-21.836 6.746 5.371 8.724-10.976 5.118-6.423 3.373 2.686 3.373 2.686 15.703-19.735-3.373-2.686 11.166-3.386z"/><path fill="#407BFF" d="M612.466 235.764h-19.193v68.896h19.193v-68.896z"/><path fill="#FF8697" d="M593.273 285.159c5.7-.117 12.446-.117 19.193-.584v20.085h-19.193v-19.501z"/><path fill="#407BFF" d="M639.337 216.497h-19.192v88.163h19.192v-88.163z"/><path fill="#FF8697" d="M639.337 277.803v26.857h-19.192v-20.785c7.211-.934 13.957-2.686 19.192-6.072z"/><path fill="#407BFF" d="M585.598 252.346h-19.192v52.314h19.192v-52.314z"/><path fill="#FF8697" d="M585.598 285.742v18.917h-19.192v-8.057c1.978-2.919 7.444-9.225 19.192-10.86z"/><path fill="#407BFF" d="M574.2 170.021h-4.304v4.32h4.304v-4.32z"/><path fill="#8CB0FF" d="M592.113 172.707h-14.772c-.116 0-.349-.117-.349-.35v-.468c0-.117.117-.35.349-.35h14.772c.117 0 .349.116.349.35v.468c0 .233-.116.35-.349.35z" opacity=".6"/><path fill="#FF8697" d="M574.2 177.728h-4.304v4.32h4.304v-4.32z"/><path fill="#8CB0FF" d="M592.109 180.414h-14.772c-.116 0-.349-.117-.349-.35v-.468c0-.117.117-.35.349-.35h14.772c.117 0 .349.116.349.35v.468c0 .233-.116.35-.349.35zM591.881 191.158h-21.518c-.349 0-.582-.234-.582-.584 0-.351.233-.585.582-.585h21.518c.349 0 .582.234.582.585 0 .35-.233.584-.582.584zM591.881 195.595h-21.518c-.349 0-.582-.233-.582-.584s.233-.584.582-.584h21.518c.349 0 .582.233.582.584s-.233.584-.582.584zM591.881 200.032h-21.518c-.349 0-.582-.233-.582-.584 0-.35.233-.584.582-.584h21.518c.349 0 .582.234.582.584 0 .351-.233.584-.582.584zM591.881 204.47h-21.518c-.349 0-.582-.234-.582-.584 0-.351.233-.585.582-.585h21.518c.349 0 .582.234.582.585 0 .35-.233.584-.582.584z" opacity=".6"/><path fill="#243762" d="M626.775 156.942h-47.806c-1.396 0-2.559-1.168-2.559-2.686v-3.736c0-1.402 1.163-2.569 2.559-2.569h47.806c1.396 0 2.675 1.167 2.675 2.569v3.736c0 1.402-1.163 2.686-2.675 2.686z"/><path fill="#243762" d="M615.959 152.971h-30.591c-.349 0-.698-.233-.698-.7v-.935c0-.35.233-.7.698-.7h30.591c.349 0 .698.233.698.7v.935c-.116.35-.349.7-.698.7z"/><path fill="#524E86" d="M624.332 151.804c0 .701-.581 1.285-1.279 1.285s-1.28-.584-1.28-1.285c0-.7.582-1.284 1.28-1.284.698-.117 1.279.467 1.279 1.284z"/><path fill="#FDA893" d="M400.187 156.709c-1.046-.351-5.583 2.101-5.815 2.101-.233 0-1.047-.233-1.978-.35-.93-.117-1.396.117-2.21 1.401-.698 1.168-1.396 3.27-1.396 3.27-.465.117-.93.35-1.395.584.697 1.401 1.395 2.686 2.093 4.087.814-.467 1.512-.817 2.094-1.168.465.117.93.234 1.279.117 1.047-.234 1.978-.584 2.559-.701.349-.116.466-.233.466-.233.116 0 .581.233 1.628 0 1.163-.35 1.861-1.168 1.861-1.635 0-.584-.581-.934-.581-.934s.465-.35.465-.934c0-.584-1.047-1.168-1.047-1.168s.465-.584.116-1.168c-.349-.584-1.744-.117-1.861 0 .233-.233 4.653-2.919 3.722-3.269z"/><path fill="#FD896B" d="M391.696 161.964h-.117c-.116-.117-.116-.234-.116-.351l.581-1.051c0-.116.117-.116.117-.116h.232s1.164.7 2.21.467c.349-.117.582-.234.582-.351.116-.233 0-.35 0-.35 0-.117 0-.233.116-.35.117 0 .233 0 .349.117 0 0 .117.467 0 .817-.116.35-.465.584-.93.701-.931.233-1.861-.234-2.327-.351l-.465.818h-.232z"/><path fill="#FD896B" d="M396.117 165.818s-.233 0-.582.117c-.465-.467-.465-1.168-.465-1.635 0-.467 0-.817-.233-1.168-.232-.233-.349-.583-.349-.934 0-.35 0-.584.117-.817 0-.117 0-.117.116-.234.116-.233.116-.35.116-.35.117-.117.233-.117.349-.117.116.117.116.234.116.35-.116.117-.232.468-.232.935 0 .233.116.467.232.7.349.351.349.935.349 1.402-.116.817 0 1.284.466 1.751z"/><path fill="#FD896B" d="M392.627 163.949c-.116 0-.232 0-.232-.117 0-.116 0-.233.116-.35 0 0 1.512-.701 1.628-2.102 0-.117.117-.234.233-.234s.233.117.233.234c-.117 1.752-1.745 2.569-1.978 2.569.116 0 0 0 0 0z"/><path fill="#407BFF" d="M387.51 163.598c-9.305 3.153-16.284 5.255-23.496 7.007-12.911 3.152-19.774 1.284-19.774 1.284l4.886 8.992.814 1.634c1.396.351 3.14.467 4.769.234 4.885-.467 9.887-2.569 9.887-2.569 13.26-5.255 21.983-9.342 25.589-11.911l-2.675-4.671z"/><path fill="#243762" d="M387.276 162.897l-2.21 1.051 3.025 5.955 2.326-1.401-3.141-5.605zM354.71 182.749c-1.745.117-3.373.117-4.769-.234l-.814-1.635c.233-.817.698-1.401 1.512-1.751 0 0 1.163 2.335 4.071 3.62z"/><path fill="#FDA893" d="M316.905 294.733l-3.839 5.138s.698 2.335 3.49 4.087l4.536-5.839-4.187-3.386z"/><path fill="#243762" d="M315.975 302.323s1.745-.351 2.327.233c.581.584 2.093 8.992 3.606 10.86 1.395 1.869 0 2.803-.931 3.153-.93.35-13.493-12.261-13.493-12.261s3.141-4.321 4.653-5.138c1.512-.817 2.21 2.219 3.838 3.153z"/><path fill="#FDA893" d="M340.17 303.491l.582 6.306s1.977 1.284 5.234.7l-.582-7.356-5.234.35z"/><path fill="#243762" d="M344.939 309.563s1.163-1.518 1.978-1.518c.93 0 7.909 5.489 10.352 5.956 2.326.467 1.977 2.218 1.512 3.036-.465.934-18.843.35-18.843.35s-.698-5.955-.117-7.707c.466-1.518 3.257.351 5.118-.117zM336.679 234.713l-3.839 31.879s-3.489 4.671-6.746 10.626a9463.397 9463.397 0 01-10.119 18.1l4.42 3.387 24.31-25.223 6.513-39.003-14.539.234z"/><path fill="#243762" d="M321.558 298.705c-.349 1.051-1.163 1.635-1.977 2.219l-5.118-4.321c.465-.934 1.047-1.752 1.745-2.335l5.35 4.437zM317.021 235.996s6.863 16.932 15.703 30.011c0 0 1.28 12.845 3.606 19.618 1.047 3.036 2.908 17.165 2.908 17.165l6.746-.35-1.745-39.236-7.095-28.492-20.123 1.284z"/><path fill="#524E86" d="M346.682 302.323c.465 1.168.349 2.336 0 3.503l-7.793.234c-.349-1.168-.466-2.219-.349-3.386l8.142-.351z"/><path fill="#407BFF" d="M352.149 233.895v3.27c-3.257.934-6.514 1.518-9.77 1.868H341.564c-.581.117-1.163.117-1.744.117-2.792.234-5.584.234-8.375.117H329.119c-4.071-.35-8.259-1.051-12.33-2.219v-9.225-.701c0-4.67 0-10.509.116-16.464v-1.402-1.635-.233-.35-.818-1.168-.817-1.752c.233-11.91.582-22.77 1.396-25.573.116-.233.116-.467.233-.584l.349-.35.465-.467c1.279-1.168 3.489-2.569 5.7-3.854.232-.116.465-.35.814-.467l6.048-2.102 6.281.468c.698.467 6.747 2.452 7.444 2.919.233.117.466.233.582.35 1.745 1.051 3.141 2.219 3.838 3.153.931 1.401 1.513 13.429 1.745 26.624v.934c0 1.402.117 2.803.117 4.204 0 1.401 0 2.803.116 4.087 0 2.219.116 4.438.116 6.54v.7c0 2.102 0 4.087.116 5.956v7.94c-.116.35-.116.701-.116.934z"/><path fill="#91B3FA" d="M340.634 188.004l7.211-.467s.233 8.758-3.606 8.524c-3.838-.233-3.605-8.057-3.605-8.057z"/><path fill="#243762" d="M323.071 192.324c0-.35-.349-.467-.582-.233-2.559 3.386-4.071 7.006-5.001 9.809-.233.7-.465 1.401-.582 2.102V207.388c.233-1.401.582-3.27 1.28-5.372.93-2.802 2.326-6.422 4.885-9.692 0 .117 0 .117 0 0zM324.349 226.772c6.746 0 12.562-3.153 16.284-5.722 3.955-2.803 6.397-5.605 6.397-5.722a.355.355 0 000-.467.352.352 0 00-.465 0s-2.326 2.803-6.281 5.605c-3.606 2.569-9.189 5.605-15.819 5.605-.233 0-.349.117-.349.351-.116.233 0 .35.233.35zM331.445 229.108c5.932 0 11.748-3.387 11.981-3.504.116-.116.232-.233.116-.467-.116-.116-.233-.233-.465-.116-.117 0-6.979 3.97-13.144 3.386-.233 0-.349.117-.349.35 0 .234.116.351.349.351.465-.117 1.047 0 1.512 0z"/><path fill="#fff" d="M340.983 218.366l-3.14 9.575-4.304-8.641 1.047-37.367.116-1.402 1.629-.233.232 1.868 4.42 36.2z"/><path fill="#EDEDED" d="M336.563 182.166l-.814 1.051-1.163-1.284.116-1.402 1.629-.233.232 1.868z"/><path fill="#fff" d="M332.492 178.546l3.257 3.153 2.21-3.971-2.21-3.62-3.257 4.438z"/><path fill="#91B3FA" d="M330.979 168.736l-.931.701c-.232.234-.465.35-.697.584-.698.584-.931 1.051-.815 2.219 0 .116.117.35.117.467l1.744 8.641 5.467-7.24c-.116 0-4.071-1.401-4.885-5.372z"/><path fill="#91B3FA" d="M338.074 169.086s2.559 2.336 1.861 5.255l-1.163 4.788-2.908-5.021c-.116 0 1.977-1.285 2.21-5.022z"/><path fill="#FDA893" d="M305.507 244.055c-.116 1.634 1.861.817 1.279-2.686-.581-3.387 1.047-6.539 1.745-6.423.698.117-.581 3.737 0 5.022.582 1.284 1.396-1.285 2.21-2.803.814-1.635.814-5.138.465-7.59-.349-2.452 4.071-17.633 4.188-21.954l.581-1.868 1.978-6.773 3.14-10.626s-1.861-8.057-5.001-7.357c0 0-1.629 5.605-3.49 11.911-.349 1.051-.581 2.219-.93 3.27-1.28 4.554-2.443 9.108-3.025 11.794-1.512 7.123-1.628 21.836-1.628 21.836s-2.559 5.372-2.675 7.824c0 2.686 1.396 4.788 1.163 6.423z"/><path fill="#407BFF" d="M318.882 176.21c0 .116-.232-.234-.349 0-.349.817-1.977 2.919-2.791 5.021-.117.233-.233.584-.349.817-1.163 3.036-7.561 22.654-8.84 39.47l6.281 1.167c1.977-10.976 3.257-14.363 4.42-19.734.581-2.102 1.279-4.087 1.861-5.956.233-.7.465-1.518.698-2.102.116-.233.116-.467.232-.7.931-2.803 1.629-5.022 1.861-6.189.466-3.62-.93-10.393-3.024-11.794z"/><path fill="#91B3FA" d="M306.205 220.35l-.465 2.569 7.444 1.167.466-2.569-7.445-1.167z"/><path fill="#243762" d="M306.67 224.32s4.071-.351 5.816.934l-.349 2.452s-4.769-.584-5.932-.467c0 0 0-2.452.465-2.919z"/><path fill="#243762" d="M308.763 225.955c0 1.051-.698 1.985-1.629 1.985-.93 0-1.628-.934-1.628-1.985 0-1.051.698-1.985 1.628-1.985.931 0 1.629.817 1.629 1.985z"/><path fill="#524E86" d="M308.065 225.838c0 .817-.582 1.401-1.164 1.401-.581 0-1.163-.701-1.163-1.401 0-.818.582-1.401 1.163-1.401.582 0 1.164.583 1.164 1.401z"/><path fill="#243762" d="M324.582 153.321c0 5.722 3.49 9.692 9.305 9.692 5.816 0 9.771-4.32 9.771-10.042 0-5.722-3.373-10.159-9.189-10.159-6.863.116-9.887 4.787-9.887 10.509z"/><path fill="#FD896B" d="M325.861 155.773s-1.628-2.102-2.791-.35c-1.163 1.751.465 7.006 3.373 5.721l-.582-5.371z"/><path fill="#D65C48" d="M325.86 159.509c-.116 0-.233-.117-.233-.234-.465-1.635-2.093-2.219-2.093-2.219-.117 0-.233-.233-.117-.35 0-.117.233-.233.349-.117.117 0 1.861.701 2.443 2.569 0 .234-.116.351-.349.351.116 0 0 0 0 0z"/><path fill="#D65C48" d="M324.231 158.693h-.117c-.116-.117-.116-.234-.116-.351 0 0 .349-.467.931-.701.116 0 .232 0 .349.117 0 .117 0 .234-.117.351-.465.233-.698.584-.698.584h-.232z"/><path fill="#FD896B" d="M342.377 155.773s1.628-2.102 2.791-.35c1.163 1.751-.465 7.006-3.373 5.721l.582-5.371z"/><path fill="#D65C48" d="M342.376 159.509c.117 0 .233-.117.233-.234.465-1.635 2.094-2.219 2.094-2.219.116 0 .232-.233.116-.35 0-.117-.233-.233-.349-.117-.116 0-1.861.701-2.443 2.569 0 .234.117.351.349.351-.116 0 0 0 0 0z"/><path fill="#D65C48" d="M344.006 158.693h.116c.116-.117.116-.234.116-.351 0 0-.348-.467-.93-.701-.116 0-.233 0-.349.117 0 .117 0 .234.116.351.466.233.698.584.698.584h.233z"/><path fill="#FDA893" d="M338.074 165.583v5.488s-.581 2.802-2.326 3.036c-2.443.233-5.234-3.854-5.234-3.854v-4.32l7.56-.35z"/><path fill="#FD896B" d="M338.074 165.583v2.335c-1.396 1.518-3.838 1.985-7.56 1.401v-3.386l7.56-.35z"/><path fill="#FDA893" d="M325.045 155.773c0 .35 0 .584.116.934.117.818.233 1.518.349 2.336v.116c.698 3.854 2.21 7.591 5.584 8.758 7.56 2.686 10.352-3.853 11.399-7.59l.348-1.401v-.117c.117-.584.233-1.168.233-1.751 0-.468.116-.935.116-1.402.117-1.167.233-2.335.233-3.269.116-2.336-1.279-4.438-3.489-5.255-3.141-1.168-7.91-2.102-12.33.35-1.628.934-2.675 2.686-2.792 4.554.117 1.051.117 2.336.233 3.737z"/><path fill="#243762" d="M325.047 155.773c0 .35 0 .584.116.934.117.818.233 1.518.349 2.336v.116c.698 3.854 2.21 7.591 5.583 8.758 7.561 2.686 10.352-3.853 11.399-7.59l.349-1.401v-.117c.117-.584.233-1.168.233-1.751 0-.468.116-.935.116-1.402l-1.163.351c-.349 1.751-.814 4.203-1.396 5.371-1.047-2.452-6.513-.467-6.513-.467s-5.002-1.752-6.63 0c-.815-1.985-1.513-5.021-1.513-5.021l-.93-.117zm8.956 5.955c3.955-.583 5.002.468 5.118 1.635-1.047 1.168-2.326 1.752-3.373 2.102-1.396.351-4.187.234-6.165-1.284-.232-.935-.465-3.62 4.42-2.453z"/><path fill="#243762" d="M331.562 156.124c0 .584-.233 1.051-.582 1.051s-.582-.467-.582-1.051c0-.584.233-1.051.582-1.051.233 0 .582.467.582 1.051zM338.888 156.124c0 .584-.233 1.051-.582 1.051s-.581-.467-.581-1.051c0-.584.232-1.051.581-1.051s.582.467.582 1.051zM340.052 152.737s-1.977-.817-3.49-.117l.117.818s2.21-.234 3.373.233c.116-.35.116-.7 0-.934zM328.421 152.737s1.978-.817 3.49-.117l-.117.818s-2.21-.234-3.373.233c-.116-.35-.116-.7 0-.934z"/><path fill="#FD896B" d="M334.353 160.444c-.465 0-.814-.117-.931-.117-.116 0-.232-.117-.116-.35 0-.117.116-.234.349-.117.233.117.814.117.93 0 0 0 .117-.117.117-.233 0-.818-.582-3.737-.582-3.737 0-.117 0-.234.233-.234.116 0 .232 0 .232.234 0 .117.582 2.919.582 3.853 0 .351-.116.584-.233.584-.232.117-.349.117-.581.117z"/><path fill="#fff" d="M330.979 161.963c.232 1.051.814 2.919 3.14 2.919 2.21 0 2.908-1.751 3.141-2.919h-6.281z"/><path fill="#243762" d="M343.19 155.891h-1.163c.117-1.168-.232-2.453-.581-3.387-.815-2.102.814-2.919-.466-3.97-1.279-1.051-4.536-.584-6.862-.701-2.327-.117-5.932 0-6.863.117-.93.234-.349 1.635-.116 2.803.349 1.167-1.047 2.452-1.28 3.62-.116.35 0 .817 0 1.401h-.93c-.117-1.401-.117-2.803-.117-3.854 0-1.868 1.047-3.62 2.792-4.554 4.536-2.569 9.189-1.635 12.33-.35 2.21.817 3.605 2.919 3.489 5.255 0 1.051-.116 2.335-.233 3.62z"/><path fill="#fff" d="M335.285 156.591c0-1.635 1.28-2.92 2.908-2.92s2.908 1.285 2.908 2.92-1.28 2.919-2.908 2.919c-1.512 0-2.908-1.284-2.908-2.919zm.465 0c0 1.401 1.164 2.452 2.443 2.452 1.396 0 2.443-1.168 2.443-2.452 0-1.285-1.163-2.453-2.443-2.453-1.279 0-2.443 1.168-2.443 2.453zM327.373 156.591c0-1.635 1.28-2.92 2.908-2.92s2.908 1.285 2.908 2.92-1.28 2.919-2.908 2.919-2.908-1.284-2.908-2.919zm.465 0c0 1.401 1.163 2.452 2.443 2.452 1.279 0 2.443-1.168 2.443-2.452 0-1.285-1.164-2.453-2.443-2.453-1.28 0-2.443 1.168-2.443 2.453z"/><path fill="#fff" d="M340.634 155.657s.117 0 .117-.116c0 0 1.395-1.285 3.024-.935.116 0 .232 0 .232-.116 0-.117 0-.234-.116-.234-1.977-.467-3.489.934-3.489 1.051-.117.117-.117.234 0 .35h.232zM327.841 155.657c.116 0 .116 0 .232-.116.117-.117 0-.234-.116-.351-.116 0-2.21-1.401-3.955-1.051-.116 0-.232.117-.232.234s.116.233.232.233c1.629-.233 3.606 1.051 3.606 1.051h.233zM333.075 156.008s.581-.702 1.279-.702 1.163.702 1.163.702l.349-.234s-.581-.935-1.628-.935c-.931 0-1.629.935-1.629.935l.466.234z"/><path fill="#FA8B21" d="M469.044 308.397c0 1.401-.698 2.686-1.977 3.97-.349.351-.698.584-1.047.818-1.047.817-2.443 1.518-4.071 2.218-.349.117-.698.351-1.047.467-1.279.467-2.559.935-4.071 1.402l-1.047.35c-1.279.35-2.675.701-4.071.934-.349.117-.698.117-1.047.234-1.279.233-2.675.467-4.071.7-.349 0-.698.117-1.047.117-1.279.117-2.675.35-4.071.467-.349 0-.698.117-1.047.117-1.279.117-2.675.234-4.071.234h-1.046c-1.28 0-2.676.116-4.072.116H430.195c-1.396 0-2.676 0-4.071-.116h-1.047c-1.047 0-1.978-.117-3.024-.117-.349 0-.698 0-1.047-.117-.349 0-.698 0-1.047-.117-1.396-.117-2.675-.233-4.071-.467-.349 0-.698-.117-1.047-.117l-2.443-.35c-.581-.117-1.047-.234-1.628-.234-.349-.116-.698-.116-1.047-.233-1.396-.234-2.792-.584-4.071-.934-.233-.117-.465-.117-.698-.234-.116 0-.233-.117-.349-.117-.581-.116-1.163-.35-1.628-.467-.815-.233-1.629-.584-2.327-.817-.349-.117-.698-.234-1.046-.467-1.396-.584-2.559-1.168-3.606-1.869-.117-.116-.349-.233-.466-.35-.232-.117-.348-.233-.581-.35-.233-.117-.349-.234-.582-.467-1.512-1.285-2.326-2.686-2.326-4.087V299.989H468.928l.116 8.408z"/><path fill="#FA8B21" d="M395.649 299.872v13.546c-.232-.117-.348-.234-.581-.351-.233-.116-.349-.233-.582-.467v-12.728h1.163zM405.885 299.872v17.632c-.233-.116-.466-.116-.698-.233-.116 0-.233-.117-.349-.117v-17.399l1.047.117zM416.121 299.872v19.618c-.349 0-.698-.117-1.047-.117v-19.501h1.047zM426.24 299.872v20.435h-1.047v-20.435h1.047zM436.475 299.872v20.435h-1.047v-20.435h1.047zM446.713 299.872v19.384c-.349 0-.698.117-1.047.117v-19.618l1.047.117zM456.832 299.872v17.399l-1.047.351v-17.633l1.047-.117zM461.949 299.872v15.531c-.349.117-.698.35-1.047.467v-15.998h1.047zM467.068 299.755v12.495c-.349.35-.698.583-1.047.817v-13.312h1.047z"/><path fill="#FFCE4F" d="M469.044 299.872c0 6.072-17.215 10.977-38.384 10.977-2.908 0-5.7-.117-8.491-.234-3.374-.233-6.63-.584-9.655-1.051-2.675-.467-5.118-.934-7.444-1.518-.698-.117-1.396-.35-1.977-.584-2.792-.817-5.234-1.751-6.979-2.802-.349-.234-.698-.467-.931-.584-1.861-1.285-2.908-2.686-2.908-4.204v-.35c.698-5.839 17.68-10.51 38.385-10.51 5.118 0 10.003.234 14.423.818.814.116 1.745.233 2.559.35a68.685 68.685 0 019.77 1.985c.582.117 1.28.35 1.861.584 2.094.701 3.955 1.401 5.351 2.219 1.512.817 2.675 1.751 3.489 2.569.582.7.931 1.401.931 2.102v.233z"/><path fill="#fff" d="M468.114 297.42l-45.829 13.195c-3.373-.233-6.63-.583-9.654-1.05l51.993-14.831c1.512.818 2.675 1.752 3.49 2.686zM447.641 290.064l-51.412 14.597c-.349-.234-.698-.467-.93-.584l49.899-14.363c.698.117 1.629.233 2.443.35zM459.273 292.632l-54.087 15.531c-.698-.117-1.395-.35-1.977-.584l54.203-15.531c.582.234 1.28.351 1.861.584z" opacity=".3"/><path fill="#FA8B21" d="M461.366 299.873v.35c-.698 4.671-14.19 8.291-30.707 8.291-16.517 0-29.894-3.737-30.708-8.291v-.35c0-4.788 13.725-8.758 30.708-8.758 16.982 0 30.707 3.97 30.707 8.758z"/><path fill="#FA8B21" d="M461.367 300.34c-.698 4.671-14.191 8.291-30.708 8.291h-1.046c-3.722 0-7.212-.234-10.469-.584-3.257-.351-6.165-.934-8.724-1.518-.697-.117-1.279-.351-1.861-.467-2.791-.818-5.001-1.752-6.397-2.92-.349-.233-.698-.467-.93-.817-.582-.584-1.047-1.285-1.164-1.985.698-4.671 14.191-8.408 30.708-8.408 2.093 0 4.071.117 6.048.117 1.047 0 1.978.117 2.908.233a83.31 83.31 0 0110.701 1.635c.698.117 1.28.351 1.978.467 2.442.701 4.42 1.518 5.932 2.336 1.512.817 2.442 1.751 2.908 2.802 0 .351 0 .584.116.818z"/><path fill="#fff" d="M461.135 299.638l-31.522 8.992a97.57 97.57 0 01-10.468-.584l39.082-11.093c1.512.817 2.442 1.751 2.908 2.685zM439.732 292.399l-37.686 10.743c-.349-.234-.698-.467-.931-.818l35.593-10.159c1.047 0 2.094.117 3.024.234zM452.293 294.501l-41.873 11.911c-.698-.117-1.28-.35-1.861-.467l41.873-11.911c.582.117 1.28.351 1.861.467z" opacity=".2"/><path fill="#FA8B21" d="M434.963 304.894v1.401h-6.514v-1.401c-4.536-.117-9.073-.467-11.748-.934l3.49-2.219c3.024.467 7.095.818 10.584.818 3.025 0 4.188-.234 4.188-.468 0-1.167-17.797-.233-17.797-3.619 0-1.519 3.723-2.686 11.283-3.037v-1.401h6.514v1.401c3.373.117 6.746.351 9.305.818l-3.257 2.219c-3.14-.468-6.165-.701-8.956-.701-3.141 0-4.187.233-4.187.584 0 1.051 17.796.233 17.796 3.62 0 1.284-3.606 2.569-10.701 2.919z"/><path fill="#FFCE4F" d="M434.73 304.427v1.401h-6.513v-1.401c-4.537-.117-9.073-.467-11.748-.934l3.489-2.219c3.024.467 7.096.817 10.585.817 3.024 0 4.187-.233 4.187-.467 0-1.168-17.796-.233-17.796-3.62 0-1.518 3.722-2.686 11.283-3.036v-1.401h6.513v1.401c3.374.117 6.747.35 9.306.818l-3.257 2.218c-3.141-.467-6.165-.7-8.957-.7-3.14 0-4.187.233-4.187.583 0 1.051 17.796.234 17.796 3.62 0 1.285-3.605 2.569-10.701 2.92z"/><path fill="#FA8B21" d="M469.044 296.37c0 1.401-.698 2.685-1.977 3.97-.349.35-.698.584-1.047.817-1.047.818-2.443 1.518-4.071 2.219-.349.117-.698.35-1.047.467-1.279.467-2.559.934-4.071 1.401l-1.047.351c-1.279.35-2.675.7-4.071.934-.349.117-.698.117-1.047.233-1.279.234-2.675.467-4.071.701-.349 0-.698.117-1.047.117-1.279.117-2.675.35-4.071.467-.349 0-.698.117-1.047.117-1.279.116-2.675.233-4.071.233h-1.046c-1.28 0-2.676.117-4.072.117H430.195c-1.396 0-2.676 0-4.071-.117h-1.047c-1.047 0-1.978-.117-3.024-.117-.349 0-.698 0-1.047-.116-.349 0-.698 0-1.047-.117-1.396-.117-2.675-.234-4.071-.467-.349 0-.698-.117-1.047-.117l-2.443-.35c-.581-.117-1.047-.234-1.628-.234-.349-.117-.698-.117-1.047-.233-1.396-.234-2.792-.584-4.071-.935-.233-.116-.465-.116-.698-.233-.116 0-.233-.117-.349-.117-.581-.117-1.163-.35-1.628-.467-.815-.234-1.629-.584-2.327-.817-.349-.117-.698-.234-1.046-.467-1.396-.584-2.559-1.168-3.606-1.869-.117-.117-.349-.233-.466-.35-.232-.117-.348-.234-.581-.351-.233-.116-.349-.233-.582-.467-1.512-1.284-2.326-2.685-2.326-4.087v-8.524H468.928l.116 8.408z"/><path fill="#FA8B21" d="M395.649 287.961v13.429c-.232-.116-.348-.233-.581-.35-.233-.117-.349-.234-.582-.467v-12.728l1.163.116zM405.885 287.844v17.633c-.233-.117-.466-.117-.698-.234-.116 0-.233-.116-.349-.116v-17.399l1.047.116zM416.121 287.845v19.617c-.349 0-.698-.116-1.047-.116v-19.501h1.047zM426.24 287.845v20.435h-1.047v-20.435h1.047zM436.475 287.845v20.435h-1.047v-20.435h1.047zM446.713 287.845v19.501c-.349 0-.698.116-1.047.116v-19.617h1.047zM456.832 287.845v17.399l-1.047.35v-17.633l1.047-.116zM461.949 287.845v15.53c-.349.117-.698.351-1.047.468v-15.998h1.047zM467.068 287.845v12.494c-.349.351-.698.584-1.047.818v-13.312h1.047z"/><path fill="#FFCE4F" d="M469.044 287.961c0 6.072-17.215 10.977-38.384 10.977-2.908 0-5.7-.117-8.491-.234-3.374-.234-6.63-.584-9.655-1.051-2.675-.35-5.118-.934-7.444-1.518-.698-.117-1.396-.35-1.977-.584-2.792-.817-5.234-1.751-6.979-2.802-.349-.234-.698-.467-.931-.584-1.861-1.285-2.908-2.686-2.908-4.204v-.35c.698-5.839 17.68-10.51 38.385-10.51 5.118 0 10.003.234 14.423.817.814.117 1.745.234 2.559.351a68.685 68.685 0 019.77 1.985c.582.117 1.28.35 1.861.584 2.094.7 3.955 1.401 5.351 2.218 1.512.818 2.675 1.752 3.489 2.569.582.701.931 1.402.931 2.102v.234z"/><path fill="#fff" d="M468.114 285.392l-45.829 13.195c-3.373-.233-6.63-.584-9.654-1.051l51.993-14.83c1.512.934 2.675 1.752 3.49 2.686zM447.641 278.036l-51.412 14.596c-.349-.233-.698-.467-.93-.583l49.899-14.363c.698.116 1.629.233 2.443.35zM459.273 280.604l-54.087 15.531c-.698-.117-1.395-.35-1.977-.584l54.203-15.53c.582.233 1.28.35 1.861.583z" opacity=".3"/><path fill="#FA8B21" d="M461.366 287.961v.35c-.698 4.671-14.19 8.291-30.707 8.291-16.517 0-29.894-3.736-30.708-8.291v-.35c0-4.788 13.725-8.758 30.708-8.758 16.982 0 30.707 3.854 30.707 8.758z"/><path fill="#FA8B21" d="M461.367 288.311c-.698 4.671-14.191 8.291-30.708 8.291h-1.046c-3.722 0-7.212-.233-10.469-.583-3.257-.351-6.165-.935-8.724-1.519-.697-.116-1.279-.35-1.861-.467-2.791-.817-5.001-1.751-6.397-2.919-.349-.234-.698-.467-.93-.817-.582-.584-1.047-1.285-1.164-1.986.698-4.67 14.191-8.407 30.708-8.407 2.093 0 4.071.117 6.048.117 1.047 0 1.978.116 2.908.233a82.96 82.96 0 0110.701 1.635c.698.117 1.28.35 1.978.467 2.442.701 4.42 1.518 5.932 2.335 1.512.818 2.442 1.752 2.908 2.803 0 .35 0 .584.116.817z"/><path fill="#fff" d="M461.135 287.611l-31.522 8.992a97.57 97.57 0 01-10.468-.584l39.082-11.094c1.512.818 2.442 1.752 2.908 2.686zM439.732 280.37l-37.686 10.743c-.349-.233-.698-.467-.931-.817l35.593-10.159c1.047 0 2.094.116 3.024.233zM452.293 282.473l-41.873 11.911c-.698-.117-1.28-.351-1.861-.467l41.873-11.911c.582.117 1.28.35 1.861.467z" opacity=".2"/><path fill="#FA8B21" d="M434.963 292.866v1.401h-6.514v-1.401c-4.536-.117-9.073-.467-11.748-.934l3.49-2.219c3.024.467 7.095.817 10.584.817 3.025 0 4.188-.233 4.188-.467 0-1.168-17.797-.233-17.797-3.62 0-1.518 3.723-2.686 11.283-3.036v-1.401h6.514v1.401c3.373.117 6.746.35 9.305.818l-3.257 2.218c-3.14-.467-6.165-.7-8.956-.7-3.141 0-4.187.233-4.187.583 0 1.051 17.796.234 17.796 3.62 0 1.285-3.606 2.569-10.701 2.92z"/><path fill="#FFCE4F" d="M434.73 292.398v1.402h-6.513v-1.402c-4.537-.116-9.073-.467-11.748-.934l3.489-2.218c3.024.467 7.096.817 10.585.817 3.024 0 4.187-.234 4.187-.467 0-1.168-17.796-.234-17.796-3.62 0-1.518 3.722-2.686 11.283-3.036v-1.401h6.513v1.401c3.374.117 6.747.35 9.306.817l-3.257 2.219c-3.141-.467-6.165-.701-8.957-.701-3.14 0-4.187.234-4.187.584 0 1.051 17.796.234 17.796 3.62 0 1.285-3.605 2.569-10.701 2.919z"/><path fill="#FA8B21" d="M469.863 283.056c0 .116 0 .116 0 0 0 1.401-.698 2.685-1.978 3.97-.349.35-.698.584-1.047.817-1.046.818-2.442 1.518-4.071 2.219-.349.117-.698.35-1.047.467-1.279.467-2.559.934-4.071 1.401l-1.046.351c-1.28.35-2.676.7-4.072.934-.348.117-.697.117-1.046.233-1.28.234-2.676.467-4.071.701-.349 0-.698.117-1.047.117-1.28.117-2.676.35-4.071.467-.349 0-.698.117-1.047.117-1.28.116-2.675.233-4.071.233h-1.047c-1.28 0-2.675.117-4.071.117h-1.047c-1.396 0-2.675 0-4.071-.117h-1.047c-1.047 0-1.977-.117-3.024-.117-.349 0-.698 0-1.047-.116-.349 0-.698 0-1.047-.117-1.396-.117-2.675-.234-4.071-.467-.349 0-.698-.117-1.047-.117l-2.442-.35c-.582-.117-1.047-.234-1.629-.234-.349-.117-.698-.117-1.047-.233-1.395-.234-2.791-.584-4.071-.935-.232-.116-.465-.116-.698-.233-.116 0-.232-.117-.349-.117-.581-.117-1.163-.35-1.628-.467-.814-.234-1.628-.584-2.326-.817-.349-.117-.698-.234-1.047-.468-1.396-.583-2.559-1.167-3.606-1.868-.116-.117-.349-.233-.465-.35-.233-.117-.349-.234-.582-.351-.232-.116-.349-.233-.581-.467-1.512-1.284-2.327-2.685-2.327-4.087v-8.524H469.746l.117 8.408z"/><path fill="#FA8B21" d="M396.468 274.648v13.428c-.233-.116-.349-.233-.582-.35-.232-.117-.349-.233-.581-.467v-12.728l1.163.117zM406.703 274.648v17.632c-.233-.117-.465-.117-.698-.233-.116 0-.232-.117-.349-.117v-17.399l1.047.117zM416.822 274.648v19.618c-.349 0-.698-.117-1.047-.117v-19.501h1.047zM427.061 274.648v20.435h-1.047v-20.435h1.047zM437.295 274.648v20.435h-1.047v-20.435h1.047zM447.414 274.648v19.501c-.349 0-.698.117-1.047.117v-19.618h1.047zM457.65 274.531v17.399l-1.046.35v-17.632l1.046-.117zM462.77 274.531v15.531c-.349.116-.698.35-1.047.467v-15.998h1.047zM467.771 274.531v12.494c-.349.351-.697.584-1.046.818v-13.312h1.046z"/><path fill="#FFCE4F" d="M469.86 274.648c0 6.072-17.214 10.977-38.384 10.977-2.908 0-5.699-.117-8.491-.234-3.373-.234-6.63-.584-9.654-1.051-2.675-.35-5.118-.934-7.444-1.518-.698-.117-1.396-.35-1.978-.584-2.791-.817-5.234-1.751-6.979-2.802-.349-.234-.698-.467-.93-.584-1.861-1.285-2.908-2.686-2.908-4.204v-.35c.698-5.839 17.68-10.51 38.384-10.51 5.118 0 10.003.234 14.423.817.815.117 1.745.234 2.559.351a68.7 68.7 0 019.771 1.985c.581.117 1.279.35 1.861.584 2.094.7 3.955 1.401 5.35 2.219 1.513.817 2.676 1.751 3.49 2.568.581.701.93 1.402.93 2.102v.234z"/><path fill="#fff" d="M468.815 272.196l-45.829 13.195c-3.373-.234-6.63-.584-9.654-1.051l51.993-14.83c1.512.817 2.792 1.751 3.49 2.686zM448.342 264.839l-51.411 14.597c-.349-.234-.698-.467-.931-.584l49.9-14.363 2.442.35zM459.975 267.407l-54.087 15.531c-.698-.117-1.396-.35-1.978-.584l54.203-15.531c.698.117 1.28.351 1.862.584z" opacity=".3"/><path fill="#FA8B21" d="M462.069 274.648v.35c-.698 4.671-14.19 8.291-30.707 8.291-16.517 0-29.893-3.737-30.708-8.291v-.35c0-4.788 13.726-8.758 30.708-8.758s30.707 3.97 30.707 8.758z"/><path fill="#FA8B21" d="M462.068 275.115c-.698 4.671-14.19 8.291-30.707 8.291h-1.047c-3.722 0-7.212-.234-10.469-.584-3.256-.351-6.164-.935-8.723-1.518-.698-.117-1.28-.351-1.861-.467-2.792-.818-5.002-1.752-6.398-2.92-.349-.233-.698-.467-.93-.817-.582-.584-1.047-1.285-1.163-1.985.697-4.671 14.19-8.408 30.707-8.408 2.094 0 4.071.117 6.048.117 1.047 0 1.978.117 2.908.233a83.31 83.31 0 0110.701 1.635c.698.117 1.28.35 1.978.467 2.442.701 4.42 1.518 5.932 2.336 1.512.817 2.443 1.751 2.908 2.802 0 .351.116.584.116.818z"/><path fill="#fff" d="M461.951 274.414l-31.522 8.991c-3.722 0-7.211-.233-10.468-.584l39.082-11.093c1.396.817 2.443 1.752 2.908 2.686zM440.433 267.057L402.747 277.8c-.349-.234-.698-.467-.931-.818l35.593-10.159c1.163.117 2.094.234 3.024.234zM453.114 269.276l-41.874 11.911c-.698-.117-1.28-.35-1.861-.467l41.874-11.911c.581.117 1.163.35 1.861.467z" opacity=".2"/><path fill="#FA8B21" d="M435.664 279.669v1.401h-6.514v-1.401c-4.536-.117-9.072-.467-11.748-.934l3.49-2.219c3.024.467 7.095.817 10.585.817 3.024 0 4.187-.233 4.187-.467 0-1.167-17.796-.233-17.796-3.62 0-1.518 3.722-2.685 11.282-3.036v-1.401h6.514v1.401c3.373.117 6.746.351 9.305.818l-3.257 2.218c-3.14-.467-6.164-.7-8.956-.7-3.14 0-4.187.233-4.187.584 0 1.051 17.796.233 17.796 3.62 0 1.284-3.606 2.569-10.701 2.919z"/><path fill="#FFCE4F" d="M435.547 279.202v1.401h-6.514v-1.401c-4.536-.117-9.073-.467-11.748-.935l3.49-2.218c3.024.467 7.095.817 10.584.817 3.025 0 4.188-.233 4.188-.467 0-1.168-17.797-.233-17.797-3.62 0-1.518 3.723-2.686 11.283-3.036v-1.401h6.514v1.401c3.373.117 6.746.35 9.305.817l-3.257 2.219c-3.14-.467-6.165-.7-8.956-.7-3.141 0-4.188.233-4.188.583 0 1.051 17.797.234 17.797 3.62 0 1.285-3.606 2.569-10.701 2.92z"/><path fill="#FA8B21" d="M468.466 270.328c0 1.401-.698 2.686-1.977 3.97-.349.351-.698.584-1.047.818-1.047.817-2.443 1.518-4.071 2.218-.349.117-.698.351-1.047.468-1.28.467-2.559.934-4.071 1.401l-1.047.35c-1.279.35-2.675.701-4.071.934-.349.117-.698.117-1.047.234-1.279.233-2.675.467-4.071.7-.349 0-.698.117-1.047.117-1.279.117-2.675.351-4.071.467-.349 0-.698.117-1.047.117-1.279.117-2.675.234-4.071.234h-1.047c-1.279 0-2.675.116-4.071.116H429.617c-1.396 0-2.676 0-4.072-.116h-1.046c-1.047 0-1.978-.117-3.025-.117-.349 0-.698 0-1.046-.117-.349 0-.698 0-1.047-.117-1.396-.116-2.676-.233-4.071-.467-.349 0-.698-.117-1.047-.117l-2.443-.35c-.581-.117-1.047-.233-1.628-.233-.349-.117-.698-.117-1.047-.234-1.396-.233-2.792-.584-4.071-.934-.233-.117-.465-.117-.698-.234-.116 0-.233-.116-.349-.116-.582-.117-1.163-.351-1.628-.468-.815-.233-1.629-.583-2.327-.817-.349-.117-.698-.233-1.047-.467-1.395-.584-2.559-1.168-3.605-1.868-.117-.117-.349-.234-.466-.351-.232-.116-.349-.233-.581-.35-.233-.117-.349-.234-.582-.467-1.512-1.285-2.326-2.686-2.326-4.087v-8.525H468.35l.116 8.408z"/><path fill="#FA8B21" d="M395.071 261.92v13.429c-.232-.116-.349-.233-.581-.35-.233-.117-.349-.234-.582-.467v-12.728l1.163.116zM405.189 261.803v17.75c-.232-.117-.465-.117-.697-.234-.117 0-.233-.117-.349-.117v-17.399h1.046zM415.426 261.803v19.618c-.349 0-.698-.117-1.047-.117v-19.501h1.047zM425.662 261.803v20.435h-1.047v-20.435h1.047zM435.781 261.803v20.435h-1.047v-20.435h1.047zM446.018 261.803v19.501c-.349 0-.698.117-1.047.117v-19.618h1.047zM456.254 261.803v17.399l-1.047.351V261.92l1.047-.117zM466.373 261.803v12.495c-.349.35-.698.584-1.047.817v-13.312h1.047z"/><path fill="#FFCE4F" d="M468.466 261.921c0 6.072-17.215 10.977-38.384 10.977-2.908 0-5.7-.117-8.492-.234-3.373-.234-6.63-.584-9.654-1.051-2.675-.467-5.118-.934-7.444-1.518-.698-.117-1.396-.35-1.977-.584-2.792-.817-5.235-1.751-6.979-2.802-.349-.234-.698-.468-.931-.584-1.861-1.285-2.908-2.686-2.908-4.204v-.35c.698-5.839 17.68-10.51 38.385-10.51 5.117 0 10.003.234 14.423.817.814.117 1.745.234 2.559.351a68.546 68.546 0 019.77 1.985c.582.117 1.28.35 1.861.584 2.094.7 3.955 1.401 5.351 2.218 1.512.818 2.675 1.752 3.489 2.569.582.701.931 1.402.931 2.102v.234z"/><path fill="#fff" d="M467.42 259.352l-45.828 13.195c-3.373-.233-6.63-.584-9.654-1.051l51.993-14.83c1.512.934 2.675 1.752 3.489 2.686zM446.948 251.996l-51.412 14.714c-.349-.234-.698-.467-.931-.584l49.9-14.363c.814.116 1.628.116 2.443.233zM458.58 254.565l-54.087 15.531c-.698-.117-1.396-.351-1.977-.584l54.203-15.531c.698.234 1.279.35 1.861.584z" opacity=".3"/><path fill="#FA8B21" d="M460.673 261.922v.35c-.698 4.671-14.191 8.291-30.708 8.291-16.4 0-29.893-3.737-30.707-8.291v-.35c0-4.788 13.725-8.758 30.707-8.758s30.708 3.853 30.708 8.758z"/><path fill="#FA8B21" d="M460.672 262.271c-.698 4.671-14.191 8.291-30.708 8.291h-1.047c-3.722 0-7.211-.233-10.468-.584-3.257-.35-6.165-.934-8.724-1.518-.698-.116-1.279-.35-1.861-.467-2.791-.817-5.001-1.751-6.397-2.919-.349-.234-.698-.467-.931-.817-.581-.584-1.047-1.285-1.163-1.986.698-4.671 14.191-8.407 30.707-8.407 2.094 0 4.072.117 6.049.117 1.047 0 1.977.116 2.908.233 3.955.35 7.56.934 10.701 1.635.698.117 1.279.35 1.977.467 2.443.701 4.42 1.518 5.932 2.335 1.513.818 2.443 1.752 2.908 2.803 0 .35.117.584.117.817z"/><path fill="#fff" d="M460.441 261.571l-31.521 8.992c-3.722 0-7.212-.234-10.469-.584l39.082-11.094c1.512.818 2.559 1.752 2.908 2.686zM439.039 254.33l-37.687 10.743c-.349-.233-.697-.467-.93-.817l35.593-10.159c1.046 0 2.093.116 3.024.233zM451.715 256.433l-41.873 11.911c-.698-.117-1.28-.351-1.862-.467l41.874-11.911c.582.117 1.163.35 1.861.467z" opacity=".2"/><path fill="#FA8B21" d="M434.267 266.826v1.401h-6.513v-1.401c-4.537-.117-9.073-.467-11.748-.934l3.489-2.219c3.025.467 7.096.817 10.585.817 3.024 0 4.187-.233 4.187-.467 0-1.168-17.796-.233-17.796-3.62 0-1.518 3.722-2.686 11.283-3.036v-1.401h6.513v1.401c3.374.117 6.747.35 9.306.817l-3.257 2.219c-3.141-.467-6.165-.7-8.956-.7-3.141 0-4.188.233-4.188.583 0 1.051 17.797.234 17.797 3.62 0 1.402-3.606 2.569-10.702 2.92z"/><path fill="#FFCE4F" d="M434.152 266.358v1.402h-6.513v-1.402c-4.537-.116-9.073-.467-11.748-.934l3.489-2.218c3.024.467 7.095.817 10.585.817 3.024 0 4.187-.234 4.187-.467 0-1.168-17.796-.234-17.796-3.62 0-1.518 3.722-2.686 11.283-3.036v-1.401h6.513v1.401c3.373.117 6.747.35 9.306.817l-3.257 2.219c-3.141-.467-6.165-.701-8.957-.701-3.14 0-4.187.234-4.187.584 0 1.051 17.796.234 17.796 3.62 0 1.285-3.605 2.569-10.701 2.919z"/><path fill="#FA8B21" d="M469.98 257.833c0 .117 0 .117 0 0 0 1.402-.698 2.686-1.978 3.971-.349.35-.697.584-1.046.817-1.047.818-2.443 1.518-4.072 2.219-.348.117-.697.35-1.046.467-1.28.467-2.559.934-4.071 1.401l-1.047.351c-1.28.35-2.676.7-4.071.934-.349.116-.698.116-1.047.233-1.28.234-2.675.467-4.071.701-.349 0-.698.117-1.047.117-1.28.116-2.675.35-4.071.467-.349 0-.698.117-1.047.117-1.279.116-2.675.233-4.071.233h-1.047c-1.279 0-2.675.117-4.071.117h-1.047c-1.396 0-2.675 0-4.071-.117h-1.047c-1.047 0-1.977-.117-3.024-.117-.349 0-.698 0-1.047-.116-.349 0-.698-.001-1.047-.117-1.395-.117-2.675-.234-4.071-.467-.349 0-.698-.117-1.047-.117l-2.442-.35c-.582-.117-1.047-.234-1.629-.234-.349-.117-.697-.117-1.046-.234-1.396-.233-2.792-.583-4.071-.934-.233-.117-.466-.117-.698-.233-.117 0-.233-.117-.349-.117-.582-.117-1.164-.35-1.629-.467-.814-.234-1.628-.584-2.326-.818-.349-.116-.698-.233-1.047-.467-1.396-.583-2.559-1.167-3.606-1.868-.116-.117-.349-.234-.465-.35-.233-.117-.349-.234-.582-.351-.232-.116-.349-.233-.581-.467-1.512-1.284-2.326-2.686-2.326-4.087v-8.524H469.863l.117 8.407z"/><path fill="#FA8B21" d="M396.585 249.426v13.429c-.233-.117-.349-.234-.582-.351-.232-.116-.348-.233-.581-.467v-12.728l1.163.117zM406.82 249.426v17.633c-.232-.117-.465-.117-.698-.234-.116 0-.232-.117-.349-.117v-17.399l1.047.117zM417.057 249.426v19.618c-.349 0-.698-.117-1.047-.117v-19.501h1.047zM427.178 249.426v20.436h-1.047v-20.436h1.047zM437.412 249.426v20.436h-1.047v-20.436h1.047zM447.531 249.309v19.501c-.349 0-.698.117-1.047.117v-19.618h1.047zM457.768 249.309v17.399l-1.047.351v-17.633l1.047-.117zM468.004 249.309v12.495c-.349.35-.698.584-1.047.817v-13.312h1.047z"/><path fill="#FFCE4F" d="M469.98 249.426c0 6.072-17.215 10.976-38.385 10.976-2.908 0-5.699-.116-8.491-.233-3.373-.234-6.63-.584-9.654-1.051-2.675-.35-5.118-.934-7.444-1.518-.698-.117-1.396-.35-1.978-.584-2.791-.817-5.234-1.752-6.979-2.803-.349-.233-.698-.467-.93-.583-1.861-1.285-2.908-2.686-2.908-4.204v-.351c.698-5.838 17.68-10.509 38.384-10.509 5.118 0 10.003.233 14.423.817.815.117 1.745.234 2.559.351a68.561 68.561 0 019.771 1.985c.582.117 1.279.35 1.861.584 2.094.7 3.955 1.401 5.351 2.218 1.512.818 2.675 1.752 3.489 2.569.582.701.931 1.402.931 2.102v.234z"/><path fill="#FA8B21" d="M462.304 249.425v.351c-.698 4.671-14.191 8.291-30.708 8.291-16.4 0-29.893-3.737-30.707-8.291v-.351c0-4.787 13.725-8.758 30.707-8.758 16.866 0 30.708 3.971 30.708 8.758z"/><path fill="#FA8B21" d="M462.304 249.776c-.697 4.671-14.19 8.291-30.707 8.291h-1.047c-3.722 0-7.211-.234-10.468-.584-3.257-.351-6.165-.934-8.724-1.518-.698-.117-1.279-.351-1.861-.467-2.792-.818-5.002-1.752-6.397-2.92-.349-.233-.698-.467-.931-.817-.582-.584-1.047-1.285-1.163-1.985.698-4.671 14.19-8.408 30.707-8.408 2.094 0 4.071.117 6.049.117 1.047 0 1.977.117 2.908.233 3.954.351 7.56.935 10.701 1.635.698.117 1.279.351 1.977.467 2.443.701 4.42 1.518 5.932 2.336 1.512.817 2.443 1.751 2.908 2.802 0 .467 0 .701.116.818z"/><path fill="#FA8B21" d="M435.9 254.447v1.401h-6.513v-1.401c-4.537-.117-9.073-.467-11.748-.934l3.489-2.219c3.024.467 7.095.817 10.585.817 3.024 0 4.187-.233 4.187-.467 0-1.167-17.796-.233-17.796-3.62 0-1.518 3.722-2.685 11.283-3.036v-1.401h6.513v1.401c3.373.117 6.747.351 9.306.818l-3.257 2.218c-3.141-.467-6.165-.7-8.957-.7-3.14 0-4.187.233-4.187.584 0 1.05 17.796.233 17.796 3.619 0 1.285-3.605 2.569-10.701 2.92z"/><path fill="#FFCE4F" d="M435.668 253.863v1.401h-6.514v-1.401c-4.536-.117-9.072-.467-11.748-.934l3.49-2.219c3.024.467 7.095.817 10.584.817 3.025 0 4.188-.233 4.188-.467 0-1.167-17.796-.233-17.796-3.62 0-1.518 3.722-2.685 11.282-3.036v-1.401h6.514v1.401c3.373.117 6.746.351 9.305.818l-3.257 2.218c-3.14-.467-6.164-.7-8.956-.7-3.141 0-4.187.233-4.187.584 0 1.05 17.796.233 17.796 3.619 0 1.402-3.606 2.569-10.701 2.92z"/><path fill="#FA8B21" d="M532.908 309.915s0 .117 0 0c0 1.401-.698 2.686-1.978 3.97-.349.351-.698.584-1.047.818-1.047.817-2.442 1.518-4.071 2.218-.349.117-.698.351-1.047.467-1.279.468-2.559.935-4.071 1.402l-1.047.35c-1.279.35-2.675.701-4.071.934-.349.117-.697.117-1.046.234-1.28.233-2.676.467-4.071.7-.349 0-.698.117-1.047.117-1.28.117-2.676.35-4.071.467-.349 0-.698.117-1.047.117-1.28.117-2.676.234-4.071.234h-1.047c-1.28 0-2.675.116-4.071.116h-1.047c-1.396 0-2.675 0-4.071-.116h-1.047c-1.047 0-1.977-.117-3.024-.117-.349 0-.698 0-1.047-.117-.349 0-.698 0-1.047-.117-1.396-.117-2.675-.233-4.071-.467-.349 0-.698-.117-1.047-.117l-2.442-.35c-.582-.117-1.047-.233-1.629-.233-.349-.117-.698-.117-1.047-.234-1.395-.234-2.791-.584-4.071-.934-.232-.117-.465-.117-.698-.234-.116 0-.232-.117-.349-.117-.581-.116-1.163-.35-1.628-.467-.814-.233-1.628-.583-2.326-.817-.349-.117-.698-.234-1.047-.467-1.396-.584-2.559-1.168-3.606-1.868-.116-.117-.349-.234-.465-.351-.233-.117-.349-.233-.582-.35-.232-.117-.349-.234-.581-.467-1.513-1.285-2.327-2.686-2.327-4.087V301.507H532.791l.117 8.408z"/><path fill="#FA8B21" d="M459.513 301.507v13.429c-.233-.117-.349-.234-.582-.351-.232-.116-.349-.233-.581-.467V301.39l1.163.117zM469.75 301.507v17.633c-.233-.117-.465-.117-.698-.234-.116 0-.233-.117-.349-.117V301.39l1.047.117zM479.984 301.507v19.618c-.349 0-.698-.117-1.046-.117v-19.501h1.046zM490.103 301.507v20.436h-1.046v-20.436h1.046zM500.34 301.39v20.435h-1.047V301.39h1.047zM510.578 301.39v19.501c-.349 0-.698.117-1.047.117V301.39h1.047zM520.695 301.39v17.399l-1.047.351v-17.633l1.047-.117zM530.932 301.39v12.495c-.349.35-.698.584-1.047.817V301.39h1.047z"/><path fill="#FFCE4F" d="M532.907 301.507c0 6.073-17.214 10.977-38.384 10.977-2.908 0-5.699-.117-8.491-.234-3.373-.233-6.63-.583-9.654-1.051-2.676-.467-5.118-.934-7.445-1.518-.697-.116-1.395-.35-1.977-.583-2.792-.818-5.234-1.752-6.979-2.803-.349-.234-.698-.467-.93-.584-1.861-1.284-2.908-2.686-2.908-4.204v-.35c.698-5.839 17.68-10.51 38.384-10.51 5.118 0 10.003.234 14.423.818.814.117 1.745.233 2.559.35a68.7 68.7 0 019.771 1.985c.581.117 1.279.351 1.861.584 2.093.701 3.954 1.401 5.35 2.219 1.512.817 2.676 1.751 3.49 2.569.581.701.93 1.401.93 2.102v.233z"/><path fill="#fff" d="M531.862 299.056l-45.829 13.195c-3.373-.233-6.63-.584-9.654-1.051l51.993-14.83c1.629.818 2.792 1.752 3.49 2.686zM511.506 291.699l-51.411 14.597c-.349-.234-.698-.467-.931-.584l49.9-14.363c.698.117 1.628.234 2.442.35zM523.021 294.151l-54.087 15.531c-.697-.117-1.395-.35-1.977-.584l54.203-15.531c.698.234 1.28.467 1.861.584z" opacity=".3"/><path fill="#FA8B21" d="M525.231 301.508v.35c-.698 4.671-14.19 8.291-30.707 8.291-16.401 0-29.893-3.737-30.708-8.291v-.35c0-4.788 13.726-8.758 30.708-8.758 16.866 0 30.707 3.97 30.707 8.758z"/><path fill="#FA8B21" d="M525.23 301.858c-.698 4.671-14.19 8.291-30.707 8.291h-1.047c-3.722 0-7.212-.234-10.469-.584-3.256-.35-6.164-.934-8.723-1.518-.698-.117-1.28-.351-1.861-.467-2.792-.818-5.002-1.752-6.398-2.92-.349-.233-.698-.467-.93-.817-.582-.584-1.047-1.285-1.163-1.985.698-4.671 14.19-8.408 30.707-8.408 2.094 0 4.071.117 6.049.117 1.046 0 1.977.117 2.907.234 3.955.35 7.561.934 10.702 1.634.697.117 1.279.351 1.977.467 2.443.701 4.42 1.518 5.932 2.336 1.512.817 2.443 1.751 2.908 2.802 0 .468 0 .584.116.818z"/><path fill="#fff" d="M524.998 301.274l-31.522 8.991c-3.722 0-7.211-.233-10.468-.584l39.082-11.093c1.512.701 2.443 1.635 2.908 2.686zM503.595 293.917l-37.686 10.743c-.349-.233-.698-.467-.93-.817l35.592-10.159c1.047.116 1.978.116 3.024.233zM516.157 296.137l-41.874 11.91c-.698-.116-1.28-.35-1.861-.467l41.874-11.911c.581.117 1.279.234 1.861.468z" opacity=".2"/><path fill="#FA8B21" d="M498.828 306.413v1.401h-6.514v-1.401c-4.536-.117-9.072-.468-11.748-.935l3.49-2.218c3.024.467 7.095.817 10.585.817 3.024 0 4.187-.233 4.187-.467 0-1.168-17.796-.234-17.796-3.62 0-1.518 3.722-2.686 11.282-3.036v-1.401h6.514v1.401c3.373.117 6.746.35 9.305.817l-3.257 2.219c-3.14-.467-6.164-.701-8.956-.701-3.14 0-4.187.234-4.187.584 0 1.051 17.796.234 17.796 3.62 0 1.402-3.606 2.569-10.701 2.92z"/><path fill="#FFCE4F" d="M498.596 305.945v1.402h-6.514v-1.402c-4.536-.116-9.073-.467-11.748-.934l3.489-2.219c3.025.468 7.096.818 10.585.818 3.024 0 4.188-.234 4.188-.467 0-1.168-17.797-.234-17.797-3.62 0-1.518 3.722-2.686 11.283-3.036v-1.402h6.514v1.402c3.373.116 6.746.35 9.305.817l-3.257 2.219c-3.14-.467-6.165-.701-8.956-.701-3.141 0-4.188.234-4.188.584 0 1.051 17.797.234 17.797 3.62 0 1.401-3.606 2.569-10.701 2.919z"/><path fill="#FA8B21" d="M530.581 297.888c0 .116 0 .116 0 0 0 1.401-.698 2.685-1.977 3.97-.349.35-.698.584-1.047.817-1.047.818-2.443 1.518-4.071 2.219-.349.117-.698.35-1.047.467-1.279.467-2.559.934-4.071 1.401l-1.047.351c-1.279.35-2.675.7-4.071.934-.349.117-.698.117-1.047.233a272.83 272.83 0 01-4.071.701c-.349 0-.698.117-1.047.117-1.279.117-2.675.35-4.071.467-.349 0-.697.117-1.046.117-1.28.116-2.676.233-4.071.233h-1.047c-1.28 0-2.676.117-4.071.117h-1.047c-1.396 0-2.676 0-4.071-.117h-1.047c-1.047 0-1.978-.117-3.024-.117-.349 0-.698 0-1.047-.116-.349 0-.698 0-1.047-.117-1.396-.117-2.675-.234-4.071-.467-.349 0-.698-.117-1.047-.117l-2.443-.35c-.581-.117-1.046-.234-1.628-.234-.349-.117-.698-.117-1.047-.233-1.396-.234-2.791-.584-4.071-.935-.233-.116-.465-.116-.698-.233-.116 0-.232-.117-.349-.117-.581-.117-1.163-.35-1.628-.467-.814-.233-1.629-.584-2.327-.817-.348-.117-.697-.234-1.046-.467-1.396-.584-2.559-1.168-3.606-1.869-.116-.117-.349-.233-.465-.35-.233-.117-.349-.234-.582-.35-.233-.117-.349-.234-.582-.468-1.512-1.284-2.326-2.685-2.326-4.087v-8.524H530.465l.116 8.408z"/><path fill="#FA8B21" d="M457.187 289.48v13.428c-.233-.116-.349-.233-.582-.35-.233-.117-.349-.233-.582-.467v-12.728l1.164.117zM467.307 289.48v17.632c-.233-.117-.466-.117-.698-.233-.117 0-.233-.117-.349-.117v-17.399l1.047.117zM477.543 289.48v19.618c-.349 0-.698-.117-1.047-.117V289.48h1.047zM487.779 289.48v20.435h-1.047V289.48h1.047zM497.898 289.48v20.435h-1.046V289.48h1.046zM508.135 289.48v19.501c-.349 0-.698.117-1.047.117V289.48h1.047zM518.369 289.363v17.399l-1.047.35V289.48l1.047-.117zM528.488 289.363v12.494c-.349.351-.698.584-1.047.818v-13.312h1.047z"/><path fill="#FFCE4F" d="M530.581 289.48c0 6.072-17.215 10.977-38.384 10.977-2.908 0-5.7-.117-8.491-.234-3.373-.233-6.63-.584-9.654-1.051-2.676-.35-5.118-.934-7.445-1.518-.698-.117-1.396-.35-1.977-.584-2.792-.817-5.234-1.751-6.979-2.802-.349-.234-.698-.467-.931-.584-1.861-1.285-2.908-2.686-2.908-4.204v-.35c.698-5.839 17.681-10.51 38.385-10.51 5.118 0 10.003.234 14.423.818.814.116 1.745.233 2.559.35a68.7 68.7 0 019.771 1.985c.581.117 1.279.35 1.861.584 2.093.7 3.954 1.401 5.35 2.219 1.512.817 2.675 1.751 3.49 2.569.581.7.93 1.401.93 2.101v.234z"/><path fill="#fff" d="M529.537 287.028l-45.828 13.195c-3.373-.233-6.63-.583-9.654-1.051l51.993-14.83c1.512.818 2.675 1.752 3.489 2.686zM509.063 279.672l-51.412 14.597c-.349-.234-.698-.467-.93-.584l49.899-14.363 2.443.35zM520.695 282.124l-54.087 15.531c-.698-.117-1.396-.351-1.977-.584l54.203-15.531c.698.234 1.28.467 1.861.584z" opacity=".3"/><path fill="#FA8B21" d="M522.79 289.481v.35c-.698 4.671-14.191 8.291-30.708 8.291-16.4 0-29.893-3.737-30.707-8.291v-.35c0-4.788 13.725-8.758 30.707-8.758 16.983 0 30.708 3.97 30.708 8.758z"/><path fill="#FA8B21" d="M522.791 289.948c-.698 4.671-14.191 8.291-30.708 8.291h-1.047c-3.722 0-7.211-.234-10.468-.584-3.257-.351-6.165-.935-8.724-1.518-.698-.117-1.279-.351-1.861-.467-2.791-.818-5.001-1.752-6.397-2.92-.349-.233-.698-.467-.931-.817-.581-.584-1.046-1.285-1.163-1.985.698-4.671 14.191-8.408 30.708-8.408 2.093 0 4.071.117 6.048.117 1.047 0 1.977.117 2.908.233 3.955.351 7.56.935 10.701 1.635.698.117 1.279.35 1.977.467 2.443.701 4.42 1.518 5.933 2.336 1.512.817 2.442 1.751 2.907 2.802 0 .351.117.584.117.818z"/><path fill="#fff" d="M522.557 289.246l-31.522 8.992c-3.722 0-7.212-.234-10.469-.584l39.083-11.093c1.512.7 2.559 1.634 2.908 2.685zM501.154 281.89l-37.686 10.743c-.349-.234-.698-.467-.931-.817l35.593-10.16c1.047.117 2.094.234 3.024.234zM513.832 284.109l-41.873 11.911c-.698-.117-1.28-.35-1.861-.467l41.873-11.911c.582.117 1.164.234 1.861.467z" opacity=".2"/><path fill="#FA8B21" d="M496.385 294.502v1.401h-6.514v-1.401c-4.536-.117-9.073-.467-11.748-.934l3.49-2.219c3.024.467 7.095.818 10.584.818 3.024 0 4.188-.234 4.188-.468 0-1.167-17.797-.233-17.797-3.62 0-1.518 3.722-2.685 11.283-3.036v-1.401h6.514v1.401c3.373.117 6.746.351 9.305.818l-3.257 2.218c-3.14-.467-6.165-.7-8.956-.7-3.141 0-4.188.233-4.188.584 0 1.051 17.797.233 17.797 3.62 0 1.284-3.606 2.569-10.701 2.919z"/><path fill="#FFCE4F" d="M496.269 293.917v1.402h-6.513v-1.402c-4.537-.116-9.073-.467-11.748-.934l3.489-2.218c3.025.467 7.096.817 10.585.817 3.024 0 4.187-.234 4.187-.467 0-1.168-17.796-.234-17.796-3.62 0-1.518 3.722-2.686 11.283-3.036v-1.401h6.513v1.401c3.374.117 6.747.35 9.306.817l-3.257 2.219c-3.141-.467-6.165-.701-8.956-.701-3.141 0-4.188.234-4.188.584 0 1.051 17.797.234 17.797 3.62 0 1.401-3.606 2.569-10.702 2.919z"/><path fill="#FA8B21" d="M531.279 284.691s0 .117 0 0c0 1.402-.698 2.686-1.978 3.971-.349.35-.698.583-1.047.817-1.047.817-2.442 1.518-4.071 2.219-.349.116-.698.35-1.047.467-1.279.467-2.559.934-4.071 1.401l-1.046.35c-1.28.351-2.676.701-4.072.935-.348.116-.697.116-1.046.233-1.28.234-2.676.467-4.071.701-.349 0-.698.117-1.047.117-1.28.116-2.676.35-4.071.467-.349 0-.698.116-1.047.116-1.28.117-2.675.234-4.071.234h-1.047c-1.28 0-2.675.117-4.071.117h-1.047c-1.396 0-2.675 0-4.071-.117h-1.047c-1.047 0-1.977-.117-3.024-.117-.349 0-.698 0-1.047-.117-.349 0-.698 0-1.047-.116-1.396-.117-2.675-.234-4.071-.467-.349 0-.698-.117-1.047-.117l-2.442-.351c-.582-.116-1.047-.233-1.629-.233-.349-.117-.698-.117-1.047-.234-1.395-.233-2.791-.584-4.071-.934-.232-.117-.465-.117-.698-.233-.116 0-.232-.117-.349-.117-.581-.117-1.163-.35-1.628-.467-.814-.234-1.628-.584-2.326-.818-.349-.116-.698-.233-1.047-.467-1.396-.584-2.559-1.167-3.606-1.868-.116-.117-.349-.234-.465-.35-.233-.117-.349-.234-.582-.351-.232-.117-.349-.233-.581-.467-1.512-1.284-2.327-2.686-2.327-4.087v-8.524H531.162l.117 8.407z"/><path fill="#FA8B21" d="M457.884 276.283v13.429c-.233-.117-.349-.233-.582-.35-.232-.117-.349-.234-.581-.467v-12.728l1.163.116zM468.119 276.283v17.633c-.233-.117-.465-.117-.698-.234-.116 0-.232-.116-.349-.116v-17.399l1.047.116zM478.355 276.284v19.618c-.349 0-.697-.117-1.046-.117v-19.501h1.046zM488.475 276.167v20.435h-1.047v-20.435h1.047zM498.709 276.167v20.435h-1.047v-20.435h1.047zM508.945 276.167v19.501c-.349 0-.698.116-1.047.116v-19.617h1.047zM519.066 276.167v17.399l-1.046.35v-17.633l1.046-.116zM529.303 276.167v12.494c-.349.35-.698.584-1.047.818v-13.312h1.047z"/><path fill="#FFCE4F" d="M531.278 276.283c0 6.072-17.214 10.977-38.384 10.977-2.908 0-5.699-.117-8.491-.234-3.373-.233-6.63-.584-9.654-1.051-2.676-.467-5.118-.934-7.444-1.518-.698-.116-1.396-.35-1.978-.584-2.791-.817-5.234-1.751-6.979-2.802-.349-.234-.698-.467-.93-.584-1.861-1.284-2.908-2.686-2.908-4.204v-.35c.698-5.839 17.68-10.51 38.384-10.51 5.118 0 10.003.234 14.423.818.814.117 1.745.233 2.559.35a68.7 68.7 0 019.771 1.985c.581.117 1.279.351 1.861.584 2.094.701 3.955 1.401 5.35 2.219 1.512.817 2.676 1.751 3.49 2.569.581.7.93 1.401.93 2.102v.233z"/><path fill="#FA8B21" d="M523.6 276.283v.35c-.697 4.671-14.19 8.291-30.707 8.291-16.401 0-29.893-3.737-30.707-8.291v-.35c0-4.788 13.725-8.758 30.707-8.758s30.707 3.853 30.707 8.758z"/><path fill="#FA8B21" d="M523.601 276.633c-.698 4.671-14.19 8.291-30.707 8.291h-1.047c-3.722 0-7.212-.233-10.468-.584-3.257-.35-6.165-.934-8.724-1.518-.698-.117-1.28-.35-1.861-.467-2.792-.817-5.002-1.752-6.398-2.919-.349-.234-.697-.467-.93-.818-.582-.584-1.047-1.284-1.163-1.985.698-4.671 14.19-8.407 30.707-8.407 2.094 0 4.071.116 6.049.116 1.046 0 1.977.117 2.908.234 3.954.35 7.56.934 10.701 1.635.697.116 1.279.35 1.977.467 2.443.7 4.42 1.518 5.932 2.335 1.512.818 2.443 1.752 2.908 2.803 0 .35 0 .584.116.817z"/><path fill="#FA8B21" d="M497.197 281.188v1.401h-6.514v-1.401c-4.536-.117-9.072-.467-11.747-.934l3.489-2.219c3.024.467 7.095.818 10.585.818 3.024 0 4.187-.234 4.187-.468 0-1.167-17.796-.233-17.796-3.62 0-1.518 3.722-2.685 11.282-3.036v-1.401h6.514v1.401c3.373.117 6.747.351 9.305.818l-3.256 2.218c-3.141-.467-6.165-.7-8.957-.7-3.14 0-4.187.233-4.187.584 0 1.051 17.796.233 17.796 3.62 0 1.401-3.606 2.569-10.701 2.919z"/><path fill="#FFCE4F" d="M496.965 280.72v1.401h-6.514v-1.401c-4.536-.117-9.073-.467-11.748-.934l3.49-2.219c3.024.467 7.095.818 10.584.818 3.025 0 4.188-.234 4.188-.467 0-1.168-17.797-.234-17.797-3.62 0-1.518 3.722-2.686 11.283-3.036v-1.402h6.514v1.402c3.373.116 6.746.35 9.305.817l-3.257 2.219c-3.14-.467-6.165-.701-8.956-.701-3.141 0-4.188.234-4.188.584 0 1.051 17.797.233 17.797 3.62 0 1.401-3.606 2.569-10.701 2.919z"/><path fill="#FF8697" d="M489.057 102.877h-10.702c-4.187 0-7.56-3.387-7.56-7.59V84.543c0-4.204 3.373-7.59 7.56-7.59h10.702c4.187 0 7.56 3.386 7.56 7.59v10.743c0 4.204-3.373 7.591-7.56 7.591z"/><path fill="#fff" d="M475.449 86.762c0-2.335 1.512-3.62 3.49-3.62 1.977 0 3.489 1.285 3.489 3.62s-1.512 3.62-3.489 3.62c-1.978 0-3.49-1.285-3.49-3.62zm11.167-3.503h3.14L480.8 96.454h-3.141l8.957-13.195zm-6.863 3.503c0-1.284-.465-1.635-.814-1.635-.466 0-.815.35-.815 1.635 0 1.284.466 1.635.815 1.635.349 0 .814-.35.814-1.635zm5.234 6.189c0-2.335 1.512-3.62 3.49-3.62 1.977 0 3.489 1.284 3.489 3.62 0 2.336-1.512 3.62-3.489 3.62-1.978.117-3.49-1.284-3.49-3.62zm4.304 0c0-1.284-.465-1.635-.814-1.635-.466 0-.815.35-.815 1.635 0 1.285.466 1.635.815 1.635.465 0 .814-.35.814-1.635z"/><defs><linearGradient id="paint0_linear" x1="305.189" x2="292.597" y1="6.296" y2="16.489" gradientUnits="userSpaceOnUse"><stop stop-color="#00C6FB"/><stop offset="1" stop-color="#005BEA"/></linearGradient><linearGradient id="paint1_linear" x1="132.205" x2="119.568" y1="117.318" y2="127.456" gradientUnits="userSpaceOnUse"><stop stop-color="#00C6FB"/><stop offset="1" stop-color="#005BEA"/></linearGradient><linearGradient id="paint2_linear" x1="208.893" x2="192.958" y1="198.968" y2="201.885" gradientUnits="userSpaceOnUse"><stop stop-color="#00C6FB"/><stop offset="1" stop-color="#005BEA"/></linearGradient><linearGradient id="paint3_linear" x1="15" x2="1204.5" y1="139.787" y2="139.787" gradientUnits="userSpaceOnUse"><stop stop-color="#00C6FB" stop-opacity="0"/><stop offset=".214" stop-color="#00C6FB"/><stop offset=".802" stop-color="#005BEA"/><stop offset="1" stop-color="#005BEA" stop-opacity="0"/></linearGradient><linearGradient id="paint4_linear" x1="15" x2="1204.5" y1="201.286" y2="201.286" gradientUnits="userSpaceOnUse"><stop stop-color="#00C6FB" stop-opacity="0"/><stop offset=".214" stop-color="#00C6FB"/><stop offset=".802" stop-color="#005BEA"/><stop offset="1" stop-color="#005BEA" stop-opacity="0"/></linearGradient><linearGradient id="paint5_linear" x1="15" x2="1204.5" y1="61.287" y2="61.287" gradientUnits="userSpaceOnUse"><stop stop-color="#00C6FB" stop-opacity="0"/><stop offset=".214" stop-color="#00C6FB"/><stop offset=".802" stop-color="#005BEA"/><stop offset="1" stop-color="#005BEA" stop-opacity="0"/></linearGradient></defs></svg>