<svg width="192" height="225" fill="none" xmlns="http://www.w3.org/2000/svg"><g clip-path="url(#a)"><path d="M184.5 87.232v56.658h-36.9v45.86H91.579v-45.86H70.704C31.721 143.878 0 111.808 0 72.382v-.875C0 32.082 31.721 0 70.704 0h6.192C115.879 0 147.6 32.082 147.6 71.507v15.725h36.9Zm-92.921 0V71.507c0-8.184-6.59-14.85-14.683-14.85h-6.192c-8.092 0-14.682 6.666-14.682 14.85v.875c0 8.185 6.59 14.85 14.682 14.85H91.58Z" fill="#FF8F23"/><path d="M188.25 93.98v43.165h-44.101v52.605h-43.203v-52.605h-27.88c-35.738 0-64.816-29.053-64.816-64.76v-.875c0-35.707 29.078-64.76 64.816-64.76h6.267c35.737 0 64.816 29.053 64.816 64.76v22.47h44.101Zm-87.304 0V71.51c0-11.914-9.7-21.594-21.613-21.594h-6.267c-11.924 0-21.613 9.692-21.613 21.594v.875c0 11.914 9.7 21.594 21.613 21.594h27.88Z" fill="#fff" fill-opacity=".38"/><path opacity=".85" d="M9.75 71.507v.875c0 35.708 28.728 64.762 64.034 64.762h27.556v52.606h42.682v-52.606h16.788V93.977h-16.788v-22.47c0-35.707-28.728-64.761-64.034-64.761h-6.192C38.478 6.746 9.75 35.8 9.75 71.507Zm70.226-21.595c11.78 0 21.352 9.693 21.352 21.595v22.47H73.784c-11.78 0-21.352-9.692-21.352-21.595v-.875c0-11.914 9.584-21.595 21.352-21.595h6.192Z" fill="#fff" fill-opacity=".13"/><path d="M9.75 71.507v.875c0 35.708 28.728 64.762 64.034 64.762h10.654V93.977H73.784c-11.78 0-21.352-9.692-21.352-21.595v-.875c0-11.914 9.584-21.595 21.352-21.595h6.192c11.78 0 21.352 9.693 21.352 21.595V225h42.682V71.507c0-35.707-28.727-64.761-64.034-64.761h-6.192C38.478 6.746 9.75 35.8 9.75 71.507Z" fill="#fff" fill-opacity=".38"/><path d="M184.51 114.202h-3.608v2.694h3.608v-2.694ZM173.584 114.202v2.694h-7.318v-2.694h7.318Zm-14.637 0v2.694h-7.318v-2.694h7.318Zm-14.625 0v2.694h-3.381v-2.694h3.381Zm-23.39-42.695v3.465h-2.663v-3.465c0-1.289-.057-2.555-.171-3.81l2.652-.242c.114 1.347.182 2.706.182 4.052Zm0 10.867v7.402h-2.663v-7.402h2.663Zm0 14.792v7.401h-2.663v-7.401h2.663Zm0 14.803v7.402h-2.663v-7.402h2.663Zm0 14.803v7.402h-2.663v-7.402h2.663Zm0 14.804v7.401h-2.663v-7.401h2.663Zm0 14.792v7.401h-2.663v-7.401h2.663Zm0 14.803v7.402h-2.663v-7.402h2.663Zm-1.502-111.22-2.584.701a42.22 42.22 0 0 0-2.413-6.722l2.413-1.14a42.938 42.938 0 0 1 2.584 7.16Zm-6.317-13.78-2.197 1.543a42.557 42.557 0 0 0-4.507-5.514l1.9-1.888a43.614 43.614 0 0 1 4.804 5.86ZM102.596 35.34l-1.56 2.187a39.95 39.95 0 0 0-6.078-3.672l1.173-2.428a45.311 45.311 0 0 1 6.465 3.913Zm-4.45 78.863v2.694h-5.043v-2.694h5.043Zm-9.06-85.493-.74 2.59a41.436 41.436 0 0 0-6.943-1.381l.284-2.683c2.504.277 4.997.772 7.398 1.474Zm-3.301 85.493v2.694h-7.319v-2.694h7.319Zm-11.541-87.22v2.694h-3.54c-1.23 0-2.447.057-3.654.16l-.239-2.681a43.65 43.65 0 0 1 3.893-.173h3.54Zm-3.096 87.22v2.694h-.444a43.87 43.87 0 0 1-7.057-.576l.421-2.659c2.186.357 4.416.53 6.636.53h.444v.011ZM60.073 31.069a40.477 40.477 0 0 0-6.658 2.429l-1.116-2.452a43.211 43.211 0 0 1 7.091-2.579l.683 2.602Zm-2.857 80.866-.865 2.555a43.594 43.594 0 0 1-6.886-3.096l1.286-2.36a41.98 41.98 0 0 0 6.465 2.901ZM47.27 37.031a42.445 42.445 0 0 0-5.464 4.547l-1.866-1.934a45.037 45.037 0 0 1 5.816-4.834l1.514 2.221Zm-2.413 68.008-1.662 2.107a43.833 43.833 0 0 1-5.452-5.249l2.003-1.784a41.638 41.638 0 0 0 5.11 4.926ZM37.173 47a41.558 41.558 0 0 0-3.642 6.136l-2.402-1.186a45.435 45.435 0 0 1 3.881-6.539l2.163 1.59ZM35.51 94.357l-2.276 1.416a44.438 44.438 0 0 1-3.404-6.792l2.47-1.001a43.33 43.33 0 0 0 3.21 6.377Zm-4.53-34.545a42.296 42.296 0 0 0-1.377 7.022l-2.652-.3a45.15 45.15 0 0 1 1.468-7.47l2.561.748Zm-.728 21.319-2.607.564a45.463 45.463 0 0 1-.933-7.563l2.663-.104c.091 2.383.387 4.777.877 7.103ZM120.921 186.101h-2.663v3.638h2.663v-3.638ZM120.921 193.5h-2.663v3.637h2.663V193.5ZM120.921 200.899h-2.663v3.637h2.663v-3.637ZM120.921 208.298h-2.663v3.637h2.663v-3.637ZM120.921 215.697h-2.663v3.637h2.663v-3.637ZM120.921 223.096h-2.663v3.637h2.663v-3.637Z" fill="#FF8F23"/></g><defs><clipPath id="a"><path fill="#fff" d="M0 0h192v225H0z"/></clipPath></defs></svg>