<svg xmlns="http://www.w3.org/2000/svg" fill="none" viewBox="0 0 256 300"><defs/><g clip-path="url(#clip0)"><path fill="#FF8F23" d="M246 116.309v75.544h-49.2V253h-74.695v-61.147H94.272C42.295 191.837 0 149.077 0 96.51v-1.167C0 42.775 42.295 0 94.272 0h8.256C154.505 0 196.8 42.776 196.8 95.343v20.966H246zm-123.895 0V95.343c0-10.913-8.787-19.8-19.577-19.8h-8.256c-10.79 0-19.577 8.887-19.577 19.8v1.167c0 10.912 8.787 19.799 19.577 19.799h27.833z"/><path fill="#fff" fill-opacity=".38" d="M251 125.306v57.554h-58.802V253h-57.604v-70.14H97.421C49.77 182.86 11 144.122 11 96.513v-1.166C11 47.738 49.771 9 97.42 9h8.357c47.65 0 86.421 38.738 86.421 86.347v29.959H251zm-116.406 0V95.347c0-15.885-12.933-28.793-28.817-28.793h-8.356c-15.899 0-28.817 12.923-28.817 28.793v1.166c0 15.885 12.934 28.793 28.817 28.793h37.173z"/><path fill="#fff" fill-opacity=".13" d="M13 95.343v1.167c0 47.61 38.304 86.349 85.38 86.349h36.74V253h56.909v-70.141h22.384v-57.556h-22.384v-29.96c0-47.61-38.304-86.349-85.379-86.349h-8.256C51.304 8.994 13 47.733 13 95.344zm93.635-28.793c15.707 0 28.47 12.923 28.47 28.793v29.96H98.379c-15.707 0-28.47-12.923-28.47-28.793v-1.167c0-15.885 12.778-28.793 28.47-28.793h8.256z" opacity=".85"/><path fill="#fff" fill-opacity=".38" d="M13 95.343v1.167c0 47.61 38.304 86.349 85.38 86.349h14.204v-57.556H98.379c-15.707 0-28.47-12.923-28.47-28.793v-1.167c0-15.885 12.778-28.793 28.47-28.793h8.256c15.707 0 28.47 12.923 28.47 28.793V300h56.909V95.343c0-47.61-38.304-86.349-85.379-86.349h-8.256C51.304 8.994 13 47.733 13 95.344z"/><path fill="#FF8F23" d="M246.014 152.27h-4.811v3.591h4.811v-3.591zM231.446 152.27v3.591h-9.758v-3.591h9.758zm-19.516 0v3.591h-9.758v-3.591h9.758zm-19.501 0v3.591h-4.507v-3.591h4.507zm-31.186-56.927v4.62h-3.552v-4.62c0-1.719-.075-3.407-.227-5.08l3.536-.322c.152 1.795.243 3.606.243 5.402zm0 14.489v9.869h-3.552v-9.869h3.552zm0 19.722v9.869h-3.552v-9.869h3.552zm0 19.738v9.869h-3.552v-9.869h3.552zm0 19.738v9.869h-3.552v-9.869h3.552zm0 19.738v9.869h-3.552v-9.869h3.552zm0 19.722v9.869h-3.552v-9.869h3.552zm0 19.738v9.869h-3.552v-9.869h3.552zm-2.004-148.294l-3.444.936a56.196 56.196 0 00-3.218-8.964l3.218-1.519a57.273 57.273 0 013.444 9.547zm-8.422-18.372l-2.929 2.056a56.685 56.685 0 00-6.01-7.351l2.535-2.517a58.21 58.21 0 016.404 7.812zm-14.023-14.443l-2.079 2.916a53.266 53.266 0 00-8.104-4.896l1.564-3.238a60.372 60.372 0 018.619 5.218zm-5.933 105.151v3.591h-6.723v-3.591h6.723zm-12.08-113.991l-.987 3.453a55.264 55.264 0 00-9.257-1.842l.379-3.576a57.877 57.877 0 019.865 1.965zM114.38 152.27v3.591h-9.758v-3.591h9.758zM98.991 35.976v3.592h-4.72c-1.638 0-3.262.077-4.87.215l-.32-3.577a58.225 58.225 0 015.19-.23h4.72zM94.864 152.27v3.591h-.592c-3.142 0-6.313-.261-9.41-.767l.562-3.546c2.914.476 5.888.706 8.848.706h.592v.016zM80.097 41.425a53.971 53.971 0 00-8.877 3.238l-1.488-3.269a57.616 57.616 0 019.455-3.438l.91 3.469zm-3.809 107.821l-1.153 3.407a58.044 58.044 0 01-9.181-4.128l1.715-3.147a55.853 55.853 0 008.62 3.868zm-13.263-99.87a56.587 56.587 0 00-7.285 6.062l-2.489-2.579a60.053 60.053 0 017.755-6.446l2.019 2.962zm-3.218 90.677l-2.215 2.808a58.408 58.408 0 01-7.27-6.998l2.671-2.379a55.601 55.601 0 006.814 6.569zM49.564 62.667a55.394 55.394 0 00-4.856 8.18l-3.203-1.58a60.592 60.592 0 015.175-8.718l2.884 2.118zm-2.216 63.142l-3.035 1.888a59.242 59.242 0 01-4.538-9.055l3.294-1.335a57.767 57.767 0 004.28 8.502zm-6.04-46.06a56.407 56.407 0 00-1.836 9.363l-3.536-.4a60.184 60.184 0 011.958-9.96l3.414.997zm-.971 28.425l-3.475.752a60.608 60.608 0 01-1.245-10.083l3.551-.139c.122 3.178.516 6.37 1.169 9.47zM161.227 248.135h-3.551v4.85h3.551v-4.85zM161.227 258h-3.551v4.85h3.551V258zM161.227 267.865h-3.551v4.85h3.551v-4.85zM161.227 277.731h-3.551v4.85h3.551v-4.85zM161.227 287.596h-3.551v4.85h3.551v-4.85zM161.227 297.461h-3.551v4.85h3.551v-4.85z"/></g><defs><clipPath id="clip0"><path fill="#fff" d="M0 0h256v300H0z"/></clipPath></defs></svg>