<svg xmlns="http://www.w3.org/2000/svg" fill="none" viewBox="0 0 27 27">
	<defs/>
	<g clip-path="url(#clip0)">
		<path fill="#fff" d="M26.67 25.08l-7.678-7.678a10.635 10.635 0 002.383-6.714C21.375 4.796 16.58.001 10.687.001 4.795.001 0 4.796 0 10.688c0 5.893 4.795 10.688 10.687 10.688 2.543 0 4.877-.896 6.714-2.383l7.678 7.678a1.122 1.122 0 001.591 0c.44-.44.44-1.15 0-1.59zm-15.983-5.954c-4.653 0-8.437-3.785-8.437-8.438 0-4.653 3.784-8.437 8.437-8.437s8.438 3.784 8.438 8.437-3.785 8.438-8.438 8.438z"/>
	</g>
	<defs>
		<clipPath id="clip0">
			<path fill="#fff" d="M0 0h27v27H0z"/>
		</clipPath>
	</defs>
</svg>