<svg width="16" height="16" viewBox="0 0 16 16" fill="none" xmlns="http://www.w3.org/2000/svg">
<path d="M8 8C9.10457 8 10 7.10457 10 6C10 4.89543 9.10457 4 8 4C6.89543 4 6 4.89543 6 6C6 7.10457 6.89543 8 8 8Z" fill="black"/>
<path fill-rule="evenodd" clip-rule="evenodd" d="M14 6C14 7.33918 13.5613 8.57588 12.8197 9.57422L7.99994 16L3.1803 9.57422C2.43873 8.57588 2 7.33918 2 6C2 2.68629 4.68629 0 8 0C11.3137 0 14 2.68629 14 6ZM12 6C12 6.89359 11.7093 7.71351 11.2167 8.37817L7.99996 12.6668L4.78334 8.37826C4.29068 7.71358 4 6.89363 4 6C4 3.79086 5.79086 2 8 2C10.2091 2 12 3.79086 12 6Z" fill="black"/>
</svg>
