<svg width="48" height="48" fill="none" xmlns="http://www.w3.org/2000/svg"><rect width="48" height="48" rx="24" fill="#4285F4"/><g fill="#fff"><path d="M20.798 15.769a.3.3 0 00-.425 0L18.55 17.59a.3.3 0 000 .425l5.34 5.34a.3.3 0 00.425 0l10.672-10.673a.3.3 0 000-.424l-1.822-1.823a.3.3 0 00-.425 0l-8.638 8.637-3.304-3.304zm18.077 3.548a2.238 2.238 0 00-.81-1.12l-4.497-3.245-.86.861 4.598 3.319.055.04c.049.034.086.084.127.128.01.01.022.02.031.031a.297.297 0 01-.124.35L10.361 36.14c.274.119.576.186.893.186h25.492A2.257 2.257 0 0039 34.073V20.024c0-.222-.04-.454-.125-.707z"/><path d="M10.511 19.3c.042-.044.079-.093.127-.128l12.746-9.197a1.05 1.05 0 011.232 0l4.493 3.242.86-.861L25.32 9a2.25 2.25 0 00-2.638 0L9.935 18.197a2.24 2.24 0 00-.81 1.12 2.23 2.23 0 00-.125.707v14.05c0 .684.314 1.292.798 1.706l13.89-8.457L10.51 19.3z"/></g></svg>