<svg width="48" height="48" fill="none" xmlns="http://www.w3.org/2000/svg"><rect width="48" height="48" rx="24" fill="#675DA9"/><g fill="#fff"><path d="M35.754 12.184c-.794-.73-4.008-3.066-11.172-3.098 0 0-8.445-.512-12.562 3.265-2.292 2.292-3.099 5.64-3.182 9.802-.083 4.155-.192 11.947 7.318 14.06h.006l-.006 3.22s-.045 1.306.813 1.569c1.037.32 1.652-.673 2.644-1.742a95.936 95.936 0 001.863-2.106c5.135.429 9.085-.557 9.533-.705 1.038-.339 6.909-1.088 7.862-8.88.986-8.015-.48-13.092-3.117-15.384zm.87 14.822c-.806 6.505-5.563 6.914-6.44 7.196-.372.122-3.842.986-8.208.698 0 0-3.253 3.925-4.264 4.943-.16.16-.346.224-.468.192-.172-.045-.224-.25-.217-.55 0-.436.025-5.36.025-5.36-.006 0-.006 0 0 0-6.357-1.76-5.986-8.393-5.915-11.863.07-3.47.723-6.32 2.663-8.234 3.476-3.15 10.653-2.682 10.653-2.682 6.057.025 8.957 1.85 9.63 2.458 2.234 1.921 3.374 6.499 2.541 13.202z"/><path d="M27.533 22.384a.406.406 0 01-.403-.385c-.07-1.376-.717-2.048-2.036-2.119a.408.408 0 01.044-.813c1.742.096 2.715 1.095 2.805 2.887a.398.398 0 01-.384.423c-.013.007-.02.007-.026.007z"/><path d="M29.607 23.075h-.006a.407.407 0 01-.397-.416c.032-1.383-.365-2.503-1.21-3.425-.839-.922-1.998-1.422-3.528-1.53a.403.403 0 01-.371-.436.403.403 0 01.435-.371c1.729.128 3.093.73 4.066 1.792.98 1.07 1.453 2.408 1.421 3.99a.41.41 0 01-.41.396z"/><path d="M31.733 23.907a.402.402 0 01-.404-.403c-.019-2.478-.73-4.367-2.176-5.782-1.428-1.395-3.24-2.106-5.372-2.125a.407.407 0 010-.813c2.35.019 4.347.806 5.929 2.356 1.587 1.55 2.4 3.688 2.426 6.351a.4.4 0 01-.403.416c.006 0 .006 0 0 0zm-6.543 3.489s.57.052.877-.326l.595-.75c.288-.37.986-.607 1.665-.23.378.212 1.063.634 1.485.948a39.018 39.018 0 011.383 1.107c.442.372.544.916.243 1.499v.013a6.244 6.244 0 01-1.242 1.53c-.006 0-.006.006-.013.006-.428.359-.851.563-1.26.608-.052.013-.11.013-.186.013a1.76 1.76 0 01-.538-.083l-.013-.02c-.64-.179-1.703-.627-3.47-1.606a20.598 20.598 0 01-2.92-1.928 14.87 14.87 0 01-1.312-1.165l-.045-.044-.045-.045-.044-.045-.045-.045a16.078 16.078 0 01-1.165-1.312 20.245 20.245 0 01-1.928-2.92c-.98-1.773-1.427-2.836-1.607-3.47l-.019-.013a1.744 1.744 0 01-.07-.723c.051-.416.256-.833.608-1.261 0-.007.006-.007.006-.013a6.103 6.103 0 011.53-1.242h.013c.577-.301 1.12-.199 1.499.243 0 0 .774.928 1.107 1.383.314.429.736 1.107.948 1.485.377.679.14 1.377-.23 1.665l-.75.595c-.378.308-.326.877-.326.877s1.107 4.213 5.269 5.27z"/></g></svg>