<svg height="512pt" viewBox="0 0 512 512" width="512pt" xmlns="http://www.w3.org/2000/svg"><path d="M496.887 81.684l-22.68-22.68 26.121-26.121c5.86-5.856 5.86-15.356 0-21.211-5.86-5.86-15.355-5.86-21.215 0l-26.12 26.117-22.677-22.68C418.79 3.586 402.281-1.848 386.148.563L292.18 14.624c-10.883 1.629-21.16 6.813-28.942 14.594L15.137 277.316c-20.168 20.168-20.184 52.965-.043 73.11l146.48 146.476C171.637 506.97 184.86 512 198.086 512c13.25 0 26.504-5.047 36.594-15.14l248.1-248.099c7.781-7.785 12.965-18.063 14.594-28.942l14.063-93.968c2.414-16.133-3.024-32.641-14.551-44.168zm-15.121 39.726l-14.063 93.973a21.906 21.906 0 01-6.137 12.164L213.47 475.645c-4.11 4.109-9.563 6.37-15.364 6.375h-.02c-5.78 0-11.214-2.247-15.296-6.332L36.31 329.21a21.505 21.505 0 01-6.332-15.316 21.628 21.628 0 016.375-15.364l248.1-248.096a21.904 21.904 0 0112.168-6.137l93.969-14.063a21.244 21.244 0 013.18-.234c5.699 0 11.261 2.258 15.332 6.328l22.68 22.676-24.622 24.621a46.011 46.011 0 00-20.277-4.676c-12.328 0-23.922 4.805-32.645 13.524-17.996 18-17.996 47.289.004 65.285 8.719 8.719 20.313 13.523 32.64 13.523 12.333 0 23.927-4.804 32.645-13.523s13.524-20.313 13.524-32.64a46.011 46.011 0 00-4.676-20.278l24.621-24.621 22.676 22.68c4.828 4.828 7.105 11.75 6.094 18.511zm-78.72 3.703c0 4.32-1.679 8.38-4.733 11.43a16.059 16.059 0 01-11.43 4.734 16.04 16.04 0 01-11.426-4.734c-6.3-6.3-6.3-16.559 0-22.86 3.05-3.05 7.11-4.73 11.426-4.73 4.32 0 8.379 1.68 11.43 4.73a16.056 16.056 0 014.734 11.43zm0 0"/><path d="M183.746 228.352c-5.855-5.86-15.355-5.86-21.21 0l-69.052 69.046c-5.855 5.86-5.855 15.36 0 21.215a14.957 14.957 0 0010.61 4.395c3.836 0 7.676-1.465 10.605-4.395l69.047-69.047c5.86-5.859 5.86-15.355 0-21.214zm105.766-5.868c-5.856-5.855-15.356-5.855-21.211 0L143.426 347.36c-5.86 5.86-5.86 15.356 0 21.215a14.955 14.955 0 0010.605 4.395c3.84 0 7.68-1.465 10.61-4.395L289.51 243.7c5.86-5.855 5.86-15.355 0-21.215zm28.738 49.95L193.375 397.309c-5.86 5.859-5.86 15.355 0 21.214a14.957 14.957 0 0010.61 4.395c3.835 0 7.675-1.465 10.605-4.395l124.87-124.875c5.86-5.855 5.86-15.355 0-21.214-5.855-5.856-15.355-5.856-21.21 0zm0 0"/></svg>