<svg xmlns="http://www.w3.org/2000/svg" version="1.1" id="Layer_1" x="0" y="0" xml:space="preserve" width="512" height="512"><style>.st5{fill:#ffc34c}.st7{fill:#ffa730}.st16{fill:#e58d23}</style><path class="st7" d="M189.169 220.127v258.006c0 4.715 5.242 6.893 7.998 3.323l55.386-71.761c1.816-2.352 5.077-2.352 6.893 0l55.386 71.761c2.756 3.57 7.998 1.392 7.998-3.323V220.127H189.169z"/><path class="st16" d="M229.169 220.127h-40v258.006c0 4.715 5.242 6.894 7.998 3.323l32.002-41.463V220.127z"/><path d="M303.635 426.482a6 6 0 01-6-6V352.24a6 6 0 0112 0v68.242a6 6 0 01-6 6z" fill="#ffb74b"/><circle class="st16" cx="254.056" cy="336.933" r="15.815"/><path d="M255.558 318.45c-3.41-.01-6.673-1.851-8.468-4.803-11.201-18.419-30.739-29.415-52.266-29.415a60.922 60.922 0 00-19.697 3.268 10.018 10.018 0 01-3.233.539 10.062 10.062 0 01-7.149-3.02 9.912 9.912 0 01-2.84-7.209l.021-.698c.01-.273.02-.515.02-.759 0-27.032-17.348-50.517-43.169-58.437a9.964 9.964 0 01-6.667-6.771l-.063-.214a10.046 10.046 0 011.581-8.783c7.554-10.02 11.785-21.882 12.271-34.348.521-13.415-3.674-27.129-11.813-38.618a7.869 7.869 0 01-1.05-6.98l.343-1.04c.041-.124.411-1.215.739-2.176a7.804 7.804 0 015.509-5.072l1.144-.287c27.188-6.831 46.176-31.205 46.176-59.273 0-.294-.011-.585-.021-.877l-.021-.754a9.956 9.956 0 014.346-8.519c.157-.108.744-.492.744-.492l.276-.178a9.947 9.947 0 015.262-1.497c1.323 0 2.614.257 3.837.766l.161.067c7.399 3.055 15.236 4.604 23.296 4.604 19.515 0 38.022-9.458 49.509-25.3a10.031 10.031 0 018.097-4.13 9.913 9.913 0 017.993 3.992c11.673 15.531 29.492 24.438 48.888 24.438 2.303 0 4.644-.127 6.959-.378 2.824-.307 5.847-.895 9.239-1.8a9.115 9.115 0 017.651 1.395l.345.248c.151.108 1 .735 1 .735a9.108 9.108 0 013.74 7.598l-.029 1.129c-.012.348-.023.649-.023.953 0 26.867 17.986 50.959 43.74 58.587a10.024 10.024 0 016.604 6.299 10.02 10.02 0 01-1.262 9.038c-7.25 10.319-11.082 22.449-11.082 35.076 0 13.125 4.113 25.643 11.896 36.203a9.913 9.913 0 011.521 8.828 9.912 9.912 0 01-6.159 6.504c-23.957 8.7-40.134 31.677-40.252 57.177-.025 5.49-4.508 9.958-9.992 9.958a10 10 0 01-3.226-.536 61.034 61.034 0 00-19.67-3.253c-22.786 0-43.518 12.546-54.131 32.749l-.053.101a9.985 9.985 0 01-8.779 5.367l-1.212.009-.581-.011z" fill="#ff624b"/><path d="M276.824 284.231a60.922 60.922 0 00-19.697 3.268 10.018 10.018 0 01-3.233.539 10.062 10.062 0 01-7.149-3.02 9.912 9.912 0 01-2.84-7.209l.021-.698c.01-.273.02-.515.02-.759 0-27.032-17.348-50.517-43.169-58.437a9.964 9.964 0 01-6.667-6.771l-.063-.214a10.046 10.046 0 011.581-8.783c7.554-10.02 11.785-21.882 12.271-34.348.521-13.415-3.674-27.129-11.813-38.618a7.869 7.869 0 01-1.05-6.98l.343-1.04c.041-.124.411-1.215.739-2.176a7.804 7.804 0 015.509-5.072l1.144-.287c27.188-6.831 46.176-31.205 46.176-59.273 0-.294-.011-.585-.021-.877l-.021-.754a9.956 9.956 0 014.346-8.519c.157-.108.744-.492.744-.492l.276-.178a9.947 9.947 0 015.262-1.497c1.323 0 2.614.257 3.837.766l.161.067c7.399 3.055 15.236 4.604 23.296 4.604 6.15 0 12.199-.944 17.961-2.726-13.599-3.284-25.682-11.162-34.363-22.712a9.913 9.913 0 00-7.993-3.992 10.03 10.03 0 00-8.097 4.13c-11.486 15.842-29.994 25.3-49.509 25.3-8.06 0-15.896-1.549-23.296-4.604l-.161-.067a9.935 9.935 0 00-3.837-.766c-1.87 0-3.681.516-5.262 1.497l-.276.178s-.587.384-.744.492a9.959 9.959 0 00-4.346 8.519l.021.754c.01.292.021.583.021.877 0 28.069-18.988 52.443-46.176 59.273l-1.144.287a7.805 7.805 0 00-5.509 5.072c-.328.961-.698 2.052-.739 2.176l-.343 1.04a7.868 7.868 0 001.05 6.98c8.14 11.488 12.335 25.203 11.813 38.618-.485 12.465-4.717 24.328-12.271 34.348a10.047 10.047 0 00-1.581 8.783l.063.214a9.964 9.964 0 006.667 6.771c25.821 7.92 43.169 31.405 43.169 58.437 0 .244-.01.486-.02.759l-.021.698a9.908 9.908 0 002.84 7.209 10.062 10.062 0 007.149 3.02 9.982 9.982 0 003.233-.539 60.95 60.95 0 0119.697-3.268c21.526 0 41.064 10.996 52.266 29.415 1.795 2.952 5.058 4.793 8.468 4.803l.578.007 1.212-.009a9.983 9.983 0 008.779-5.367l.053-.101c6.169-11.743 15.761-20.892 27.184-26.501a61.78 61.78 0 00-16.539-2.247z" fill="#ff4b34"/><circle class="st5" cx="256" cy="168.162" r="105.295"/><circle cx="256" cy="168.162" r="85.295" fill="#fce575"/><path class="st5" d="M250.249 115.699l-11.307 22.91a8.016 8.016 0 01-6.036 4.385l-25.282 3.674c-5.26.764-7.361 7.229-3.554 10.939l18.295 17.833a8.018 8.018 0 012.306 7.096l-4.319 25.18c-.899 5.239 4.6 9.234 9.305 6.761l22.613-11.888a8.016 8.016 0 017.461 0l22.613 11.888c4.705 2.474 10.204-1.522 9.305-6.761l-4.319-25.18a8.016 8.016 0 012.306-7.096l18.294-17.833c3.806-3.71 1.706-10.175-3.554-10.939l-25.282-3.674a8.016 8.016 0 01-6.036-4.385l-11.307-22.91c-2.353-4.767-9.149-4.767-11.502 0z"/><path d="M284.502 241.002a6 6 0 01-2.261-11.56c.26-.106 26.08-10.869 33.055-32.299a5.998 5.998 0 017.563-3.848 6 6 0 013.848 7.562c-8.724 26.803-38.684 39.191-39.955 39.705a6.005 6.005 0 01-2.25.44z" fill="#fff4c1"/><path class="st7" d="M245.67 187.535a8.016 8.016 0 00-2.306-7.096l-18.294-17.833c-3.806-3.71-1.706-10.175 3.554-10.939l25.282-3.674a8.018 8.018 0 006.036-4.385l7.792-15.787-5.983-12.123c-2.353-4.767-9.149-4.767-11.502 0l-11.307 22.91a8.016 8.016 0 01-6.036 4.385l-25.282 3.674c-5.26.764-7.361 7.229-3.554 10.939l18.294 17.833a8.021 8.021 0 012.306 7.096l-4.319 25.18c-.898 5.239 4.6 9.234 9.305 6.761l12.522-6.583 3.492-20.358z"/><path d="M347.295 168.162c0 4.697-.357 9.311-1.045 13.819l7.927 1.082a99.633 99.633 0 001.118-14.901c0-27.668-11.379-52.724-29.698-70.748l-3.177 8.182c15.413 16.353 24.875 38.374 24.875 62.566z" fill="#ffd551"/></svg>