<svg width="30" height="30" viewBox="0 0 30 30" fill="none" xmlns="http://www.w3.org/2000/svg">
<circle cx="15" cy="15" r="11.25" fill="#197DBA"/>
<path d="M19.4711 7.98145H10.5297C9.10253 7.98145 7.94141 9.14257 7.94141 10.5697V19.5111C7.94141 20.9383 9.10253 22.0997 10.5297 22.0997H19.4711C20.8982 22.0997 22.0597 20.9386 22.0597 19.5111V10.5697C22.0597 9.14257 20.8986 7.98145 19.4711 7.98145ZM15.0004 19.6883C12.4378 19.6883 10.3529 17.6033 10.3529 15.0404C10.3529 12.4779 12.4378 10.3929 15.0004 10.3929C17.5633 10.3929 19.6482 12.4779 19.6482 15.0404C19.6482 17.603 17.5629 19.6883 15.0004 19.6883ZM19.7976 11.3538C19.191 11.3538 18.6977 10.8605 18.6977 10.2542C18.6977 9.64793 19.191 9.1546 19.7976 9.1546C20.4039 9.1546 20.8972 9.64793 20.8972 10.2542C20.8972 10.8605 20.4039 11.3538 19.7976 11.3538Z" fill="#3AAAEF"/>
<path d="M15.0003 12.3569C13.521 12.3569 12.3164 13.5608 12.3164 15.0401C12.3164 16.5201 13.521 17.7244 15.0003 17.7244C16.4803 17.7244 17.6838 16.5201 17.6838 15.0401C17.6838 13.5612 16.4799 12.3569 15.0003 12.3569Z" fill="#3AAAEF"/>
<path d="M15 0C6.71606 0 0 6.71606 0 15C0 23.2839 6.71606 30 15 30C23.2839 30 30 23.2839 30 15C30 6.71606 23.2839 0 15 0ZM24.0229 19.5111C24.0229 22.0215 21.9811 24.0634 19.4707 24.0634H10.5293C8.01923 24.0634 5.97707 22.0215 5.97707 19.5111V10.5698C5.97707 8.05967 8.01923 6.01751 10.5293 6.01751H19.4707C21.9811 6.01751 24.0229 8.05967 24.0229 10.5698V19.5111Z" fill="#3AAAEF"/>
</svg>
