<svg width="30" height="30" viewBox="0 0 30 30" fill="none" xmlns="http://www.w3.org/2000/svg">
<path d="M15 30C23.2843 30 30 23.2843 30 15C30 6.71573 23.2843 0 15 0C6.71573 0 0 6.71573 0 15C0 23.2843 6.71573 30 15 30Z" fill="#3AAAEF"/>
<path d="M6.86481 14.6753L21.3273 9.09901C21.9986 8.85651 22.5848 9.26276 22.3673 10.2778L22.3686 10.2765L19.9061 21.8778C19.7236 22.7003 19.2348 22.9003 18.5511 22.5128L14.8011 19.749L12.9923 21.4915C12.7923 21.6915 12.6236 21.8603 12.2361 21.8603L12.5023 18.044L19.4523 11.7653C19.7548 11.499 19.3848 11.349 18.9861 11.614L10.3973 17.0215L6.69481 15.8665C5.89106 15.6115 5.87356 15.0628 6.86481 14.6753Z" fill="#197DBA"/>
</svg>
