<svg width="30" height="30" viewBox="0 0 30 30" fill="none" xmlns="http://www.w3.org/2000/svg">
<g clip-path="url(#clip0)">
<path d="M15 30.0001C23.2843 30.0001 30.0001 23.2843 30.0001 15C30.0001 6.71574 23.2843 0 15 0C6.71574 0 0 6.71574 0 15C0 23.2843 6.71574 30.0001 15 30.0001Z" fill="#D42428"/>
<path d="M22.8492 12.1053C22.8492 10.8478 21.8306 9.82861 20.5738 9.82861H9.89806C8.64155 9.82861 7.62305 10.8481 7.62305 12.1053V18.2102C7.62305 19.4677 8.64174 20.4869 9.89806 20.4869H20.5736C21.8306 20.4869 22.8491 19.4674 22.8491 18.2102V12.1053H22.8492ZM13.713 17.7332V11.9992L18.0615 14.8663L13.713 17.7332Z" fill="white"/>
</g>
<defs>
<clipPath id="clip0">
<rect width="30" height="30" fill="white"/>
</clipPath>
</defs>
</svg>
